Cambay Devanagari-Oblique.ufo
<glyph name="percent" format="1">
  <advance width="501"/>
  <unicode hex="0025"/>
  <outline>
    <contour>
      <point x="494" y="456" type="line"/>
      <point x="93" y="0" type="line"/>
      <point x="25" y="0" type="line"/>
      <point x="424" y="456" type="line"/>
    </contour>
    <contour>
      <point x="169" y="287"/>
      <point x="193" y="330"/>
      <point x="193" y="364" type="curve" smooth="yes"/>
      <point x="193" y="393"/>
      <point x="182" y="407"/>
      <point x="151" y="407" type="curve" smooth="yes"/>
      <point x="112" y="407"/>
      <point x="90" y="364"/>
      <point x="90" y="330" type="curve" smooth="yes"/>
      <point x="90" y="305"/>
      <point x="99" y="287"/>
      <point x="130" y="287" type="curve" smooth="yes"/>
    </contour>
    <contour>
      <point x="71" y="238"/>
      <point x="39" y="273"/>
      <point x="39" y="327" type="curve" smooth="yes"/>
      <point x="39" y="390"/>
      <point x="89" y="456"/>
      <point x="161" y="456" type="curve" smooth="yes"/>
      <point x="211" y="456"/>
      <point x="245" y="421"/>
      <point x="245" y="367" type="curve" smooth="yes"/>
      <point x="245" y="304"/>
      <point x="195" y="238"/>
      <point x="123" y="238" type="curve" smooth="yes"/>
    </contour>
    <contour>
      <point x="400" y="49"/>
      <point x="424" y="92"/>
      <point x="424" y="126" type="curve" smooth="yes"/>
      <point x="424" y="155"/>
      <point x="413" y="169"/>
      <point x="382" y="169" type="curve" smooth="yes"/>
      <point x="343" y="169"/>
      <point x="321" y="126"/>
      <point x="321" y="92" type="curve" smooth="yes"/>
      <point x="321" y="67"/>
      <point x="330" y="49"/>
      <point x="361" y="49" type="curve" smooth="yes"/>
    </contour>
    <contour>
      <point x="302" y="0"/>
      <point x="270" y="35"/>
      <point x="270" y="89" type="curve" smooth="yes"/>
      <point x="270" y="152"/>
      <point x="320" y="218"/>
      <point x="392" y="218" type="curve" smooth="yes"/>
      <point x="442" y="218"/>
      <point x="476" y="183"/>
      <point x="476" y="129" type="curve" smooth="yes"/>
      <point x="476" y="66"/>
      <point x="426" y="0"/>
      <point x="354" y="0" type="curve" smooth="yes"/>
    </contour>
  </outline>
</glyph>
<glyph name="slash" format="1">
  <advance width="302"/>
  <unicode hex="002F"/>
  <outline>
    <contour>
      <point x="342" y="550" type="line"/>
      <point x="36" y="-35" type="line"/>
      <point x="-29" y="-35" type="line"/>
      <point x="277" y="550" type="line"/>
    </contour>
  </outline>
</glyph>
<glyph name="one" format="1">
  <advance width="270"/>
  <unicode hex="0031"/>
  <outline>
    <contour>
      <point x="87" y="456" type="line"/>
      <point x="-5" y="420" type="line"/>
      <point x="8" y="372" type="line"/>
      <point x="84" y="400" type="line"/>
      <point x="16" y="50" type="line"/>
      <point x="-60" y="50" type="line"/>
      <point x="-70" y="0" type="line"/>
      <point x="148" y="0" type="line"/>
      <point x="158" y="50" type="line"/>
      <point x="75" y="50" type="line"/>
      <point x="154" y="456" type="line"/>
    </contour>
  </outline>
</glyph>
<glyph name="two" format="1">
  <advance width="357"/>
  <unicode hex="0032"/>
  <outline>
    <contour>
      <point x="58" y="385"/>
      <point x="91" y="407"/>
      <point x="148" y="407" type="curve" smooth="yes"/>
      <point x="200" y="407"/>
      <point x="226" y="381"/>
      <point x="218" y="337" type="curve" smooth="yes"/>
      <point x="210" y="298"/>
      <point x="197" y="275"/>
      <point x="128" y="214" type="curve" smooth="yes"/>
      <point x="89" y="175"/>
      <point x="26" y="124"/>
      <point x="-58" y="45" type="curve"/>
      <point x="-59" y="0" type="line"/>
      <point x="214" y="0" type="line"/>
      <point x="225" y="55" type="line"/>
      <point x="35" y="55" type="line"/>
      <point x="129" y="138" type="line" smooth="yes"/>
      <point x="209" y="208"/>
      <point x="261" y="255"/>
      <point x="275" y="327" type="curve" smooth="yes"/>
      <point x="293" y="422"/>
      <point x="224" y="465"/>
      <point x="160" y="465" type="curve" smooth="yes"/>
      <point x="88" y="465"/>
      <point x="39" y="439"/>
      <point x="3" y="421" type="curve"/>
      <point x="19" y="367" type="line"/>
    </contour>
  </outline>
</glyph>
<glyph name="nine" format="1">
  <advance width="387"/>
  <unicode hex="0039"/>
  <outline>
    <contour>
      <point x="219" y="248"/>
      <point x="186" y="222"/>
      <point x="119" y="222" type="curve" smooth="yes"/>
      <point x="61" y="222"/>
      <point x="42" y="246"/>
      <point x="42" y="290" type="curve" smooth="yes"/>
      <point x="42" y="337"/>
      <point x="75" y="398"/>
      <point x="161" y="398" type="curve" smooth="yes"/>
      <point x="233" y="398"/>
      <point x="260" y="340"/>
      <point x="233" y="235" type="curve"/>
      <point x="232" y="230"/>
      <point x="232" y="227"/>
      <point x="232" y="227" type="curve" smooth="yes"/>
      <point x="208" y="127"/>
      <point x="138" y="43"/>
      <point x="-14" y="48" type="curve"/>
      <point x="-14" y="-7" type="line"/>
      <point x="157" y="-7"/>
      <point x="260" y="74"/>
      <point x="292" y="236" type="curve" smooth="yes"/>
      <point x="316" y="359"/>
      <point x="281" y="455"/>
      <point x="165" y="455" type="curve" smooth="yes"/>
      <point x="37" y="455"/>
      <point x="-18" y="364"/>
      <point x="-18" y="284" type="curve" smooth="yes"/>
      <point x="-18" y="199"/>
      <point x="44" y="164"/>
      <point x="112" y="164" type="curve" smooth="yes"/>
      <point x="167" y="164"/>
      <point x="213" y="180"/>
      <point x="248" y="204" type="curve"/>
      <point x="254" y="273" type="line"/>
    </contour>
  </outline>
</glyph>
<glyph name="equal" format="1">
  <advance width="522"/>
  <unicode hex="003D"/>
  <outline>
    <contour>
      <point x="442" y="333" type="line"/>
      <point x="442" y="277" type="line"/>
      <point x="80" y="277" type="line"/>
      <point x="80" y="333" type="line"/>
    </contour>
    <contour>
      <point x="442" y="184" type="line"/>
      <point x="442" y="128" type="line"/>
      <point x="80" y="128" type="line"/>
      <point x="80" y="184" type="line"/>
    </contour>
  </outline>
</glyph>
<glyph name="A" format="1">
  <advance width="493"/>
  <unicode hex="0041"/>
  <outline>
    <contour>
      <point x="369" y="0" type="line"/>
      <point x="348" y="161" type="line"/>
      <point x="138" y="161" type="line"/>
      <point x="55" y="0" type="line"/>
      <point x="-21" y="0" type="line"/>
      <point x="274" y="550" type="line"/>
      <point x="359" y="550" type="line"/>
      <point x="441" y="0" type="line"/>
    </contour>
    <contour>
      <point x="168" y="218" type="line"/>
      <point x="340" y="218" type="line"/>
      <point x="305" y="481" type="line"/>
    </contour>
    <contour>
      <point x="322" y="550" type="move" name="top.cap"/>
    </contour>
  </outline>
</glyph>
<glyph name="I" format="1">
  <advance width="205"/>
  <unicode hex="0049"/>
  <outline>
    <contour>
      <point x="205" y="550" type="line"/>
      <point x="98" y="0" type="line"/>
      <point x="33" y="0" type="line"/>
      <point x="140" y="550" type="line"/>
    </contour>
    <contour>
      <point x="172" y="550" type="move" name="top.cap"/>
    </contour>
  </outline>
</glyph>
<glyph name="P" format="1">
  <advance width="465"/>
  <unicode hex="0050"/>
  <outline>
    <contour>
      <point x="200" y="286"/>
      <point x="176" y="287"/>
      <point x="149" y="289" type="curve"/>
      <point x="191" y="494" type="line"/>
      <point x="265" y="494" type="line" smooth="yes"/>
      <point x="300" y="494"/>
      <point x="324" y="494"/>
      <point x="337" y="491" type="curve"/>
      <point x="387" y="485"/>
      <point x="417" y="454"/>
      <point x="406" y="397" type="curve" smooth="yes"/>
      <point x="387" y="298"/>
      <point x="310" y="286"/>
      <point x="219" y="286" type="curve" smooth="yes"/>
    </contour>
    <contour>
      <point x="494" y="507"/>
      <point x="414" y="550"/>
      <point x="302" y="550" type="curve" smooth="yes"/>
      <point x="136" y="550" type="line"/>
      <point x="29" y="0" type="line"/>
      <point x="95" y="0" type="line"/>
      <point x="142" y="230" type="line"/>
      <point x="165" y="228"/>
      <point x="187" y="228"/>
      <point x="209" y="228" type="curve" smooth="yes"/>
      <point x="337" y="228"/>
      <point x="437" y="247"/>
      <point x="470" y="383" type="curve"/>
    </contour>
  </outline>
</glyph>
<glyph name="Q" format="1">
  <advance width="609"/>
  <unicode hex="0051"/>
  <outline>
    <contour>
      <point x="580" y="481"/>
      <point x="476" y="557"/>
      <point x="364" y="557" type="curve" smooth="yes"/>
      <point x="233" y="557"/>
      <point x="58" y="455"/>
      <point x="58" y="223" type="curve"/>
      <point x="58" y="67"/>
      <point x="160" y="-7"/>
      <point x="274" y="-7" type="curve" smooth="yes"/>
      <point x="405" y="-7"/>
      <point x="580" y="94"/>
      <point x="580" y="326" type="curve"/>
    </contour>
    <contour>
      <point x="510" y="174"/>
      <point x="411" y="58"/>
      <point x="289" y="58" type="curve" smooth="yes"/>
      <point x="184" y="58"/>
      <point x="127" y="114"/>
      <point x="127" y="227" type="curve"/>
      <point x="127" y="375"/>
      <point x="227" y="492"/>
      <point x="349" y="492" type="curve" smooth="yes"/>
      <point x="454" y="492"/>
      <point x="510" y="435"/>
      <point x="510" y="322" type="curve"/>
    </contour>
    <contour>
      <point x="304" y="204" type="line"/>
      <point x="501" y="-22" type="line"/>
      <point x="548" y="21" type="line"/>
      <point x="353" y="245" type="line"/>
    </contour>
  </outline>
</glyph>
<glyph name="S" format="1">
  <advance width="463"/>
  <unicode hex="0053"/>
  <outline>
    <contour>
      <point x="143" y="60"/>
      <point x="100" y="68"/>
      <point x="41" y="92" type="curve"/>
      <point x="9" y="30" type="line"/>
      <point x="63" y="10"/>
      <point x="100" y="-8"/>
      <point x="172" y="-8" type="curve" smooth="yes"/>
      <point x="327" y="-8"/>
      <point x="413" y="78"/>
      <point x="413" y="160" type="curve" smooth="yes"/>
      <point x="413" y="256"/>
      <point x="329" y="280"/>
      <point x="257" y="311" type="curve" smooth="yes"/>
      <point x="217" y="330"/>
      <point x="162" y="361"/>
      <point x="162" y="408" type="curve" smooth="yes"/>
      <point x="162" y="455"/>
      <point x="202" y="497"/>
      <point x="309" y="497" type="curve" smooth="yes"/>
      <point x="346" y="497"/>
      <point x="388" y="482"/>
      <point x="425" y="466" type="curve"/>
      <point x="452" y="523" type="line"/>
      <point x="409" y="542"/>
      <point x="357" y="562"/>
      <point x="305" y="562" type="curve" smooth="yes"/>
      <point x="186" y="562"/>
      <point x="92" y="508"/>
      <point x="92" y="401" type="curve" smooth="yes"/>
      <point x="92" y="333"/>
      <point x="149" y="287"/>
      <point x="218" y="259" type="curve" smooth="yes"/>
      <point x="270" y="235"/>
      <point x="341" y="214"/>
      <point x="341" y="158" type="curve" smooth="yes"/>
      <point x="341" y="111"/>
      <point x="287" y="60"/>
      <point x="179" y="60" type="curve" smooth="yes"/>
    </contour>
    <contour>
      <point x="301" y="549" type="move" name="top.cap"/>
    </contour>
    <contour>
      <point x="176" y="2" type="move" name="bottom"/>
    </contour>
  </outline>
</glyph>
<glyph name="U" format="1">
  <advance width="543"/>
  <unicode hex="0055"/>
  <outline>
    <contour>
      <point x="384" y="-9"/>
      <point x="456" y="64"/>
      <point x="484" y="208" type="curve" smooth="yes"/>
      <point x="550" y="550" type="line"/>
      <point x="485" y="550" type="line"/>
      <point x="416" y="196" type="line" smooth="yes"/>
      <point x="402" y="119"/>
      <point x="350" y="49"/>
      <point x="240" y="49" type="curve" smooth="yes"/>
      <point x="136" y="49"/>
      <point x="110" y="100"/>
      <point x="127" y="192" type="curve" smooth="yes"/>
      <point x="197" y="550" type="line"/>
      <point x="132" y="550" type="line"/>
      <point x="66" y="212" type="line" smooth="yes"/>
      <point x="38" y="68"/>
      <point x="84" y="-9"/>
      <point x="236" y="-9" type="curve" smooth="yes"/>
    </contour>
    <contour>
      <point x="325" y="550" type="move" name="top.cap"/>
    </contour>
  </outline>
</glyph>
<glyph name="V" format="1">
  <advance width="480"/>
  <unicode hex="0056"/>
  <outline>
    <contour>
      <point x="151" y="550" type="line"/>
      <point x="215" y="69" type="line"/>
      <point x="465" y="550" type="line"/>
      <point x="541" y="550" type="line"/>
      <point x="246" y="0" type="line"/>
      <point x="161" y="0" type="line"/>
      <point x="79" y="550" type="line"/>
    </contour>
  </outline>
</glyph>
<glyph name="Y" format="1">
  <advance width="454"/>
  <unicode hex="0059"/>
  <outline>
    <contour>
      <point x="155" y="0" type="line"/>
      <point x="204" y="254" type="line"/>
      <point x="79" y="550" type="line"/>
      <point x="152" y="550" type="line"/>
      <point x="249" y="324" type="line"/>
      <point x="437" y="550" type="line"/>
      <point x="515" y="550" type="line"/>
      <point x="269" y="249" type="line"/>
      <point x="221" y="0" type="line"/>
    </contour>
    <contour>
      <point x="292" y="550" type="move" name="top.cap"/>
    </contour>
  </outline>
</glyph>
<glyph name="bracketleft" format="1">
  <advance width="305"/>
  <unicode hex="005B"/>
  <outline>
    <contour>
      <point x="187" y="-89" type="line"/>
      <point x="65" y="-89" type="line"/>
      <point x="186" y="536" type="line"/>
      <point x="308" y="536" type="line"/>
      <point x="318" y="586" type="line"/>
      <point x="140" y="586" type="line"/>
      <point x="-1" y="-139" type="line"/>
      <point x="177" y="-139" type="line"/>
    </contour>
  </outline>
</glyph>
<glyph name="c" format="1">
  <advance width="366"/>
  <unicode hex="0063"/>
  <outline>
    <contour>
      <point x="232" y="-9"/>
      <point x="263" y="-2"/>
      <point x="303" y="12" type="curve"/>
      <point x="291" y="62" type="line"/>
      <point x="266" y="53"/>
      <point x="238" y="48"/>
      <point x="214" y="48" type="curve" smooth="yes"/>
      <point x="159" y="48"/>
      <point x="100" y="62"/>
      <point x="100" y="148" type="curve" smooth="yes"/>
      <point x="100" y="232"/>
      <point x="141" y="335"/>
      <point x="273" y="335" type="curve" smooth="yes"/>
      <point x="300" y="335"/>
      <point x="322" y="331"/>
      <point x="348" y="321" type="curve"/>
      <point x="370" y="367" type="line"/>
      <point x="337" y="382"/>
      <point x="307" y="389"/>
      <point x="273" y="389" type="curve" smooth="yes"/>
      <point x="94" y="389"/>
      <point x="33" y="253"/>
      <point x="34" y="135" type="curve" smooth="yes"/>
      <point x="33" y="48"/>
      <point x="88" y="-9"/>
      <point x="191" y="-9" type="curve" smooth="yes"/>
    </contour>
    <contour>
      <point x="261" y="384" type="move" name="top"/>
    </contour>
  </outline>
</glyph>
<glyph name="h" format="1">
  <advance width="428"/>
  <unicode hex="0068"/>
  <outline>
    <contour>
      <point x="274" y="0" type="line"/>
      <point x="340" y="0" type="line"/>
      <point x="390" y="259" type="line" smooth="yes"/>
      <point x="406" y="341"/>
      <point x="368" y="394"/>
      <point x="286" y="394" type="curve" smooth="yes"/>
      <point x="249" y="394"/>
      <point x="205" y="384"/>
      <point x="154" y="360" type="curve"/>
      <point x="189" y="532" type="line"/>
      <point x="124" y="532" type="line"/>
      <point x="21" y="0" type="line"/>
      <point x="86" y="0" type="line"/>
      <point x="148" y="310" type="line"/>
      <point x="192" y="329"/>
      <point x="228" y="339"/>
      <point x="259" y="339" type="curve" smooth="yes"/>
      <point x="321" y="339"/>
      <point x="335" y="312"/>
      <point x="322" y="248" type="curve" smooth="yes"/>
    </contour>
  </outline>
</glyph>
<glyph name="i" format="1">
  <advance width="181"/>
  <unicode hex="0069"/>
  <outline>
    <contour>
      <point x="21" y="0" type="line"/>
      <point x="86" y="0" type="line"/>
      <point x="161" y="384" type="line"/>
      <point x="96" y="384" type="line"/>
    </contour>
    <contour>
      <point x="169" y="458"/>
      <point x="187" y="476"/>
      <point x="191" y="495" type="curve" smooth="yes"/>
      <point x="196" y="519"/>
      <point x="181" y="541"/>
      <point x="155" y="541" type="curve" smooth="yes"/>
      <point x="132" y="541"/>
      <point x="114" y="523"/>
      <point x="110" y="505" type="curve" smooth="yes"/>
      <point x="105" y="480"/>
      <point x="120" y="458"/>
      <point x="147" y="458" type="curve" smooth="yes"/>
    </contour>
  </outline>
</glyph>
<glyph name="o" format="1">
  <advance width="447"/>
  <unicode hex="006F"/>
  <outline>
    <contour>
      <point x="331" y="338"/>
      <point x="359" y="274"/>
      <point x="344" y="195" type="curve" smooth="yes"/>
      <point x="327" y="111"/>
      <point x="271" y="44"/>
      <point x="192" y="44" type="curve" smooth="yes"/>
      <point x="115" y="44"/>
      <point x="88" y="107"/>
      <point x="104" y="185" type="curve" smooth="yes"/>
      <point x="120" y="270"/>
      <point x="177" y="338"/>
      <point x="257" y="338" type="curve" smooth="yes"/>
    </contour>
    <contour>
      <point x="302" y="-9"/>
      <point x="385" y="70"/>
      <point x="408" y="186" type="curve" smooth="yes"/>
      <point x="432" y="310"/>
      <point x="381" y="389"/>
      <point x="259" y="389" type="curve" smooth="yes"/>
      <point x="141" y="389"/>
      <point x="62" y="313"/>
      <point x="39" y="195" type="curve" smooth="yes"/>
      <point x="15" y="73"/>
      <point x="68" y="-9"/>
      <point x="187" y="-9" type="curve" smooth="yes"/>
    </contour>
    <contour>
      <point x="265" y="384" type="move" name="top"/>
    </contour>
  </outline>
</glyph>
<glyph name="z" format="1">
  <advance width="386"/>
  <unicode hex="007A"/>
  <outline>
    <contour>
      <point x="74" y="333" type="line"/>
      <point x="279" y="333" type="line"/>
      <point x="15" y="33" type="line"/>
      <point x="14" y="0" type="line"/>
      <point x="311" y="0" type="line"/>
      <point x="321" y="49" type="line"/>
      <point x="104" y="49" type="line"/>
      <point x="369" y="350" type="line"/>
      <point x="370" y="384" type="line"/>
      <point x="84" y="384" type="line"/>
    </contour>
    <contour>
      <point x="230" y="384" type="move" name="top"/>
    </contour>
  </outline>
</glyph>
<glyph name="braceleft" format="1">
  <advance width="311"/>
  <unicode hex="007B"/>
  <outline>
    <contour>
      <point x="48" y="240" type="line"/>
      <point x="98" y="248"/>
      <point x="149" y="288"/>
      <point x="160" y="342" type="curve" smooth="yes"/>
      <point x="174" y="417" type="line" smooth="yes"/>
      <point x="197" y="540"/>
      <point x="274" y="576"/>
      <point x="350" y="586" type="curve"/>
      <point x="351" y="526" type="line"/>
      <point x="288" y="512"/>
      <point x="249" y="496"/>
      <point x="229" y="398" type="curve" smooth="yes"/>
      <point x="218" y="337" type="line" smooth="yes"/>
      <point x="207" y="275"/>
      <point x="164" y="232"/>
      <point x="124" y="206" type="curve"/>
      <point x="153" y="182"/>
      <point x="178" y="144"/>
      <point x="166" y="85" type="curve" smooth="yes"/>
      <point x="156" y="33" type="line" smooth="yes"/>
      <point x="138" y="-64"/>
      <point x="166" y="-90"/>
      <point x="228" y="-105" type="curve"/>
      <point x="200" y="-158" type="line"/>
      <point x="139" y="-148"/>
      <point x="74" y="-97"/>
      <point x="94" y="7" type="curve" smooth="yes"/>
      <point x="109" y="82" type="line" smooth="yes"/>
      <point x="120" y="136"/>
      <point x="81" y="180"/>
      <point x="34" y="188" type="curve"/>
    </contour>
  </outline>
</glyph>
<glyph name="exclamdown" format="1">
  <advance width="191"/>
  <unicode hex="00A1"/>
  <outline>
    <contour>
      <point x="100" y="-49" type="line"/>
      <point x="169" y="354" type="line"/>
      <point x="120" y="354" type="line"/>
      <point x="33" y="-49" type="line"/>
    </contour>
    <contour>
      <point x="143" y="483"/>
      <point x="129" y="470"/>
      <point x="126" y="450" type="curve" smooth="yes"/>
      <point x="121" y="425"/>
      <point x="132" y="407"/>
      <point x="159" y="407" type="curve" smooth="yes"/>
      <point x="182" y="407"/>
      <point x="196" y="421"/>
      <point x="200" y="440" type="curve" smooth="yes"/>
      <point x="205" y="466"/>
      <point x="192" y="483"/>
      <point x="166" y="483" type="curve" smooth="yes"/>
    </contour>
  </outline>
</glyph>
<glyph name="twosuperior" format="1">
  <advance width="299"/>
  <unicode hex="00B2"/>
  <outline>
    <contour>
      <point x="41" y="565" type="line"/>
      <point x="68" y="575"/>
      <point x="100" y="587"/>
      <point x="137" y="587" type="curve" smooth="yes"/>
      <point x="193" y="587"/>
      <point x="233" y="566"/>
      <point x="233" y="504" type="curve" smooth="yes"/>
      <point x="233" y="455"/>
      <point x="192" y="406"/>
      <point x="90" y="321" type="curve"/>
      <point x="208" y="321" type="line"/>
      <point x="198" y="275" type="line"/>
      <point x="1" y="275" type="line"/>
      <point x="1" y="307" type="line"/>
      <point x="90" y="382" type="line"/>
      <point x="141" y="425"/>
      <point x="171" y="456"/>
      <point x="177" y="484" type="curve" smooth="yes"/>
      <point x="182" y="512"/>
      <point x="177" y="538"/>
      <point x="130" y="538" type="curve" smooth="yes"/>
      <point x="107" y="538"/>
      <point x="73" y="528"/>
      <point x="44" y="517" type="curve"/>
    </contour>
  </outline>
</glyph>
<glyph name="threesuperior" format="1">
  <advance width="292"/>
  <unicode hex="00B3"/>
  <outline>
    <contour>
      <point x="190" y="590"/>
      <point x="222" y="562"/>
      <point x="222" y="520" type="curve" smooth="yes"/>
      <point x="222" y="486"/>
      <point x="203" y="455"/>
      <point x="173" y="432" type="curve"/>
      <point x="198" y="417"/>
      <point x="209" y="397"/>
      <point x="209" y="369" type="curve" smooth="yes"/>
      <point x="209" y="320"/>
      <point x="181" y="267"/>
      <point x="77" y="267" type="curve" smooth="yes"/>
      <point x="39" y="267"/>
      <point x="6" y="280"/>
      <point x="-12" y="288" type="curve"/>
      <point x="11" y="329" type="line"/>
      <point x="41" y="319"/>
      <point x="61" y="312"/>
      <point x="80" y="312" type="curve" smooth="yes"/>
      <point x="142" y="312"/>
      <point x="159" y="339"/>
      <point x="159" y="370" type="curve" smooth="yes"/>
      <point x="159" y="400"/>
      <point x="132" y="410"/>
      <point x="82" y="410" type="curve" smooth="yes"/>
      <point x="73" y="410" type="line"/>
      <point x="81" y="452" type="line"/>
      <point x="90" y="452" type="line" smooth="yes"/>
      <point x="161" y="452"/>
      <point x="174" y="481"/>
      <point x="174" y="507" type="curve" smooth="yes"/>
      <point x="174" y="535"/>
      <point x="155" y="544"/>
      <point x="127" y="544" type="curve" smooth="yes"/>
      <point x="109" y="544"/>
      <point x="85" y="539"/>
      <point x="55" y="531" type="curve"/>
      <point x="47" y="575" type="line"/>
      <point x="83" y="585"/>
      <point x="102" y="590"/>
      <point x="139" y="590" type="curve" smooth="yes"/>
    </contour>
  </outline>
</glyph>
<glyph name="onequarter" format="1">
  <advance width="674"/>
  <unicode hex="00BC"/>
  <outline>
    <contour>
      <point x="480" y="113" type="line"/>
      <point x="528" y="113" type="line"/>
      <point x="519" y="66" type="line"/>
      <point x="469" y="66" type="line"/>
      <point x="456" y="0" type="line"/>
      <point x="407" y="0" type="line"/>
      <point x="420" y="66" type="line"/>
      <point x="275" y="66" type="line"/>
      <point x="279" y="107" type="line"/>
      <point x="457" y="309" type="line"/>
      <point x="518" y="309" type="line"/>
    </contour>
    <contour>
      <point x="457" y="240" type="line"/>
      <point x="344" y="113" type="line"/>
      <point x="429" y="113" type="line"/>
    </contour>
    <contour>
      <point x="527" y="550" type="line"/>
      <point x="61" y="0" type="line"/>
      <point x="-6" y="0" type="line"/>
      <point x="461" y="550" type="line"/>
    </contour>
    <contour>
      <point x="115" y="239" type="line"/>
      <point x="65" y="239" type="line"/>
      <point x="112" y="498" type="line"/>
      <point x="52" y="483" type="line"/>
      <point x="41" y="523" type="line"/>
      <point x="131" y="550" type="line"/>
      <point x="175" y="550" type="line"/>
    </contour>
  </outline>
</glyph>
<glyph name="Oslash" format="1">
  <advance width="647"/>
  <unicode hex="00D8"/>
  <outline>
    <contour>
      <point x="601" y="481"/>
      <point x="497" y="557"/>
      <point x="385" y="557" type="curve" smooth="yes"/>
      <point x="254" y="557"/>
      <point x="79" y="455"/>
      <point x="79" y="223" type="curve"/>
      <point x="79" y="67"/>
      <point x="181" y="-7"/>
      <point x="295" y="-7" type="curve" smooth="yes"/>
      <point x="426" y="-7"/>
      <point x="601" y="94"/>
      <point x="601" y="326" type="curve"/>
    </contour>
    <contour>
      <point x="531" y="174"/>
      <point x="432" y="58"/>
      <point x="310" y="58" type="curve" smooth="yes"/>
      <point x="205" y="58"/>
      <point x="148" y="114"/>
      <point x="148" y="227" type="curve"/>
      <point x="148" y="375"/>
      <point x="248" y="492"/>
      <point x="370" y="492" type="curve" smooth="yes"/>
      <point x="475" y="492"/>
      <point x="531" y="435"/>
      <point x="531" y="322" type="curve"/>
    </contour>
    <contour>
      <point x="0" y="37" type="line"/>
      <point x="36" y="-8" type="line"/>
      <point x="679" y="511" type="line"/>
      <point x="644" y="556" type="line"/>
    </contour>
  </outline>
</glyph>
<glyph name="thorn" format="1">
  <advance width="446"/>
  <unicode hex="00FE"/>
  <outline>
    <contour>
      <point x="289" y="-10"/>
      <point x="383" y="62"/>
      <point x="407" y="190" type="curve" smooth="yes"/>
      <point x="427" y="298"/>
      <point x="377" y="388"/>
      <point x="267" y="388" type="curve" smooth="yes"/>
      <point x="220" y="388"/>
      <point x="183" y="375"/>
      <point x="151" y="346" type="curve"/>
      <point x="192" y="550" type="line"/>
      <point x="127" y="550" type="line"/>
      <point x="-20" y="-206" type="line"/>
      <point x="45" y="-206" type="line"/>
      <point x="94" y="34" type="line"/>
      <point x="115" y="9"/>
      <point x="146" y="-10"/>
      <point x="193" y="-10" type="curve" smooth="yes"/>
    </contour>
    <contour>
      <point x="155" y="46"/>
      <point x="129" y="60"/>
      <point x="114" y="91" type="curve"/>
      <point x="107" y="111"/>
      <point x="108" y="143"/>
      <point x="116" y="184" type="curve" smooth="yes"/>
      <point x="132" y="266"/>
      <point x="176" y="334"/>
      <point x="255" y="334" type="curve" smooth="yes"/>
      <point x="338" y="332"/>
      <point x="360" y="264"/>
      <point x="344" y="185" type="curve" smooth="yes"/>
      <point x="329" y="108"/>
      <point x="266" y="46"/>
      <point x="191" y="46" type="curve" smooth="yes"/>
    </contour>
  </outline>
</glyph>
<glyph name="Aogonek" format="1">
  <advance width="494"/>
  <unicode hex="0104"/>
  <outline>
    <contour>
      <point x="340" y="218" type="line"/>
      <point x="168" y="218" type="line"/>
      <point x="305" y="481" type="line"/>
    </contour>
    <contour>
      <point x="261" y="-45"/>
      <point x="233" y="-92"/>
      <point x="233" y="-146" type="curve" smooth="yes"/>
      <point x="233" y="-187"/>
      <point x="260" y="-210"/>
      <point x="301" y="-210" type="curve" smooth="yes"/>
      <point x="330" y="-210"/>
      <point x="370" y="-198"/>
      <point x="408" y="-173" type="curve"/>
      <point x="391" y="-135" type="line"/>
      <point x="364" y="-150"/>
      <point x="342" y="-159"/>
      <point x="320" y="-159" type="curve" smooth="yes"/>
      <point x="299" y="-159"/>
      <point x="286" y="-149"/>
      <point x="291" y="-123" type="curve" smooth="yes"/>
      <point x="297" y="-95"/>
      <point x="322" y="-68"/>
      <point x="364" y="-40" type="curve" smooth="yes"/>
      <point x="440" y="10" type="line"/>
      <point x="359" y="550" type="line"/>
      <point x="274" y="550" type="line"/>
      <point x="-21" y="0" type="line"/>
      <point x="55" y="0" type="line"/>
      <point x="138" y="161" type="line"/>
      <point x="348" y="161" type="line"/>
      <point x="368" y="13" type="line"/>
    </contour>
    <contour>
      <point x="322" y="550" type="move" name="top.cap"/>
    </contour>
  </outline>
</glyph>
<glyph name="aogonek" format="1">
  <advance width="395"/>
  <unicode hex="0105"/>
  <outline>
    <contour>
      <point x="351" y="246" type="line" smooth="yes"/>
      <point x="371" y="353"/>
      <point x="318" y="388"/>
      <point x="223" y="388" type="curve" smooth="yes"/>
      <point x="184" y="388"/>
      <point x="139" y="380"/>
      <point x="96" y="366" type="curve"/>
      <point x="104" y="316" type="line"/>
      <point x="137" y="326"/>
      <point x="182" y="333"/>
      <point x="211" y="333" type="curve" smooth="yes"/>
      <point x="291" y="333"/>
      <point x="300" y="305"/>
      <point x="283" y="225" type="curve"/>
      <point x="224" y="224"/>
      <point x="174" y="221"/>
      <point x="132" y="211" type="curve" smooth="yes"/>
      <point x="82" y="199"/>
      <point x="32" y="161"/>
      <point x="20" y="101" type="curve" smooth="yes"/>
      <point x="7" y="35"/>
      <point x="48" y="-10"/>
      <point x="118" y="-10" type="curve" smooth="yes"/>
      <point x="169" y="-10"/>
      <point x="216" y="11"/>
      <point x="254" y="38" type="curve"/>
      <point x="253" y="8" type="line"/>
      <point x="201" y="-18" type="line" smooth="yes"/>
      <point x="130" y="-56"/>
      <point x="93" y="-91"/>
      <point x="83" y="-139" type="curve" smooth="yes"/>
      <point x="74" y="-188"/>
      <point x="108" y="-214"/>
      <point x="152" y="-214" type="curve" smooth="yes"/>
      <point x="183" y="-214"/>
      <point x="218" y="-201"/>
      <point x="262" y="-178" type="curve"/>
      <point x="245" y="-141" type="line"/>
      <point x="218" y="-156"/>
      <point x="194" y="-164"/>
      <point x="175" y="-164" type="curve" smooth="yes"/>
      <point x="154" y="-164"/>
      <point x="141" y="-153"/>
      <point x="146" y="-128" type="curve" smooth="yes"/>
      <point x="154" y="-84"/>
      <point x="242" y="-39"/>
      <point x="303" y="-12" type="curve"/>
    </contour>
    <contour>
      <point x="105" y="42"/>
      <point x="75" y="60"/>
      <point x="82" y="98" type="curve" smooth="yes"/>
      <point x="90" y="139"/>
      <point x="122" y="159"/>
      <point x="173" y="169" type="curve" smooth="yes"/>
      <point x="187" y="172"/>
      <point x="223" y="177"/>
      <point x="275" y="178" type="curve"/>
      <point x="254" y="88" type="line"/>
      <point x="220" y="62"/>
      <point x="186" y="42"/>
      <point x="137" y="42" type="curve" smooth="yes"/>
    </contour>
  </outline>
</glyph>
<glyph name="gcommaaccent" format="1">
  <advance width="439"/>
  <unicode hex="0123"/>
  <outline>
    <contour>
      <point x="244" y="435" type="line"/>
      <point x="296" y="435" type="line"/>
      <point x="362" y="586" type="line"/>
      <point x="296" y="586" type="line"/>
    </contour>
    <component base="g"/>
  </outline>
</glyph>
<glyph name="IJ" format="1">
  <advance width="494"/>
  <unicode hex="0132"/>
  <outline>
    <contour>
      <point x="503" y="550" type="line"/>
      <point x="429" y="167" type="line" smooth="yes"/>
      <point x="407" y="56"/>
      <point x="353" y="-7"/>
      <point x="221" y="-7" type="curve" smooth="yes"/>
      <point x="198" y="-7"/>
      <point x="173" y="-5"/>
      <point x="150" y="1" type="curve"/>
      <point x="176" y="62" type="line"/>
      <point x="196" y="57"/>
      <point x="214" y="55"/>
      <point x="231" y="55" type="curve"/>
      <point x="318" y="55"/>
      <point x="346" y="93"/>
      <point x="370" y="200" type="curve"/>
      <point x="438" y="550" type="line"/>
    </contour>
    <component base="I"/>
  </outline>
</glyph>
<glyph name="lcaron" format="1">
  <advance width="236"/>
  <unicode hex="013E"/>
  <outline>
    <contour>
      <point x="211" y="435" type="line"/>
      <point x="257" y="435" type="line"/>
      <point x="323" y="586" type="line"/>
      <point x="263" y="586" type="line"/>
    </contour>
    <contour>
      <point x="93" y="51"/>
      <point x="98" y="76"/>
      <point x="103" y="104" type="curve" smooth="yes"/>
      <point x="187" y="533" type="line"/>
      <point x="124" y="533" type="line"/>
      <point x="35" y="85" type="line" smooth="yes"/>
      <point x="24" y="31"/>
      <point x="52" y="-9"/>
      <point x="104" y="-9" type="curve" smooth="yes"/>
      <point x="140" y="-9"/>
      <point x="168" y="3"/>
      <point x="184" y="9" type="curve"/>
      <point x="176" y="58" type="line"/>
      <point x="164" y="54"/>
      <point x="153" y="51"/>
      <point x="140" y="51" type="curve" smooth="yes"/>
    </contour>
  </outline>
</glyph>
<glyph name="OE" format="1">
  <advance width="726"/>
  <unicode hex="0152"/>
  <outline>
    <contour>
      <point x="145" y="388"/>
      <point x="224" y="473"/>
      <point x="334" y="488" type="curve" smooth="yes"/>
      <point x="350" y="491"/>
      <point x="375" y="494"/>
      <point x="407" y="494" type="curve" smooth="yes"/>
      <point x="427" y="494" type="line"/>
      <point x="342" y="58" type="line"/>
      <point x="290" y="58" type="line" smooth="yes"/>
      <point x="269" y="58"/>
      <point x="251" y="58"/>
      <point x="238" y="61" type="curve"/>
      <point x="151" y="77"/>
      <point x="101" y="142"/>
      <point x="122" y="259" type="curve" smooth="yes"/>
    </contour>
    <contour>
      <point x="379" y="550"/>
      <point x="330" y="548"/>
      <point x="294" y="540" type="curve" smooth="yes"/>
      <point x="169" y="511"/>
      <point x="89" y="421"/>
      <point x="61" y="277" type="curve" smooth="yes"/>
      <point x="47" y="207"/>
      <point x="51" y="151"/>
      <point x="72" y="109" type="curve" smooth="yes"/>
      <point x="106" y="30"/>
      <point x="173" y="0"/>
      <point x="302" y="0" type="curve" smooth="yes"/>
      <point x="637" y="0" type="line"/>
      <point x="648" y="58" type="line"/>
      <point x="408" y="58" type="line"/>
      <point x="447" y="256" type="line"/>
      <point x="666" y="256" type="line"/>
      <point x="677" y="313" type="line"/>
      <point x="458" y="313" type="line"/>
      <point x="493" y="494" type="line"/>
      <point x="733" y="494" type="line"/>
      <point x="744" y="550" type="line"/>
      <point x="440" y="550" type="line" smooth="yes"/>
    </contour>
  </outline>
</glyph>
<glyph name="Uogonek" format="1">
  <advance width="542"/>
  <unicode hex="0172"/>
  <outline>
    <contour>
      <point x="239" y="-211"/>
      <point x="284" y="-201"/>
      <point x="324" y="-175" type="curve"/>
      <point x="306" y="-132" type="line"/>
      <point x="280" y="-149"/>
      <point x="254" y="-159"/>
      <point x="226" y="-159" type="curve" smooth="yes"/>
      <point x="201" y="-159"/>
      <point x="195" y="-144"/>
      <point x="199" y="-123" type="curve" smooth="yes"/>
      <point x="211" y="-60"/>
      <point x="298" y="-13"/>
      <point x="353" y="12" type="curve" smooth="yes"/>
      <point x="420" y="46"/>
      <point x="460" y="88"/>
      <point x="478" y="180" type="curve" smooth="yes"/>
      <point x="550" y="550" type="line"/>
      <point x="485" y="550" type="line"/>
      <point x="416" y="196" type="line" smooth="yes"/>
      <point x="412" y="173"/>
      <point x="405" y="154"/>
      <point x="398" y="142" type="curve"/>
      <point x="373" y="83"/>
      <point x="310" y="49"/>
      <point x="240" y="49" type="curve" smooth="yes"/>
      <point x="192" y="49"/>
      <point x="155" y="62"/>
      <point x="135" y="87" type="curve" smooth="yes"/>
      <point x="118" y="117"/>
      <point x="119" y="143"/>
      <point x="128" y="192" type="curve" smooth="yes"/>
      <point x="198" y="550" type="line"/>
      <point x="132" y="550" type="line"/>
      <point x="73" y="245" type="line"/>
      <point x="66" y="209" type="line" smooth="yes"/>
      <point x="62" y="189"/>
      <point x="59" y="172"/>
      <point x="57" y="159" type="curve" smooth="yes"/>
      <point x="44" y="53"/>
      <point x="112" y="-10"/>
      <point x="231" y="-9" type="curve"/>
      <point x="191" y="-41"/>
      <point x="155" y="-75"/>
      <point x="143" y="-127" type="curve" smooth="yes"/>
      <point x="132" y="-173"/>
      <point x="163" y="-211"/>
      <point x="214" y="-211" type="curve" smooth="yes"/>
    </contour>
  </outline>
</glyph>
<glyph name="dotlessj" format="1">
  <advance width="172"/>
  <unicode hex="0237"/>
  <outline>
    <contour>
      <point x="3" y="-106"/>
      <point x="-27" y="-140"/>
      <point x="-72" y="-160" type="curve"/>
      <point x="-53" y="-209" type="line"/>
      <point x="30" y="-185"/>
      <point x="57" y="-148"/>
      <point x="77" y="-52" type="curve" smooth="yes"/>
      <point x="161" y="384" type="line"/>
      <point x="98" y="384" type="line"/>
      <point x="13" y="-53" type="line"/>
      <point x="12" y="-60" type="line" smooth="yes"/>
    </contour>
    <contour>
      <point x="129" y="384" type="move" name="top"/>
    </contour>
  </outline>
</glyph>
<glyph name="dotaccent" format="1">
  <advance width="85"/>
  <unicode hex="02D9"/>
  <outline>
    <contour>
      <point x="51" y="466"/>
      <point x="71" y="482"/>
      <point x="75" y="503" type="curve" smooth="yes"/>
      <point x="80" y="529"/>
      <point x="63" y="550"/>
      <point x="38" y="550" type="curve" smooth="yes"/>
      <point x="17" y="550"/>
      <point x="-3" y="534"/>
      <point x="-7" y="513" type="curve" smooth="yes"/>
      <point x="-12" y="487"/>
      <point x="5" y="466"/>
      <point x="30" y="466" type="curve" smooth="yes"/>
    </contour>
    <contour>
      <point x="11" y="384" type="move" name="_top"/>
    </contour>
  </outline>
</glyph>
<glyph name="anusvaradeva" format="1">
  <advance width="0"/>
  <unicode hex="0902"/>
  <outline>
    <contour>
      <point x="-64" y="519"/>
      <point x="-49" y="533"/>
      <point x="-46" y="550" type="curve" smooth="yes"/>
      <point x="-41" y="574"/>
      <point x="-54" y="592"/>
      <point x="-79" y="592" type="curve" smooth="yes"/>
      <point x="-99" y="592"/>
      <point x="-114" y="578"/>
      <point x="-117" y="560" type="curve" smooth="yes"/>
      <point x="-122" y="537"/>
      <point x="-109" y="519"/>
      <point x="-85" y="519" type="curve" smooth="yes"/>
    </contour>
    <contour>
      <point x="-103" y="447" type="move" name="_top"/>
    </contour>
  </outline>
</glyph>
<glyph name="rvocalicdeva" format="1">
  <advance width="631"/>
  <unicode hex="090B"/>
  <outline>
    <contour>
      <point x="696" y="408" type="line"/>
      <point x="706" y="456" type="line"/>
      <point x="28" y="456" type="line"/>
      <point x="18" y="408" type="line"/>
      <point x="352" y="408" type="line"/>
      <point x="324" y="266" type="line"/>
      <point x="289" y="310"/>
      <point x="254" y="337"/>
      <point x="204" y="337" type="curve" smooth="yes"/>
      <point x="135" y="337"/>
      <point x="86" y="298"/>
      <point x="29" y="248" type="curve"/>
      <point x="64" y="207" type="line"/>
      <point x="104" y="242"/>
      <point x="151" y="285"/>
      <point x="199" y="283" type="curve"/>
      <point x="235" y="283"/>
      <point x="264" y="258"/>
      <point x="287" y="223" type="curve"/>
      <point x="54" y="52" type="line"/>
      <point x="55" y="52"/>
      <point x="82" y="14"/>
      <point x="82" y="14" type="curve"/>
      <point x="308" y="176" type="line"/>
      <point x="273" y="0" type="line"/>
      <point x="329" y="0" type="line"/>
      <point x="367" y="187" type="line"/>
      <point x="384" y="178"/>
      <point x="400" y="172"/>
      <point x="431" y="172" type="curve" smooth="yes"/>
      <point x="462" y="172"/>
      <point x="491" y="182"/>
      <point x="520" y="203" type="curve"/>
      <point x="537" y="148" type="line"/>
      <point x="477" y="141"/>
      <point x="442" y="107"/>
      <point x="434" y="68" type="curve" smooth="yes"/>
      <point x="425" y="20"/>
      <point x="450" y="-21"/>
      <point x="516" y="-21" type="curve" smooth="yes"/>
      <point x="539" y="-21"/>
      <point x="561" y="-17"/>
      <point x="582" y="-7" type="curve"/>
      <point x="567" y="35" type="line"/>
      <point x="557" y="30"/>
      <point x="538" y="23"/>
      <point x="517" y="23" type="curve" smooth="yes"/>
      <point x="492" y="23"/>
      <point x="475" y="33"/>
      <point x="481" y="59" type="curve" smooth="yes"/>
      <point x="486" y="86"/>
      <point x="513" y="104"/>
      <point x="552" y="104" type="curve" smooth="yes"/>
      <point x="570" y="104" type="line"/>
      <point x="592" y="148" type="line"/>
      <point x="591" y="149" type="line"/>
      <point x="555" y="246" type="line"/>
      <point x="563" y="256"/>
      <point x="566" y="266"/>
      <point x="568" y="275" type="curve" smooth="yes"/>
      <point x="576" y="316"/>
      <point x="553" y="342"/>
      <point x="527" y="342" type="curve" smooth="yes"/>
      <point x="504" y="342"/>
      <point x="483" y="331"/>
      <point x="468" y="316" type="curve"/>
      <point x="500" y="250" type="line"/>
      <point x="483" y="234"/>
      <point x="460" y="221"/>
      <point x="431" y="221" type="curve" smooth="yes"/>
      <point x="406" y="221"/>
      <point x="389" y="229"/>
      <point x="373" y="238" type="curve"/>
      <point x="408" y="408" type="line"/>
    </contour>
    <contour>
      <point x="388" y="447" type="move" name="top"/>
    </contour>
  </outline>
</glyph>
<glyph name="edeva" format="1">
  <advance width="409"/>
  <unicode hex="090F"/>
  <outline>
    <contour>
      <point x="253" y="123" type="line"/>
      <point x="322" y="149"/>
      <point x="341" y="186"/>
      <point x="353" y="246" type="curve" smooth="yes"/>
      <point x="384" y="408" type="line"/>
      <point x="474" y="408" type="line"/>
      <point x="484" y="456" type="line"/>
      <point x="28" y="456" type="line"/>
      <point x="18" y="408" type="line"/>
      <point x="93" y="408" type="line"/>
      <point x="49" y="172" type="line"/>
      <point x="270" y="-44" type="line"/>
      <point x="310" y="-5" type="line"/>
      <point x="105" y="194" type="line"/>
      <point x="147" y="408" type="line"/>
      <point x="332" y="408" type="line"/>
      <point x="304" y="261" type="line"/>
      <point x="293" y="214"/>
      <point x="290" y="191"/>
      <point x="232" y="171" type="curve"/>
    </contour>
    <contour>
      <point x="250" y="447" type="move" name="top"/>
    </contour>
  </outline>
</glyph>
<glyph name="ocandradeva" format="1">
  <advance width="802"/>
  <unicode hex="0911"/>
  <outline>
    <contour>
      <point x="866" y="456" type="line"/>
      <point x="411" y="456" type="line"/>
      <point x="401" y="408" type="line"/>
      <point x="495" y="408" type="line"/>
      <point x="463" y="251" type="line"/>
      <point x="439" y="239"/>
      <point x="415" y="230"/>
      <point x="375" y="230" type="curve" smooth="yes"/>
      <point x="350" y="230"/>
      <point x="320" y="237"/>
      <point x="287" y="252" type="curve"/>
      <point x="337" y="275"/>
      <point x="362" y="309"/>
      <point x="370" y="348" type="curve" smooth="yes"/>
      <point x="382" y="411"/>
      <point x="340" y="457"/>
      <point x="266" y="457" type="curve" smooth="yes"/>
      <point x="206" y="457"/>
      <point x="162" y="425"/>
      <point x="139" y="409" type="curve"/>
      <point x="164" y="364" type="line"/>
      <point x="189" y="383"/>
      <point x="217" y="406"/>
      <point x="263" y="406" type="curve" smooth="yes"/>
      <point x="301" y="406"/>
      <point x="326" y="388"/>
      <point x="319" y="352" type="curve" smooth="yes"/>
      <point x="314" y="328"/>
      <point x="296" y="274"/>
      <point x="193" y="275" type="curve" smooth="yes"/>
      <point x="172" y="275" type="line"/>
      <point x="162" y="226" type="line"/>
      <point x="183" y="226" type="line"/>
      <point x="292" y="230"/>
      <point x="302" y="189"/>
      <point x="295" y="152" type="curve" smooth="yes"/>
      <point x="285" y="102"/>
      <point x="241" y="77"/>
      <point x="191" y="77" type="curve" smooth="yes"/>
      <point x="120" y="77"/>
      <point x="88" y="125"/>
      <point x="60" y="205" type="curve"/>
      <point x="14" y="182" type="line"/>
      <point x="50" y="83"/>
      <point x="93" y="25"/>
      <point x="190" y="25" type="curve" smooth="yes"/>
      <point x="264" y="25"/>
      <point x="331" y="72"/>
      <point x="343" y="132" type="curve" smooth="yes"/>
      <point x="347" y="154"/>
      <point x="347" y="170"/>
      <point x="344" y="184" type="curve"/>
      <point x="359" y="183"/>
      <point x="372" y="182"/>
      <point x="387" y="182" type="curve" smooth="yes"/>
      <point x="413" y="182"/>
      <point x="437" y="187"/>
      <point x="455" y="192" type="curve"/>
      <point x="416" y="0" type="line"/>
      <point x="470" y="0" type="line"/>
      <point x="549" y="408" type="line"/>
      <point x="704" y="408" type="line"/>
      <point x="625" y="0" type="line"/>
      <point x="680" y="0" type="line"/>
      <point x="759" y="408" type="line"/>
      <point x="856" y="408" type="line"/>
    </contour>
    <contour>
      <point x="827" y="509"/>
      <point x="879" y="548"/>
      <point x="906" y="606" type="curve"/>
      <point x="866" y="629" type="line"/>
      <point x="840" y="584"/>
      <point x="811" y="557"/>
      <point x="758" y="557" type="curve" smooth="yes"/>
      <point x="710" y="557"/>
      <point x="693" y="580"/>
      <point x="685" y="625" type="curve"/>
      <point x="639" y="610" type="line"/>
      <point x="645" y="552"/>
      <point x="684" y="509"/>
      <point x="757" y="509" type="curve" smooth="yes"/>
    </contour>
    <contour>
      <point x="741" y="447" type="move" name="top"/>
    </contour>
  </outline>
</glyph>
<glyph name="audeva" format="1">
  <advance width="792"/>
  <unicode hex="0914"/>
  <outline>
    <contour>
      <point x="867" y="456" type="line"/>
      <point x="784" y="456" type="line"/>
      <point x="752" y="599" type="line" smooth="yes"/>
      <point x="743" y="637"/>
      <point x="732" y="678"/>
      <point x="679" y="678" type="curve" smooth="yes"/>
      <point x="656" y="678"/>
      <point x="627" y="668"/>
      <point x="627" y="668" type="curve"/>
      <point x="629" y="620" type="line"/>
      <point x="629" y="620"/>
      <point x="655" y="627"/>
      <point x="672" y="627" type="curve" smooth="yes"/>
      <point x="699" y="627"/>
      <point x="705" y="596"/>
      <point x="714" y="568" type="curve" smooth="yes"/>
      <point x="739" y="469" type="line"/>
      <point x="668" y="539" type="line"/>
      <point x="633" y="571"/>
      <point x="619" y="595"/>
      <point x="580" y="595" type="curve" smooth="yes"/>
      <point x="560" y="595"/>
      <point x="523" y="580"/>
      <point x="523" y="580" type="curve"/>
      <point x="528" y="534" type="line"/>
      <point x="528" y="534"/>
      <point x="559" y="543"/>
      <point x="576" y="543" type="curve" smooth="yes"/>
      <point x="595" y="543"/>
      <point x="613" y="525"/>
      <point x="644" y="499" type="curve" smooth="yes"/>
      <point x="695" y="456" type="line"/>
      <point x="411" y="456" type="line"/>
      <point x="401" y="408" type="line"/>
      <point x="495" y="408" type="line"/>
      <point x="463" y="251" type="line"/>
      <point x="439" y="240"/>
      <point x="415" y="230"/>
      <point x="375" y="230" type="curve" smooth="yes"/>
      <point x="350" y="230"/>
      <point x="320" y="237"/>
      <point x="287" y="252" type="curve"/>
      <point x="337" y="275"/>
      <point x="362" y="309"/>
      <point x="370" y="348" type="curve" smooth="yes"/>
      <point x="382" y="411"/>
      <point x="340" y="457"/>
      <point x="266" y="457" type="curve" smooth="yes"/>
      <point x="206" y="457"/>
      <point x="162" y="425"/>
      <point x="139" y="409" type="curve"/>
      <point x="164" y="364" type="line"/>
      <point x="189" y="383"/>
      <point x="217" y="406"/>
      <point x="263" y="406" type="curve" smooth="yes"/>
      <point x="301" y="406"/>
      <point x="326" y="388"/>
      <point x="319" y="352" type="curve" smooth="yes"/>
      <point x="314" y="328"/>
      <point x="296" y="274"/>
      <point x="193" y="275" type="curve" smooth="yes"/>
      <point x="172" y="275" type="line"/>
      <point x="162" y="226" type="line"/>
      <point x="183" y="226" type="line"/>
      <point x="292" y="230"/>
      <point x="302" y="189"/>
      <point x="295" y="152" type="curve" smooth="yes"/>
      <point x="285" y="102"/>
      <point x="241" y="77"/>
      <point x="191" y="77" type="curve" smooth="yes"/>
      <point x="120" y="77"/>
      <point x="88" y="125"/>
      <point x="60" y="205" type="curve"/>
      <point x="14" y="182" type="line"/>
      <point x="50" y="83"/>
      <point x="93" y="25"/>
      <point x="190" y="25" type="curve" smooth="yes"/>
      <point x="264" y="25"/>
      <point x="331" y="72"/>
      <point x="343" y="132" type="curve" smooth="yes"/>
      <point x="347" y="154"/>
      <point x="347" y="170"/>
      <point x="345" y="184" type="curve"/>
      <point x="359" y="183"/>
      <point x="373" y="182"/>
      <point x="387" y="182" type="curve" smooth="yes"/>
      <point x="413" y="182"/>
      <point x="437" y="187"/>
      <point x="456" y="193" type="curve"/>
      <point x="416" y="0" type="line"/>
      <point x="470" y="0" type="line"/>
      <point x="549" y="408" type="line"/>
      <point x="705" y="408" type="line"/>
      <point x="626" y="0" type="line"/>
      <point x="681" y="0" type="line"/>
      <point x="760" y="408" type="line"/>
      <point x="857" y="408" type="line"/>
    </contour>
    <contour>
      <point x="741" y="447" type="move" name="top"/>
    </contour>
  </outline>
</glyph>
<glyph name="nyadeva" format="1">
  <advance width="528"/>
  <unicode hex="091E"/>
  <outline>
    <contour>
      <point x="603" y="456" type="line"/>
      <point x="28" y="456" type="line"/>
      <point x="18" y="408" type="line"/>
      <point x="439" y="408" type="line"/>
      <point x="400" y="215" type="line"/>
      <point x="388" y="211"/>
      <point x="375" y="208"/>
      <point x="359" y="208" type="curve" smooth="yes"/>
      <point x="342" y="208"/>
      <point x="332" y="209"/>
      <point x="321" y="210" type="curve"/>
      <point x="323" y="266"/>
      <point x="290" y="310"/>
      <point x="224" y="310" type="curve" smooth="yes"/>
      <point x="189" y="310"/>
      <point x="160" y="300"/>
      <point x="134" y="285" type="curve"/>
      <point x="153" y="235" type="line"/>
      <point x="152" y="235"/>
      <point x="186" y="257"/>
      <point x="217" y="257" type="curve" smooth="yes"/>
      <point x="267" y="257"/>
      <point x="275" y="228"/>
      <point x="269" y="195" type="curve" smooth="yes"/>
      <point x="259" y="146"/>
      <point x="222" y="116"/>
      <point x="177" y="116" type="curve" smooth="yes"/>
      <point x="117" y="116"/>
      <point x="89" y="172"/>
      <point x="68" y="273" type="curve"/>
      <point x="19" y="258" type="line"/>
      <point x="41" y="137"/>
      <point x="85" y="63"/>
      <point x="176" y="63" type="curve" smooth="yes"/>
      <point x="231" y="63"/>
      <point x="288" y="93"/>
      <point x="315" y="160" type="curve"/>
      <point x="328" y="160"/>
      <point x="340" y="158"/>
      <point x="357" y="158" type="curve" smooth="yes"/>
      <point x="368" y="158"/>
      <point x="381" y="159"/>
      <point x="394" y="163" type="curve"/>
      <point x="360" y="0" type="line"/>
      <point x="416" y="0" type="line"/>
      <point x="495" y="408" type="line"/>
      <point x="593" y="408" type="line"/>
    </contour>
    <contour>
      <point x="475" y="447" type="move" name="top"/>
    </contour>
    <contour>
      <point x="389" y="5" type="move" name="bottom"/>
    </contour>
  </outline>
</glyph>
<glyph name="nnnadeva" format="1">
  <advance width="410"/>
  <unicode hex="0929"/>
  <outline>
    <contour>
      <point x="485" y="456" type="line"/>
      <point x="28" y="456" type="line"/>
      <point x="18" y="408" type="line"/>
      <point x="321" y="408" type="line"/>
      <point x="291" y="251" type="line"/>
      <point x="46" y="251" type="line"/>
      <point x="40" y="214" type="line"/>
      <point x="84" y="112" type="line"/>
      <point x="123" y="112" type="line"/>
      <point x="141" y="203" type="line"/>
      <point x="282" y="203" type="line"/>
      <point x="242" y="0" type="line"/>
      <point x="298" y="0" type="line"/>
      <point x="377" y="408" type="line"/>
      <point x="475" y="408" type="line"/>
    </contour>
    <contour>
      <point x="133" y="-6"/>
      <point x="147" y="6"/>
      <point x="151" y="23" type="curve" smooth="yes"/>
      <point x="155" y="47"/>
      <point x="142" y="63"/>
      <point x="119" y="63" type="curve" smooth="yes"/>
      <point x="101" y="63"/>
      <point x="87" y="51"/>
      <point x="83" y="33" type="curve" smooth="yes"/>
      <point x="79" y="10"/>
      <point x="92" y="-6"/>
      <point x="114" y="-6" type="curve" smooth="yes"/>
    </contour>
    <contour>
      <point x="357" y="447" type="move" name="top"/>
    </contour>
    <contour>
      <point x="271" y="5" type="move" name="bottom"/>
    </contour>
  </outline>
</glyph>
<glyph name="padeva" format="1">
  <advance width="438"/>
  <unicode hex="092A"/>
  <outline>
    <contour>
      <point x="513" y="456" type="line"/>
      <point x="28" y="456" type="line"/>
      <point x="18" y="408" type="line"/>
      <point x="100" y="408" type="line"/>
      <point x="69" y="246" type="line" smooth="yes"/>
      <point x="53" y="166"/>
      <point x="92" y="103"/>
      <point x="194" y="103" type="curve" smooth="yes"/>
      <point x="227" y="103"/>
      <point x="267" y="112"/>
      <point x="295" y="120" type="curve"/>
      <point x="270" y="0" type="line"/>
      <point x="326" y="0" type="line"/>
      <point x="405" y="408" type="line"/>
      <point x="503" y="408" type="line"/>
    </contour>
    <contour>
      <point x="302" y="174" type="line"/>
      <point x="274" y="165"/>
      <point x="235" y="153"/>
      <point x="194" y="153" type="curve" smooth="yes"/>
      <point x="142" y="153"/>
      <point x="113" y="186"/>
      <point x="124" y="242" type="curve" smooth="yes"/>
      <point x="156" y="408" type="line"/>
      <point x="349" y="408" type="line"/>
    </contour>
    <contour>
      <point x="385" y="447" type="move" name="top"/>
    </contour>
    <contour>
      <point x="299" y="5" type="move" name="bottom"/>
    </contour>
  </outline>
</glyph>
<glyph name="bhadeva" format="1">
  <advance width="485"/>
  <unicode hex="092D"/>
  <outline>
    <contour>
      <point x="560" y="456" type="line"/>
      <point x="310" y="456" type="line"/>
      <point x="301" y="408" type="line"/>
      <point x="397" y="408" type="line"/>
      <point x="356" y="199" type="line"/>
      <point x="193" y="199" type="line"/>
      <point x="216" y="318" type="line" smooth="yes"/>
      <point x="234" y="410"/>
      <point x="218" y="466"/>
      <point x="145" y="466" type="curve" smooth="yes"/>
      <point x="102" y="466"/>
      <point x="57" y="436"/>
      <point x="47" y="384" type="curve" smooth="yes"/>
      <point x="39" y="345"/>
      <point x="58" y="307"/>
      <point x="102" y="281" type="curve"/>
      <point x="134" y="320" type="line"/>
      <point x="111" y="334"/>
      <point x="93" y="349"/>
      <point x="98" y="374" type="curve" smooth="yes"/>
      <point x="103" y="397"/>
      <point x="122" y="413"/>
      <point x="143" y="413" type="curve" smooth="yes"/>
      <point x="187" y="413"/>
      <point x="166" y="341"/>
      <point x="162" y="322" type="curve" smooth="yes"/>
      <point x="138" y="199" type="line"/>
      <point x="74" y="199" type="line"/>
      <point x="69" y="166" type="line"/>
      <point x="131" y="70" type="line"/>
      <point x="168" y="70" type="line"/>
      <point x="184" y="151" type="line"/>
      <point x="347" y="151" type="line"/>
      <point x="317" y="0" type="line"/>
      <point x="373" y="0" type="line"/>
      <point x="453" y="408" type="line"/>
      <point x="551" y="408" type="line"/>
    </contour>
    <contour>
      <point x="432" y="447" type="move" name="top"/>
    </contour>
    <contour>
      <point x="346" y="5" type="move" name="bottom"/>
    </contour>
  </outline>
</glyph>
<glyph name="rradeva" format="1">
  <advance width="275"/>
  <unicode hex="0931"/>
  <outline>
    <contour>
      <point x="350" y="456" type="line"/>
      <point x="28" y="456" type="line"/>
      <point x="18" y="408" type="line"/>
      <point x="162" y="410" type="line"/>
      <point x="177" y="392"/>
      <point x="191" y="362"/>
      <point x="182" y="311" type="curve" smooth="yes"/>
      <point x="169" y="248"/>
      <point x="117" y="222"/>
      <point x="82" y="213" type="curve"/>
      <point x="65" y="244" type="line"/>
      <point x="20" y="214" type="line"/>
      <point x="20" y="214"/>
      <point x="143" y="-12"/>
      <point x="143" y="-12" type="curve"/>
      <point x="198" y="19" type="line"/>
      <point x="112" y="167" type="line"/>
      <point x="161" y="184"/>
      <point x="218" y="222"/>
      <point x="233" y="299" type="curve" smooth="yes"/>
      <point x="243" y="351"/>
      <point x="234" y="384"/>
      <point x="221" y="406" type="curve"/>
      <point x="340" y="408" type="line"/>
    </contour>
    <contour>
      <point x="23" y="-5"/>
      <point x="37" y="7"/>
      <point x="41" y="24" type="curve" smooth="yes"/>
      <point x="45" y="48"/>
      <point x="33" y="64"/>
      <point x="10" y="64" type="curve" smooth="yes"/>
      <point x="-8" y="64"/>
      <point x="-23" y="52"/>
      <point x="-26" y="34" type="curve" smooth="yes"/>
      <point x="-31" y="11"/>
      <point x="-18" y="-5"/>
      <point x="4" y="-5" type="curve" smooth="yes"/>
    </contour>
    <contour>
      <point x="173" y="447" type="move" name="top"/>
    </contour>
    <contour>
      <point x="121" y="-40" type="move" name="bottom"/>
    </contour>
  </outline>
</glyph>
<glyph name="uni0932" format="1">
  <advance width="539"/>
  <unicode hex="0932"/>
  <outline>
    <contour>
      <point x="614" y="456" type="line"/>
      <point x="28" y="456" type="line"/>
      <point x="18" y="408" type="line"/>
      <point x="450" y="408" type="line"/>
      <point x="428" y="301" type="line"/>
      <point x="414" y="306"/>
      <point x="399" y="308"/>
      <point x="384" y="308" type="curve" smooth="yes"/>
      <point x="349" y="308"/>
      <point x="312" y="297"/>
      <point x="280" y="266" type="curve"/>
      <point x="264" y="289"/>
      <point x="236" y="310"/>
      <point x="196" y="310" type="curve" smooth="yes"/>
      <point x="115" y="310"/>
      <point x="57" y="255"/>
      <point x="41" y="177" type="curve" smooth="yes"/>
      <point x="22" y="76"/>
      <point x="96" y="-11"/>
      <point x="96" y="-11" type="curve"/>
      <point x="154" y="9" type="line"/>
      <point x="136" y="34"/>
      <point x="84" y="100"/>
      <point x="97" y="167" type="curve" smooth="yes"/>
      <point x="107" y="219"/>
      <point x="144" y="256"/>
      <point x="193" y="256" type="curve" smooth="yes"/>
      <point x="222" y="256"/>
      <point x="238" y="235"/>
      <point x="246" y="216" type="curve"/>
      <point x="238" y="200"/>
      <point x="234" y="184"/>
      <point x="231" y="169" type="curve" smooth="yes"/>
      <point x="228" y="156"/>
      <point x="225" y="130"/>
      <point x="225" y="120" type="curve"/>
      <point x="276" y="108" type="line"/>
      <point x="277" y="118"/>
      <point x="278" y="138"/>
      <point x="282" y="157" type="curve" smooth="yes"/>
      <point x="293" y="215"/>
      <point x="328" y="256"/>
      <point x="386" y="255" type="curve" smooth="yes"/>
      <point x="398" y="255"/>
      <point x="410" y="253"/>
      <point x="421" y="248" type="curve"/>
      <point x="371" y="0" type="line"/>
      <point x="427" y="0" type="line"/>
      <point x="506" y="408" type="line"/>
      <point x="604" y="408" type="line"/>
    </contour>
    <contour>
      <point x="486" y="447" type="move" name="top"/>
    </contour>
    <contour>
      <point x="400" y="5" type="move" name="bottom"/>
    </contour>
  </outline>
</glyph>
<glyph name="lladeva" format="1">
  <advance width="570"/>
  <unicode hex="0933"/>
  <outline>
    <contour>
      <point x="635" y="408" type="line"/>
      <point x="645" y="456" type="line"/>
      <point x="28" y="456" type="line"/>
      <point x="18" y="408" type="line"/>
      <point x="428" y="408" type="line"/>
      <point x="405" y="299" type="line"/>
      <point x="364" y="293"/>
      <point x="329" y="270"/>
      <point x="284" y="213" type="curve"/>
      <point x="270" y="252"/>
      <point x="244" y="302"/>
      <point x="182" y="302" type="curve" smooth="yes"/>
      <point x="101" y="302"/>
      <point x="53" y="241"/>
      <point x="40" y="172" type="curve" smooth="yes"/>
      <point x="25" y="97"/>
      <point x="53" y="33"/>
      <point x="133" y="33" type="curve" smooth="yes"/>
      <point x="188" y="33"/>
      <point x="225" y="54"/>
      <point x="276" y="121" type="curve"/>
      <point x="290" y="82"/>
      <point x="317" y="31"/>
      <point x="379" y="31" type="curve" smooth="yes"/>
      <point x="455" y="31"/>
      <point x="507" y="93"/>
      <point x="521" y="162" type="curve" smooth="yes"/>
      <point x="533" y="226"/>
      <point x="512" y="281"/>
      <point x="458" y="296" type="curve"/>
      <point x="481" y="408" type="line"/>
    </contour>
    <contour>
      <point x="95" y="82"/>
      <point x="84" y="121"/>
      <point x="92" y="162" type="curve" smooth="yes"/>
      <point x="101" y="211"/>
      <point x="134" y="250"/>
      <point x="179" y="250" type="curve" smooth="yes"/>
      <point x="221" y="250"/>
      <point x="237" y="202"/>
      <point x="250" y="165" type="curve"/>
      <point x="220" y="121"/>
      <point x="183" y="82"/>
      <point x="134" y="82" type="curve" smooth="yes"/>
    </contour>
    <contour>
      <point x="460" y="123"/>
      <point x="428" y="81"/>
      <point x="382" y="81" type="curve" smooth="yes"/>
      <point x="342" y="81"/>
      <point x="321" y="133"/>
      <point x="310" y="167" type="curve"/>
      <point x="341" y="211"/>
      <point x="375" y="250"/>
      <point x="424" y="250" type="curve" smooth="yes"/>
      <point x="461" y="250"/>
      <point x="478" y="217"/>
      <point x="469" y="171" type="curve" smooth="yes"/>
    </contour>
    <contour>
      <point x="463" y="447" type="move" name="top"/>
    </contour>
    <contour>
      <point x="370" y="5" type="move" name="bottom"/>
    </contour>
  </outline>
</glyph>
<glyph name="nuktadeva" format="1">
  <advance width="0"/>
  <unicode hex="093C"/>
  <outline>
    <contour>
      <point x="-137" y="-104"/>
      <point x="-123" y="-92"/>
      <point x="-119" y="-75" type="curve" smooth="yes"/>
      <point x="-115" y="-51"/>
      <point x="-128" y="-35"/>
      <point x="-151" y="-35" type="curve" smooth="yes"/>
      <point x="-169" y="-35"/>
      <point x="-183" y="-47"/>
      <point x="-187" y="-65" type="curve" smooth="yes"/>
      <point x="-191" y="-88"/>
      <point x="-178" y="-104"/>
      <point x="-156" y="-104" type="curve" smooth="yes"/>
    </contour>
  </outline>
</glyph>
<glyph name="uvowelsigndeva" format="1">
  <advance width="0"/>
  <unicode hex="0941"/>
  <outline>
    <contour>
      <point x="-281" y="-55"/>
      <point x="-244" y="-40"/>
      <point x="-219" y="-40" type="curve" smooth="yes"/>
      <point x="-193" y="-40"/>
      <point x="-183" y="-55"/>
      <point x="-187" y="-79" type="curve" smooth="yes"/>
      <point x="-194" y="-116"/>
      <point x="-233" y="-134"/>
      <point x="-268" y="-134" type="curve" smooth="yes"/>
      <point x="-323" y="-134"/>
      <point x="-362" y="-90"/>
      <point x="-397" y="-49" type="curve"/>
      <point x="-435" y="-82" type="line"/>
      <point x="-405" y="-118"/>
      <point x="-355" y="-185"/>
      <point x="-267" y="-185" type="curve" smooth="yes"/>
      <point x="-205" y="-185"/>
      <point x="-148" y="-149"/>
      <point x="-136" y="-88" type="curve" smooth="yes"/>
      <point x="-126" y="-35"/>
      <point x="-153" y="13"/>
      <point x="-210" y="13" type="curve" smooth="yes"/>
      <point x="-243" y="13"/>
      <point x="-277" y="1"/>
      <point x="-291" y="-6" type="curve"/>
      <point x="-280" y="-55" type="line"/>
    </contour>
    <contour>
      <point x="-207" y="8" type="move" name="_bottom"/>
    </contour>
  </outline>
</glyph>
<glyph name="ecandravowelsigndeva" format="1">
  <advance width="297"/>
  <unicode hex="0945"/>
  <outline>
    <contour>
      <point x="215" y="509"/>
      <point x="267" y="548"/>
      <point x="294" y="606" type="curve"/>
      <point x="254" y="629" type="line"/>
      <point x="228" y="584"/>
      <point x="199" y="557"/>
      <point x="146" y="557" type="curve" smooth="yes"/>
      <point x="98" y="557"/>
      <point x="81" y="580"/>
      <point x="73" y="625" type="curve"/>
      <point x="27" y="610" type="line"/>
      <point x="33" y="552"/>
      <point x="72" y="509"/>
      <point x="145" y="509" type="curve" smooth="yes"/>
    </contour>
    <contour>
      <point x="129" y="447" type="move" name="_top"/>
    </contour>
  </outline>
</glyph>
<glyph name="uni0956" format="1">
  <advance width="290"/>
  <unicode hex="0956"/>
  <outline>
    <contour>
      <point x="71" y="-131"/>
      <point x="124" y="-108"/>
      <point x="153" y="-59" type="curve"/>
      <point x="116" y="-31" type="line"/>
      <point x="91" y="-66"/>
      <point x="61" y="-83"/>
      <point x="18" y="-83" type="curve" smooth="yes"/>
      <point x="-21" y="-83"/>
      <point x="-44" y="-70"/>
      <point x="-55" y="-35" type="curve"/>
      <point x="-98" y="-55" type="line"/>
      <point x="-87" y="-104"/>
      <point x="-41" y="-131"/>
      <point x="17" y="-131" type="curve" smooth="yes"/>
    </contour>
  </outline>
</glyph>
<glyph name="dddhadeva" format="1">
  <advance width="410"/>
  <unicode hex="095C"/>
  <outline>
    <contour>
      <point x="294" y="294"/>
      <point x="310" y="289"/>
      <point x="344" y="285" type="curve"/>
      <point x="355" y="292" type="line"/>
      <point x="376" y="408" type="line"/>
      <point x="475" y="408" type="line"/>
      <point x="485" y="456" type="line"/>
      <point x="28" y="456" type="line"/>
      <point x="18" y="408" type="line"/>
      <point x="320" y="408" type="line"/>
      <point x="306" y="343" type="line"/>
      <point x="285" y="345"/>
      <point x="273" y="346"/>
      <point x="238" y="346" type="curve" smooth="yes"/>
      <point x="163" y="346"/>
      <point x="110" y="324"/>
      <point x="98" y="264" type="curve" smooth="yes"/>
      <point x="79" y="164"/>
      <point x="182" y="161"/>
      <point x="223" y="164" type="curve" smooth="yes"/>
      <point x="282" y="171"/>
      <point x="306" y="155"/>
      <point x="300" y="121" type="curve" smooth="yes"/>
      <point x="291" y="75"/>
      <point x="243" y="52"/>
      <point x="197" y="52" type="curve" smooth="yes"/>
      <point x="140" y="52"/>
      <point x="96" y="79"/>
      <point x="58" y="126" type="curve"/>
      <point x="20" y="93" type="line"/>
      <point x="63" y="40"/>
      <point x="118" y="0"/>
      <point x="196" y="0" type="curve" smooth="yes"/>
      <point x="275" y="0"/>
      <point x="339" y="44"/>
      <point x="352" y="115" type="curve" smooth="yes"/>
      <point x="365" y="179"/>
      <point x="318" y="220"/>
      <point x="243" y="216" type="curve" smooth="yes"/>
      <point x="192" y="213"/>
      <point x="141" y="210"/>
      <point x="149" y="251" type="curve" smooth="yes"/>
      <point x="155" y="282"/>
      <point x="182" y="294"/>
      <point x="234" y="294" type="curve" smooth="yes"/>
    </contour>
    <contour>
      <point x="181" y="-111"/>
      <point x="195" y="-99"/>
      <point x="198" y="-82" type="curve" smooth="yes"/>
      <point x="203" y="-58"/>
      <point x="190" y="-42"/>
      <point x="167" y="-42" type="curve" smooth="yes"/>
      <point x="149" y="-42"/>
      <point x="135" y="-54"/>
      <point x="131" y="-72" type="curve" smooth="yes"/>
      <point x="127" y="-95"/>
      <point x="140" y="-111"/>
      <point x="162" y="-111" type="curve" smooth="yes"/>
    </contour>
    <contour>
      <point x="356" y="447" type="move" name="top"/>
    </contour>
    <contour>
      <point x="150" y="-147" type="move" name="bottom"/>
    </contour>
  </outline>
</glyph>
<glyph name="llvocalicdeva" format="1">
  <advance width="531"/>
  <unicode hex="0961"/>
  <outline>
    <contour>
      <point x="596" y="408" type="line"/>
      <point x="606" y="456" type="line"/>
      <point x="28" y="456" type="line"/>
      <point x="18" y="408" type="line"/>
      <point x="400" y="408" type="line"/>
      <point x="379" y="308" type="line"/>
      <point x="345" y="306"/>
      <point x="310" y="295"/>
      <point x="280" y="266" type="curve"/>
      <point x="264" y="289"/>
      <point x="236" y="310"/>
      <point x="196" y="310" type="curve" smooth="yes"/>
      <point x="115" y="310"/>
      <point x="57" y="255"/>
      <point x="41" y="177" type="curve" smooth="yes"/>
      <point x="22" y="76"/>
      <point x="96" y="-11"/>
      <point x="96" y="-11" type="curve"/>
      <point x="154" y="9" type="line"/>
      <point x="136" y="34"/>
      <point x="84" y="100"/>
      <point x="97" y="167" type="curve" smooth="yes"/>
      <point x="107" y="219"/>
      <point x="144" y="256"/>
      <point x="193" y="256" type="curve" smooth="yes"/>
      <point x="222" y="256"/>
      <point x="238" y="235"/>
      <point x="246" y="216" type="curve"/>
      <point x="238" y="200"/>
      <point x="234" y="184"/>
      <point x="231" y="169" type="curve" smooth="yes"/>
      <point x="228" y="156"/>
      <point x="225" y="130"/>
      <point x="225" y="120" type="curve"/>
      <point x="276" y="108" type="line"/>
      <point x="277" y="118"/>
      <point x="278" y="138"/>
      <point x="282" y="157" type="curve" smooth="yes"/>
      <point x="293" y="215"/>
      <point x="329" y="257"/>
      <point x="379" y="256" type="curve" smooth="yes"/>
      <point x="426" y="256"/>
      <point x="438" y="223"/>
      <point x="433" y="194" type="curve" smooth="yes"/>
      <point x="425" y="155"/>
      <point x="391" y="135"/>
      <point x="371" y="125" type="curve" smooth="yes"/>
      <point x="336" y="101"/>
      <point x="299" y="78"/>
      <point x="292" y="40" type="curve" smooth="yes"/>
      <point x="286" y="11"/>
      <point x="296" y="-18"/>
      <point x="324" y="-29" type="curve"/>
      <point x="288" y="-39"/>
      <point x="260" y="-65"/>
      <point x="254" y="-99" type="curve" smooth="yes"/>
      <point x="245" y="-143"/>
      <point x="266" y="-188"/>
      <point x="338" y="-188" type="curve" smooth="yes"/>
      <point x="365" y="-188"/>
      <point x="400" y="-180"/>
      <point x="430" y="-164" type="curve"/>
      <point x="410" y="-120" type="line"/>
      <point x="388" y="-132"/>
      <point x="367" y="-140"/>
      <point x="339" y="-140" type="curve" smooth="yes"/>
      <point x="311" y="-140"/>
      <point x="298" y="-128"/>
      <point x="303" y="-105" type="curve" smooth="yes"/>
      <point x="308" y="-75"/>
      <point x="338" y="-56"/>
      <point x="371" y="-55" type="curve" smooth="yes"/>
      <point x="412" y="-55" type="line"/>
      <point x="419" y="-10" type="line"/>
      <point x="340" y="-15"/>
      <point x="338" y="9"/>
      <point x="341" y="27" type="curve" smooth="yes"/>
      <point x="347" y="58"/>
      <point x="378" y="66"/>
      <point x="413" y="88" type="curve" smooth="yes"/>
      <point x="448" y="113"/>
      <point x="475" y="140"/>
      <point x="485" y="185" type="curve" smooth="yes"/>
      <point x="495" y="232"/>
      <point x="475" y="279"/>
      <point x="433" y="298" type="curve"/>
      <point x="456" y="408" type="line"/>
    </contour>
    <contour>
      <point x="436" y="447" type="move" name="top"/>
    </contour>
  </outline>
</glyph>
<glyph name="llvocalicvowelsigndeva" format="1">
  <advance width="440"/>
  <unicode hex="0963"/>
  <outline>
    <contour>
      <point x="-55" y="-20"/>
      <point x="-104" y="-62"/>
      <point x="-116" y="-124" type="curve" smooth="yes"/>
      <point x="-127" y="-183"/>
      <point x="-102" y="-234"/>
      <point x="-90" y="-262" type="curve"/>
      <point x="-41" y="-246" type="line"/>
      <point x="-54" y="-216"/>
      <point x="-71" y="-176"/>
      <point x="-63" y="-136" type="curve" smooth="yes"/>
      <point x="-55" y="-95"/>
      <point x="-33" y="-71"/>
      <point x="7" y="-71" type="curve" smooth="yes"/>
      <point x="29" y="-71"/>
      <point x="41" y="-81"/>
      <point x="51" y="-93" type="curve"/>
      <point x="40" y="-111"/>
      <point x="33" y="-131"/>
      <point x="29" y="-151" type="curve" smooth="yes"/>
      <point x="26" y="-164"/>
      <point x="25" y="-175"/>
      <point x="25" y="-185" type="curve"/>
      <point x="72" y="-197" type="line"/>
      <point x="73" y="-187"/>
      <point x="74" y="-177"/>
      <point x="76" y="-163" type="curve" smooth="yes"/>
      <point x="87" y="-108"/>
      <point x="117" y="-70"/>
      <point x="166" y="-70" type="curve" smooth="yes"/>
      <point x="203" y="-70"/>
      <point x="212" y="-90"/>
      <point x="207" y="-114" type="curve" smooth="yes"/>
      <point x="200" y="-150"/>
      <point x="174" y="-169"/>
      <point x="144" y="-192" type="curve" smooth="yes"/>
      <point x="113" y="-223"/>
      <point x="81" y="-246"/>
      <point x="74" y="-282" type="curve" smooth="yes"/>
      <point x="69" y="-309"/>
      <point x="74" y="-333"/>
      <point x="91" y="-346" type="curve"/>
      <point x="65" y="-362"/>
      <point x="45" y="-379"/>
      <point x="40" y="-409" type="curve" smooth="yes"/>
      <point x="30" y="-459"/>
      <point x="63" y="-499"/>
      <point x="128" y="-499" type="curve" smooth="yes"/>
      <point x="172" y="-499"/>
      <point x="198" y="-490"/>
      <point x="228" y="-475" type="curve"/>
      <point x="207" y="-431" type="line"/>
      <point x="186" y="-443"/>
      <point x="164" y="-451"/>
      <point x="136" y="-451" type="curve" smooth="yes"/>
      <point x="108" y="-451"/>
      <point x="82" y="-445"/>
      <point x="87" y="-415" type="curve" smooth="yes"/>
      <point x="93" y="-384"/>
      <point x="124" y="-371"/>
      <point x="154" y="-370" type="curve"/>
      <point x="193" y="-370" type="line"/>
      <point x="202" y="-323" type="line"/>
      <point x="149" y="-323" type="line"/>
      <point x="124" y="-323"/>
      <point x="118" y="-309"/>
      <point x="122" y="-290" type="curve" smooth="yes"/>
      <point x="127" y="-264"/>
      <point x="157" y="-244"/>
      <point x="190" y="-219" type="curve" smooth="yes"/>
      <point x="220" y="-191"/>
      <point x="245" y="-168"/>
      <point x="254" y="-122" type="curve" smooth="yes"/>
      <point x="262" y="-83"/>
      <point x="248" y="-20"/>
      <point x="167" y="-20" type="curve" smooth="yes"/>
      <point x="141" y="-20"/>
      <point x="112" y="-28"/>
      <point x="82" y="-54" type="curve"/>
      <point x="67" y="-37"/>
      <point x="44" y="-20"/>
      <point x="10" y="-20" type="curve" smooth="yes"/>
    </contour>
    <contour>
      <point x="96" y="5" type="move" name="_bottom"/>
    </contour>
  </outline>
</glyph>
<glyph name="twodeva" format="1">
  <advance width="359"/>
  <unicode hex="0968"/>
  <outline>
    <contour>
      <point x="290" y="403"/>
      <point x="232" y="457"/>
      <point x="150" y="457" type="curve" smooth="yes"/>
      <point x="92" y="457"/>
      <point x="41" y="435"/>
      <point x="2" y="408" type="curve"/>
      <point x="26" y="363" type="line"/>
      <point x="60" y="386"/>
      <point x="101" y="406"/>
      <point x="144" y="406" type="curve" smooth="yes"/>
      <point x="204" y="406"/>
      <point x="227" y="366"/>
      <point x="217" y="315" type="curve" smooth="yes"/>
      <point x="202" y="238"/>
      <point x="118" y="189"/>
      <point x="64" y="178" type="curve" smooth="yes"/>
      <point x="53" y="175"/>
      <point x="42" y="176"/>
      <point x="33" y="172" type="curve"/>
      <point x="94" y="130" type="line"/>
      <point x="180" y="162"/>
      <point x="256" y="227"/>
      <point x="272" y="306" type="curve" smooth="yes"/>
    </contour>
    <contour>
      <point x="-29" y="154"/>
      <point x="-3" y="125"/>
      <point x="47" y="130" type="curve"/>
      <point x="155" y="-8" type="line"/>
      <point x="154" y="-8"/>
      <point x="203" y="29"/>
      <point x="203" y="29" type="curve"/>
      <point x="87" y="161" type="line"/>
      <point x="24" y="232" type="line"/>
      <point x="-4" y="225"/>
      <point x="-19" y="207"/>
      <point x="-21" y="193" type="curve" smooth="yes"/>
    </contour>
  </outline>
</glyph>
<glyph name="uni0971" format="1">
  <advance width="221"/>
  <unicode hex="0971"/>
  <outline>
    <contour>
      <point x="181" y="396"/>
      <point x="194" y="417"/>
      <point x="194" y="437" type="curve" smooth="yes"/>
      <point x="194" y="456"/>
      <point x="181" y="469"/>
      <point x="159" y="469" type="curve" smooth="yes"/>
      <point x="131" y="469"/>
      <point x="121" y="446"/>
      <point x="121" y="428" type="curve" smooth="yes"/>
      <point x="121" y="410"/>
      <point x="133" y="396"/>
      <point x="153" y="396" type="curve" smooth="yes"/>
    </contour>
  </outline>
</glyph>
<glyph name="uni0977" format="1">
  <advance width="582"/>
  <unicode hex="0977"/>
  <outline>
    <contour>
      <point x="341" y="-131"/>
      <point x="394" y="-108"/>
      <point x="423" y="-59" type="curve"/>
      <point x="386" y="-31" type="line"/>
      <point x="361" y="-66"/>
      <point x="331" y="-83"/>
      <point x="288" y="-83" type="curve" smooth="yes"/>
      <point x="249" y="-83"/>
      <point x="227" y="-70"/>
      <point x="215" y="-35" type="curve"/>
      <point x="172" y="-55" type="line"/>
      <point x="183" y="-104"/>
      <point x="229" y="-131"/>
      <point x="287" y="-131" type="curve" smooth="yes"/>
    </contour>
    <contour>
      <point x="321" y="-231"/>
      <point x="375" y="-208"/>
      <point x="403" y="-159" type="curve"/>
      <point x="367" y="-131" type="line"/>
      <point x="342" y="-166"/>
      <point x="312" y="-183"/>
      <point x="269" y="-183" type="curve" smooth="yes"/>
      <point x="230" y="-183"/>
      <point x="207" y="-170"/>
      <point x="196" y="-135" type="curve"/>
      <point x="153" y="-155" type="line"/>
      <point x="163" y="-204"/>
      <point x="209" y="-231"/>
      <point x="267" y="-231" type="curve" smooth="yes"/>
    </contour>
    <contour>
      <point x="657" y="456" type="line"/>
      <point x="411" y="456" type="line"/>
      <point x="401" y="408" type="line"/>
      <point x="495" y="408" type="line"/>
      <point x="463" y="251" type="line"/>
      <point x="439" y="240"/>
      <point x="415" y="230"/>
      <point x="375" y="230" type="curve" smooth="yes"/>
      <point x="350" y="230"/>
      <point x="320" y="237"/>
      <point x="287" y="252" type="curve"/>
      <point x="337" y="275"/>
      <point x="362" y="309"/>
      <point x="370" y="348" type="curve" smooth="yes"/>
      <point x="382" y="411"/>
      <point x="340" y="457"/>
      <point x="266" y="457" type="curve" smooth="yes"/>
      <point x="206" y="457"/>
      <point x="162" y="425"/>
      <point x="139" y="409" type="curve"/>
      <point x="164" y="364" type="line"/>
      <point x="189" y="383"/>
      <point x="217" y="406"/>
      <point x="263" y="406" type="curve" smooth="yes"/>
      <point x="301" y="406"/>
      <point x="326" y="388"/>
      <point x="319" y="352" type="curve" smooth="yes"/>
      <point x="314" y="328"/>
      <point x="296" y="274"/>
      <point x="193" y="275" type="curve" smooth="yes"/>
      <point x="172" y="275" type="line"/>
      <point x="162" y="226" type="line"/>
      <point x="183" y="226" type="line"/>
      <point x="292" y="230"/>
      <point x="302" y="189"/>
      <point x="295" y="152" type="curve" smooth="yes"/>
      <point x="285" y="102"/>
      <point x="241" y="77"/>
      <point x="191" y="77" type="curve" smooth="yes"/>
      <point x="120" y="77"/>
      <point x="88" y="125"/>
      <point x="60" y="205" type="curve"/>
      <point x="14" y="182" type="line"/>
      <point x="50" y="83"/>
      <point x="93" y="25"/>
      <point x="190" y="25" type="curve" smooth="yes"/>
      <point x="264" y="25"/>
      <point x="331" y="72"/>
      <point x="343" y="132" type="curve" smooth="yes"/>
      <point x="347" y="154"/>
      <point x="347" y="170"/>
      <point x="345" y="184" type="curve"/>
      <point x="359" y="183"/>
      <point x="373" y="182"/>
      <point x="387" y="182" type="curve" smooth="yes"/>
      <point x="413" y="182"/>
      <point x="437" y="187"/>
      <point x="456" y="193" type="curve"/>
      <point x="416" y="0" type="line"/>
      <point x="470" y="0" type="line"/>
      <point x="549" y="408" type="line"/>
      <point x="647" y="408" type="line"/>
    </contour>
    <contour>
      <point x="530" y="447" type="move" name="top"/>
    </contour>
  </outline>
</glyph>
<glyph name="quoteright" format="1">
  <advance width="192"/>
  <unicode hex="2019"/>
  <outline>
    <contour>
      <point x="139" y="450"/>
      <point x="112" y="416"/>
      <point x="101" y="402" type="curve"/>
      <point x="124" y="382" type="line"/>
      <point x="164" y="411"/>
      <point x="203" y="451"/>
      <point x="210" y="488" type="curve" smooth="yes"/>
      <point x="216" y="520"/>
      <point x="200" y="541"/>
      <point x="172" y="541" type="curve" smooth="yes"/>
      <point x="148" y="541"/>
      <point x="130" y="524"/>
      <point x="126" y="506" type="curve" smooth="yes"/>
      <point x="121" y="480"/>
      <point x="131" y="463"/>
      <point x="155" y="458" type="curve"/>
      <point x="151" y="471" type="line"/>
    </contour>
  </outline>
</glyph>
<glyph name="ellipsis" format="1">
  <advance width="481"/>
  <unicode hex="2026"/>
  <outline>
    <contour>
      <point x="79" y="-3"/>
      <point x="96" y="14"/>
      <point x="100" y="35" type="curve" smooth="yes"/>
      <point x="105" y="62"/>
      <point x="91" y="83"/>
      <point x="62" y="83" type="curve" smooth="yes"/>
      <point x="37" y="83"/>
      <point x="20" y="66"/>
      <point x="16" y="45" type="curve" smooth="yes"/>
      <point x="11" y="18"/>
      <point x="25" y="-3"/>
      <point x="54" y="-3" type="curve" smooth="yes"/>
    </contour>
    <contour>
      <point x="231" y="-3"/>
      <point x="248" y="14"/>
      <point x="252" y="35" type="curve" smooth="yes"/>
      <point x="257" y="62"/>
      <point x="243" y="83"/>
      <point x="214" y="83" type="curve" smooth="yes"/>
      <point x="189" y="83"/>
      <point x="172" y="66"/>
      <point x="168" y="45" type="curve" smooth="yes"/>
      <point x="163" y="18"/>
      <point x="177" y="-3"/>
      <point x="206" y="-3" type="curve" smooth="yes"/>
    </contour>
    <contour>
      <point x="384" y="-3"/>
      <point x="401" y="14"/>
      <point x="405" y="35" type="curve" smooth="yes"/>
      <point x="410" y="62"/>
      <point x="396" y="83"/>
      <point x="367" y="83" type="curve" smooth="yes"/>
      <point x="342" y="83"/>
      <point x="325" y="66"/>
      <point x="321" y="45" type="curve" smooth="yes"/>
      <point x="316" y="18"/>
      <point x="330" y="-3"/>
      <point x="359" y="-3" type="curve" smooth="yes"/>
    </contour>
  </outline>
</glyph>
<glyph name="Euro" format="1">
  <advance width="513"/>
  <unicode hex="20AC"/>
  <outline>
    <contour>
      <point x="464" y="386" type="line"/>
      <point x="428" y="400"/>
      <point x="407" y="408"/>
      <point x="353" y="408" type="curve" smooth="yes"/>
      <point x="278" y="408"/>
      <point x="222" y="367"/>
      <point x="191" y="306" type="curve"/>
      <point x="187" y="289" type="line"/>
      <point x="181" y="272"/>
      <point x="174" y="253"/>
      <point x="171" y="237" type="curve" smooth="yes"/>
      <point x="167" y="216"/>
      <point x="167" y="200"/>
      <point x="166" y="185" type="curve"/>
      <point x="165" y="165" type="line"/>
      <point x="171" y="92"/>
      <point x="203" y="52"/>
      <point x="302" y="52" type="curve" smooth="yes"/>
      <point x="344" y="52"/>
      <point x="379" y="60"/>
      <point x="423" y="74" type="curve"/>
      <point x="429" y="18" type="line"/>
      <point x="374" y="-1"/>
      <point x="331" y="-9"/>
      <point x="268" y="-9" type="curve" smooth="yes"/>
      <point x="155" y="-9"/>
      <point x="96" y="77"/>
      <point x="96" y="178" type="curve" smooth="yes"/>
      <point x="96" y="313"/>
      <point x="179" y="468"/>
      <point x="367" y="468" type="curve" smooth="yes"/>
      <point x="430" y="468"/>
      <point x="463" y="452"/>
      <point x="495" y="438" type="curve"/>
    </contour>
    <contour>
      <point x="352" y="204" type="line"/>
      <point x="341" y="149" type="line"/>
      <point x="7" y="149" type="line"/>
      <point x="18" y="204" type="line"/>
    </contour>
    <contour>
      <point x="373" y="313" type="line"/>
      <point x="362" y="258" type="line"/>
      <point x="28" y="258" type="line"/>
      <point x="39" y="313" type="line"/>
    </contour>
  </outline>
</glyph>
<glyph name="uni20B9" format="1">
  <advance width="337"/>
  <unicode hex="20B9"/>
  <outline>
    <contour>
      <point x="71" y="456" type="line"/>
      <point x="62" y="410" type="line"/>
      <point x="359" y="410" type="line"/>
      <point x="368" y="456" type="line"/>
    </contour>
    <contour>
      <point x="149" y="428"/>
      <point x="214" y="405"/>
      <point x="196" y="311" type="curve" smooth="yes"/>
      <point x="176" y="211"/>
      <point x="59" y="204"/>
      <point x="60" y="201" type="curve" smooth="yes"/>
      <point x="61" y="204"/>
      <point x="73" y="153"/>
      <point x="75" y="153" type="curve"/>
      <point x="116" y="156"/>
      <point x="230" y="192"/>
      <point x="251" y="299" type="curve" smooth="yes"/>
      <point x="273" y="410"/>
      <point x="208" y="443"/>
      <point x="210" y="443" type="curve"/>
      <point x="149" y="428" type="line"/>
    </contour>
    <contour>
      <point x="159" y="-10" type="line"/>
      <point x="209" y="18" type="line"/>
      <point x="78" y="244" type="line"/>
      <point x="30" y="217" type="line"/>
    </contour>
    <contour>
      <point x="50" y="347" type="line"/>
      <point x="41" y="301" type="line"/>
      <point x="338" y="301" type="line"/>
      <point x="347" y="347" type="line"/>
    </contour>
  </outline>
</glyph>
<glyph name="trademark" format="1">
  <advance width="554"/>
  <unicode hex="2122"/>
  <outline>
    <contour>
      <point x="103" y="331" type="line"/>
      <point x="103" y="513" type="line"/>
      <point x="28" y="513" type="line"/>
      <point x="28" y="550" type="line"/>
      <point x="225" y="550" type="line"/>
      <point x="225" y="513" type="line"/>
      <point x="149" y="513" type="line"/>
      <point x="149" y="331" type="line"/>
    </contour>
    <contour>
      <point x="365" y="383" type="line"/>
      <point x="307" y="497" type="line"/>
      <point x="307" y="331" type="line"/>
      <point x="262" y="331" type="line"/>
      <point x="262" y="550" type="line"/>
      <point x="321" y="550" type="line"/>
      <point x="380" y="436" type="line"/>
      <point x="439" y="550" type="line"/>
      <point x="498" y="550" type="line"/>
      <point x="498" y="331" type="line"/>
      <point x="455" y="331" type="line"/>
      <point x="455" y="497" type="line"/>
      <point x="396" y="383" type="line"/>
    </contour>
  </outline>
</glyph>
<glyph name="divisionslash" format="1">
  <advance width="257"/>
  <unicode hex="2215"/>
  <outline>
    <contour>
      <point x="358" y="456" type="line"/>
      <point x="-21" y="0" type="line"/>
      <point x="-87" y="0" type="line"/>
      <point x="291" y="456" type="line"/>
    </contour>
  </outline>
</glyph>
<glyph name="bulletoperator" format="1">
  <advance width="337"/>
  <unicode hex="2219"/>
  <outline>
    <contour>
      <point x="114" y="263"/>
      <point x="152" y="295"/>
      <point x="193" y="295" type="curve" smooth="yes"/>
      <point x="228" y="295"/>
      <point x="252" y="267"/>
      <point x="245" y="231" type="curve" smooth="yes"/>
      <point x="236" y="189"/>
      <point x="197" y="158"/>
      <point x="158" y="158" type="curve" smooth="yes"/>
      <point x="121" y="158"/>
      <point x="99" y="185"/>
      <point x="106" y="221" type="curve" smooth="yes"/>
    </contour>
  </outline>
</glyph>
<glyph name="fi" format="1">
  <advance width="458"/>
  <unicode hex="FB01"/>
  <outline>
    <contour>
      <point x="307" y="503"/>
      <point x="322" y="501"/>
      <point x="339" y="497" type="curve"/>
      <point x="352" y="543" type="line"/>
      <point x="330" y="550"/>
      <point x="305" y="554"/>
      <point x="277" y="554" type="curve" smooth="yes"/>
      <point x="182" y="554"/>
      <point x="144" y="508"/>
      <point x="128" y="425" type="curve" smooth="yes"/>
      <point x="120" y="384" type="line"/>
      <point x="65" y="384" type="line"/>
      <point x="55" y="333" type="line"/>
      <point x="112" y="333" type="line"/>
      <point x="47" y="0" type="line"/>
      <point x="112" y="0" type="line"/>
      <point x="177" y="333" type="line"/>
      <point x="303" y="333" type="line"/>
      <point x="313" y="384" type="line"/>
      <point x="186" y="384" type="line"/>
      <point x="192" y="417" type="line" smooth="yes"/>
      <point x="204" y="479"/>
      <point x="229" y="503"/>
      <point x="295" y="503" type="curve" smooth="yes"/>
    </contour>
    <component base="i" xOffset="277"/>
  </outline>
</glyph>
<glyph name="aideva_anusvaradeva" format="1">
  <advance width="409"/>
  <outline>
    <contour>
      <point x="459" y="519"/>
      <point x="474" y="533"/>
      <point x="477" y="550" type="curve" smooth="yes"/>
      <point x="482" y="574"/>
      <point x="469" y="592"/>
      <point x="444" y="592" type="curve" smooth="yes"/>
      <point x="424" y="592"/>
      <point x="409" y="578"/>
      <point x="406" y="560" type="curve" smooth="yes"/>
      <point x="401" y="537"/>
      <point x="414" y="519"/>
      <point x="438" y="519" type="curve" smooth="yes"/>
    </contour>
    <contour>
      <point x="315" y="586" type="line"/>
      <point x="292" y="622"/>
      <point x="276" y="637"/>
      <point x="236" y="637" type="curve" smooth="yes"/>
      <point x="206" y="637"/>
      <point x="174" y="620"/>
      <point x="174" y="617" type="curve" smooth="yes"/>
      <point x="176" y="620"/>
      <point x="185" y="576"/>
      <point x="187" y="577" type="curve" smooth="yes"/>
      <point x="189" y="576"/>
      <point x="210" y="586"/>
      <point x="234" y="586" type="curve" smooth="yes"/>
      <point x="253" y="586"/>
      <point x="260" y="580"/>
      <point x="272" y="561" type="curve"/>
      <point x="345" y="437" type="line"/>
      <point x="405" y="437" type="line"/>
    </contour>
    <contour>
      <point x="49" y="172" type="line"/>
      <point x="270" y="-44" type="line"/>
      <point x="310" y="-5" type="line"/>
      <point x="105" y="194" type="line"/>
      <point x="157" y="456" type="line"/>
      <point x="102" y="456" type="line"/>
    </contour>
    <contour>
      <point x="28" y="456" type="line"/>
      <point x="18" y="408" type="line"/>
      <point x="474" y="408" type="line"/>
      <point x="484" y="456" type="line"/>
    </contour>
    <contour>
      <point x="304" y="261" type="line"/>
      <point x="293" y="214"/>
      <point x="290" y="191"/>
      <point x="232" y="171" type="curve"/>
      <point x="253" y="123" type="line"/>
      <point x="322" y="149"/>
      <point x="341" y="186"/>
      <point x="353" y="246" type="curve"/>
      <point x="394" y="456" type="line"/>
      <point x="342" y="456" type="line"/>
    </contour>
  </outline>
</glyph>
<glyph name="anusvaradeva.alt2" format="1">
  <advance width="600"/>
  <outline>
    <contour>
      <point x="0" y="539"/>
      <point x="15" y="553"/>
      <point x="18" y="570" type="curve" smooth="yes"/>
      <point x="23" y="594"/>
      <point x="10" y="612"/>
      <point x="-15" y="612" type="curve" smooth="yes"/>
      <point x="-35" y="612"/>
      <point x="-50" y="598"/>
      <point x="-53" y="580" type="curve" smooth="yes"/>
      <point x="-58" y="557"/>
      <point x="-45" y="539"/>
      <point x="-21" y="539" type="curve" smooth="yes"/>
    </contour>
    <contour>
      <point x="-103" y="447" type="move" name="_top"/>
    </contour>
  </outline>
</glyph>
<glyph name="circumflex.cap" format="1">
  <advance width="255"/>
  <outline>
    <contour>
      <point x="20" y="628" type="line"/>
      <point x="49" y="589" type="line"/>
      <point x="153" y="658" type="line"/>
      <point x="236" y="588" type="line"/>
      <point x="271" y="622" type="line"/>
      <point x="157" y="720" type="line"/>
    </contour>
    <contour>
      <point x="137" y="550" type="move" name="_top.cap"/>
    </contour>
  </outline>
</glyph>
<glyph name="dieresis.cap" format="1">
  <advance width="232"/>
  <outline>
    <contour>
      <point x="72" y="615"/>
      <point x="90" y="630"/>
      <point x="93" y="647" type="curve" smooth="yes"/>
      <point x="97" y="670"/>
      <point x="82" y="689"/>
      <point x="60" y="689" type="curve" smooth="yes"/>
      <point x="42" y="689"/>
      <point x="24" y="674"/>
      <point x="21" y="657" type="curve" smooth="yes"/>
      <point x="16" y="634"/>
      <point x="32" y="615"/>
      <point x="54" y="615" type="curve" smooth="yes"/>
    </contour>
    <contour>
      <point x="230" y="615"/>
      <point x="248" y="630"/>
      <point x="251" y="647" type="curve" smooth="yes"/>
      <point x="255" y="670"/>
      <point x="240" y="689"/>
      <point x="218" y="689" type="curve" smooth="yes"/>
      <point x="200" y="689"/>
      <point x="182" y="674"/>
      <point x="179" y="657" type="curve" smooth="yes"/>
      <point x="174" y="634"/>
      <point x="190" y="615"/>
      <point x="212" y="615" type="curve" smooth="yes"/>
    </contour>
    <contour>
      <point x="117" y="550" type="move" name="_top.cap"/>
    </contour>
  </outline>
</glyph>
<glyph name="dotaccent.cap" format="1">
  <advance width="85"/>
  <outline>
    <contour>
      <point x="80" y="619"/>
      <point x="101" y="636"/>
      <point x="105" y="656" type="curve" smooth="yes"/>
      <point x="110" y="682"/>
      <point x="93" y="703"/>
      <point x="68" y="703" type="curve" smooth="yes"/>
      <point x="47" y="703"/>
      <point x="26" y="686"/>
      <point x="23" y="666" type="curve" smooth="yes"/>
      <point x="17" y="640"/>
      <point x="34" y="619"/>
      <point x="59" y="619" type="curve" smooth="yes"/>
    </contour>
    <contour>
      <point x="43" y="550" type="move" name="_top.cap"/>
    </contour>
  </outline>
</glyph>
<glyph name="evowelsigndeva_anusvaradeva" format="1">
  <advance width="287"/>
  <outline>
    <component base="evowelsigndeva"/>
    <component base="anusvaradeva" xOffset="408" yOffset="29"/>
    <contour>
      <point x="274" y="447" type="move" name="_top"/>
    </contour>
  </outline>
</glyph>
<glyph name="evowelsigndeva_uni0930094D_cand" format="1">
  <advance width="0"/>
  <outline>
    <contour>
      <point x="-100" y="461"/>
      <point x="-144" y="511"/>
      <point x="-137" y="545" type="curve" smooth="yes"/>
      <point x="-128" y="589"/>
      <point x="-91" y="604"/>
      <point x="-59" y="604" type="curve" smooth="yes"/>
      <point x="-49" y="604"/>
      <point x="-36" y="601"/>
      <point x="-26" y="597" type="curve"/>
      <point x="-3" y="642" type="line"/>
      <point x="-19" y="649"/>
      <point x="-35" y="654"/>
      <point x="-61" y="654" type="curve" smooth="yes"/>
      <point x="-100" y="655"/>
      <point x="-146" y="632"/>
      <point x="-165" y="583" type="curve"/>
      <point x="-169" y="583" type="line"/>
      <point x="-192" y="619"/>
      <point x="-216" y="643"/>
      <point x="-255" y="643" type="curve" smooth="yes"/>
      <point x="-285" y="643"/>
      <point x="-317" y="626"/>
      <point x="-317" y="626" type="curve"/>
      <point x="-301" y="580" type="line"/>
      <point x="-302" y="580"/>
      <point x="-281" y="592"/>
      <point x="-256" y="592" type="curve" smooth="yes"/>
      <point x="-240" y="592"/>
      <point x="-232" y="586"/>
      <point x="-219" y="567" type="curve"/>
      <point x="-142" y="437" type="line"/>
      <point x="-82" y="437" type="line"/>
    </contour>
    <contour>
      <point x="29" y="552"/>
      <point x="38" y="563"/>
      <point x="40" y="572" type="curve" smooth="yes"/>
      <point x="43" y="588"/>
      <point x="35" y="602"/>
      <point x="17" y="602" type="curve" smooth="yes"/>
      <point x="3" y="602"/>
      <point x="-6" y="592"/>
      <point x="-8" y="582" type="curve" smooth="yes"/>
      <point x="-11" y="567"/>
      <point x="-3" y="552"/>
      <point x="15" y="552" type="curve" smooth="yes"/>
    </contour>
    <contour>
      <point x="82" y="567" type="line"/>
      <point x="63" y="534"/>
      <point x="35" y="516"/>
      <point x="6" y="516" type="curve" smooth="yes"/>
      <point x="-18" y="516"/>
      <point x="-38" y="530"/>
      <point x="-44" y="563" type="curve"/>
      <point x="-80" y="552" type="line"/>
      <point x="-73" y="510"/>
      <point x="-46" y="479"/>
      <point x="7" y="479" type="curve" smooth="yes"/>
      <point x="51" y="479"/>
      <point x="91" y="504"/>
      <point x="115" y="546" type="curve"/>
    </contour>
    <contour>
      <point x="-124" y="447" type="move" name="_top"/>
    </contour>
  </outline>
</glyph>
<glyph name="hungarumlaut.cap" format="1">
  <advance width="411"/>
  <outline>
    <component base="acute.cap" xOffset="-10"/>
    <component base="acute.cap" xOffset="200"/>
    <contour>
      <point x="143" y="550" type="move" name="_top.cap"/>
    </contour>
  </outline>
</glyph>
<glyph name="iiMatra_reph-deva.alt4" format="1">
  <advance width="210"/>
  <outline>
    <contour>
      <point x="183" y="456" type="line"/>
      <point x="175" y="479"/>
      <point x="166" y="507"/>
      <point x="172" y="540" type="curve" smooth="yes"/>
      <point x="182" y="587"/>
      <point x="215" y="597"/>
      <point x="252" y="597" type="curve" smooth="yes"/>
      <point x="273" y="597"/>
      <point x="300" y="586"/>
      <point x="316" y="575" type="curve"/>
      <point x="348" y="614" type="line"/>
      <point x="326" y="632"/>
      <point x="285" y="649"/>
      <point x="251" y="649" type="curve" smooth="yes"/>
      <point x="205" y="649"/>
      <point x="161" y="631"/>
      <point x="136" y="588" type="curve"/>
      <point x="106" y="625"/>
      <point x="61" y="649"/>
      <point x="10" y="649" type="curve" smooth="yes"/>
      <point x="-83" y="649"/>
      <point x="-139" y="600"/>
      <point x="-150" y="543" type="curve" smooth="yes"/>
      <point x="-164" y="474"/>
      <point x="-114" y="439"/>
      <point x="-114" y="439" type="curve" smooth="yes"/>
      <point x="-54" y="438" type="line"/>
      <point x="-73" y="451"/>
      <point x="-106" y="489"/>
      <point x="-98" y="529" type="curve" smooth="yes"/>
      <point x="-90" y="571"/>
      <point x="-48" y="596"/>
      <point x="6" y="596" type="curve" smooth="yes"/>
      <point x="58" y="596"/>
      <point x="117" y="564"/>
      <point x="128" y="456" type="curve"/>
      <point x="27" y="456" type="line"/>
      <point x="17" y="408" type="line"/>
      <point x="122" y="408" type="line"/>
      <point x="42" y="0" type="line"/>
      <point x="97" y="0" type="line"/>
      <point x="176" y="408" type="line"/>
      <point x="274" y="408" type="line"/>
      <point x="283" y="456" type="line"/>
    </contour>
  </outline>
</glyph>
<glyph name="iiMatra_reph_anusvara-deva.alt2" format="1">
  <advance width="209"/>
  <outline>
    <contour>
      <point x="258" y="499"/>
      <point x="270" y="511"/>
      <point x="273" y="525" type="curve" smooth="yes"/>
      <point x="277" y="545"/>
      <point x="266" y="560"/>
      <point x="245" y="560" type="curve" smooth="yes"/>
      <point x="229" y="560"/>
      <point x="216" y="548"/>
      <point x="214" y="534" type="curve" smooth="yes"/>
      <point x="211" y="515"/>
      <point x="221" y="499"/>
      <point x="240" y="499" type="curve" smooth="yes"/>
    </contour>
    <component base="iiMatra_reph-deva.alt2"/>
  </outline>
</glyph>
<glyph name="oMatra_reph-deva" format="1">
  <advance width="212"/>
  <outline>
    <contour>
      <point x="288" y="456" type="line"/>
      <point x="181" y="456" type="line"/>
      <point x="161" y="483"/>
      <point x="136" y="518"/>
      <point x="141" y="545" type="curve" smooth="yes"/>
      <point x="149" y="589"/>
      <point x="187" y="604"/>
      <point x="219" y="604" type="curve" smooth="yes"/>
      <point x="243" y="604"/>
      <point x="266" y="590"/>
      <point x="281" y="579" type="curve"/>
      <point x="313" y="619" type="line"/>
      <point x="291" y="635"/>
      <point x="261" y="654"/>
      <point x="217" y="654" type="curve" smooth="yes"/>
      <point x="178" y="654"/>
      <point x="133" y="632"/>
      <point x="113" y="582" type="curve"/>
      <point x="111" y="582" type="line"/>
      <point x="88" y="618"/>
      <point x="63" y="643"/>
      <point x="23" y="643" type="curve" smooth="yes"/>
      <point x="-7" y="643"/>
      <point x="-41" y="628"/>
      <point x="-41" y="628" type="curve"/>
      <point x="-23" y="580" type="line"/>
      <point x="-23" y="580"/>
      <point x="-3" y="592"/>
      <point x="21" y="592" type="curve" smooth="yes"/>
      <point x="38" y="592"/>
      <point x="49" y="581"/>
      <point x="69" y="549" type="curve" smooth="yes"/>
      <point x="124" y="456" type="line"/>
      <point x="27" y="456" type="line"/>
      <point x="18" y="408" type="line"/>
      <point x="122" y="408" type="line"/>
      <point x="43" y="0" type="line"/>
      <point x="98" y="0" type="line"/>
      <point x="177" y="408" type="line"/>
      <point x="279" y="408" type="line"/>
    </contour>
  </outline>
</glyph>
<glyph name="oMatra_reph_anusvara-deva" format="1">
  <advance width="214"/>
  <outline>
    <contour>
      <point x="179" y="527"/>
      <point x="189" y="512"/>
      <point x="208" y="512" type="curve" smooth="yes"/>
      <point x="224" y="512"/>
      <point x="235" y="523"/>
      <point x="237" y="535" type="curve" smooth="yes"/>
      <point x="241" y="554"/>
      <point x="231" y="569"/>
      <point x="211" y="569" type="curve" smooth="yes"/>
      <point x="196" y="569"/>
      <point x="185" y="558"/>
      <point x="182" y="545" type="curve" smooth="yes"/>
    </contour>
    <contour>
      <point x="288" y="456" type="line"/>
      <point x="181" y="456" type="line"/>
      <point x="161" y="483"/>
      <point x="136" y="518"/>
      <point x="141" y="545" type="curve" smooth="yes"/>
      <point x="149" y="589"/>
      <point x="187" y="604"/>
      <point x="219" y="604" type="curve" smooth="yes"/>
      <point x="243" y="604"/>
      <point x="266" y="590"/>
      <point x="281" y="579" type="curve"/>
      <point x="313" y="619" type="line"/>
      <point x="291" y="635"/>
      <point x="261" y="654"/>
      <point x="217" y="654" type="curve" smooth="yes"/>
      <point x="178" y="654"/>
      <point x="133" y="632"/>
      <point x="113" y="582" type="curve"/>
      <point x="111" y="582" type="line"/>
      <point x="88" y="618"/>
      <point x="63" y="643"/>
      <point x="23" y="643" type="curve" smooth="yes"/>
      <point x="-7" y="643"/>
      <point x="-41" y="628"/>
      <point x="-41" y="628" type="curve"/>
      <point x="-23" y="580" type="line"/>
      <point x="-23" y="580"/>
      <point x="-3" y="592"/>
      <point x="21" y="592" type="curve" smooth="yes"/>
      <point x="38" y="592"/>
      <point x="49" y="581"/>
      <point x="69" y="549" type="curve" smooth="yes"/>
      <point x="124" y="456" type="line"/>
      <point x="27" y="456" type="line"/>
      <point x="18" y="408" type="line"/>
      <point x="122" y="408" type="line"/>
      <point x="43" y="0" type="line"/>
      <point x="98" y="0" type="line"/>
      <point x="177" y="408" type="line"/>
      <point x="279" y="408" type="line"/>
    </contour>
  </outline>
</glyph>
<glyph name="ovowelsigndeva_candrabindudeva" format="1">
  <advance width="214"/>
  <outline>
    <contour>
      <point x="265" y="592"/>
      <point x="274" y="603"/>
      <point x="276" y="612" type="curve" smooth="yes"/>
      <point x="279" y="628"/>
      <point x="271" y="642"/>
      <point x="253" y="642" type="curve" smooth="yes"/>
      <point x="239" y="642"/>
      <point x="230" y="632"/>
      <point x="228" y="622" type="curve" smooth="yes"/>
      <point x="225" y="607"/>
      <point x="233" y="592"/>
      <point x="251" y="592" type="curve" smooth="yes"/>
    </contour>
    <contour>
      <point x="318" y="607" type="line"/>
      <point x="299" y="574"/>
      <point x="271" y="556"/>
      <point x="242" y="556" type="curve" smooth="yes"/>
      <point x="218" y="556"/>
      <point x="198" y="570"/>
      <point x="192" y="603" type="curve"/>
      <point x="156" y="592" type="line"/>
      <point x="163" y="550"/>
      <point x="190" y="519"/>
      <point x="243" y="519" type="curve" smooth="yes"/>
      <point x="287" y="519"/>
      <point x="327" y="544"/>
      <point x="351" y="586" type="curve"/>
    </contour>
    <component base="ovowelsigndeva"/>
  </outline>
</glyph>
<glyph name="rh_ra-deva" format="1">
  <advance width="397"/>
  <outline>
    <contour>
      <point x="15" y="-215" type="line"/>
      <point x="40" y="-252" type="line"/>
      <point x="143" y="-186" type="line"/>
      <point x="220" y="-252" type="line"/>
      <point x="259" y="-215" type="line"/>
      <point x="165" y="-136" type="line"/>
      <point x="137" y="-136" type="line"/>
    </contour>
    <component base="rhadeva"/>
    <contour>
      <point x="338" y="447" type="move" name="top"/>
    </contour>
    <contour>
      <point x="131" y="-255" type="move" name="bottom"/>
    </contour>
  </outline>
</glyph>
<glyph name="ring.cap" format="1">
  <advance width="181"/>
  <outline>
    <contour>
      <point x="155" y="648"/>
      <point x="131" y="625"/>
      <point x="100" y="625" type="curve" smooth="yes"/>
      <point x="75" y="625"/>
      <point x="62" y="643"/>
      <point x="67" y="669" type="curve" smooth="yes"/>
      <point x="73" y="698"/>
      <point x="97" y="721"/>
      <point x="127" y="721" type="curve" smooth="yes"/>
      <point x="152" y="721"/>
      <point x="165" y="700"/>
      <point x="161" y="679" type="curve" smooth="yes"/>
    </contour>
    <contour>
      <point x="20" y="627"/>
      <point x="50" y="586"/>
      <point x="101" y="586" type="curve" smooth="yes"/>
      <point x="148" y="586"/>
      <point x="190" y="623"/>
      <point x="199" y="669" type="curve" smooth="yes"/>
      <point x="209" y="718"/>
      <point x="178" y="760"/>
      <point x="127" y="760" type="curve" smooth="yes"/>
      <point x="80" y="760"/>
      <point x="39" y="723"/>
      <point x="30" y="679" type="curve" smooth="yes"/>
    </contour>
    <contour>
      <point x="91" y="550" type="move" name="_top.cap"/>
    </contour>
  </outline>
</glyph>
<glyph name="uni0915094D" format="1">
  <advance width="425"/>
  <outline>
    <contour>
      <point x="225" y="0" type="line"/>
      <point x="278" y="0" type="line"/>
      <point x="367" y="456" type="line"/>
      <point x="314" y="456" type="line"/>
    </contour>
    <contour>
      <point x="28" y="456" type="line"/>
      <point x="18" y="408" type="line"/>
      <point x="493" y="408" type="line"/>
      <point x="503" y="456" type="line"/>
    </contour>
    <contour>
      <point x="21" y="126"/>
      <point x="72" y="73"/>
      <point x="157" y="73" type="curve" smooth="yes"/>
      <point x="217" y="73"/>
      <point x="255" y="99"/>
      <point x="286" y="117" type="curve"/>
      <point x="278" y="171" type="line"/>
      <point x="260" y="159"/>
      <point x="227" y="124"/>
      <point x="168" y="124" type="curve" smooth="yes"/>
      <point x="111" y="124"/>
      <point x="81" y="149"/>
      <point x="91" y="200" type="curve" smooth="yes"/>
      <point x="102" y="256"/>
      <point x="147" y="286"/>
      <point x="203" y="286" type="curve" smooth="yes"/>
      <point x="253" y="286"/>
      <point x="282" y="254"/>
      <point x="296" y="242" type="curve"/>
      <point x="317" y="291" type="line"/>
      <point x="292" y="309"/>
      <point x="255" y="337"/>
      <point x="201" y="337" type="curve" smooth="yes"/>
      <point x="120" y="337"/>
      <point x="52" y="288"/>
      <point x="37" y="210" type="curve" smooth="yes"/>
    </contour>
    <contour>
      <point x="540" y="267" type="line"/>
      <point x="510" y="313"/>
      <point x="473" y="333"/>
      <point x="414" y="333" type="curve" smooth="yes"/>
      <point x="364" y="333"/>
      <point x="306" y="297"/>
      <point x="275" y="279" type="curve"/>
      <point x="283" y="225" type="line"/>
      <point x="301" y="237"/>
      <point x="363" y="282"/>
      <point x="411" y="282" type="curve" smooth="yes"/>
      <point x="463" y="282"/>
      <point x="488" y="269"/>
      <point x="510" y="216" type="curve"/>
    </contour>
  </outline>
</glyph>
<glyph name="uni0915094D0937094D092F" format="1">
  <advance width="772"/>
  <outline>
    <contour>
      <point x="847" y="456" type="line"/>
      <point x="384" y="456" type="line"/>
      <point x="375" y="408" type="line"/>
      <point x="450" y="410" type="line"/>
      <point x="471" y="377"/>
      <point x="479" y="342"/>
      <point x="473" y="312" type="curve" smooth="yes"/>
      <point x="469" y="291"/>
      <point x="458" y="277"/>
      <point x="447" y="268" type="curve"/>
      <point x="442" y="261"/>
      <point x="435" y="256"/>
      <point x="430" y="252" type="curve"/>
      <point x="415" y="244" type="line"/>
      <point x="394" y="232"/>
      <point x="368" y="227"/>
      <point x="322" y="227" type="curve" smooth="yes"/>
      <point x="291" y="227"/>
      <point x="251" y="237"/>
      <point x="219" y="257" type="curve"/>
      <point x="229" y="259" type="line"/>
      <point x="273" y="289"/>
      <point x="301" y="313"/>
      <point x="311" y="363" type="curve" smooth="yes"/>
      <point x="325" y="434"/>
      <point x="276" y="467"/>
      <point x="224" y="467" type="curve" smooth="yes"/>
      <point x="178" y="467"/>
      <point x="119" y="438"/>
      <point x="106" y="373" type="curve" smooth="yes"/>
      <point x="98" y="331"/>
      <point x="111" y="293"/>
      <point x="136" y="264" type="curve"/>
      <point x="87" y="236"/>
      <point x="41" y="197"/>
      <point x="29" y="137" type="curve" smooth="yes"/>
      <point x="19" y="84"/>
      <point x="48" y="14"/>
      <point x="139" y="14" type="curve" smooth="yes"/>
      <point x="165" y="14"/>
      <point x="191" y="19"/>
      <point x="214" y="30" type="curve"/>
      <point x="219" y="-51" type="line"/>
      <point x="279" y="-30" type="line"/>
      <point x="256" y="51" type="line"/>
      <point x="272" y="62"/>
      <point x="286" y="79"/>
      <point x="289" y="97" type="curve" smooth="yes"/>
      <point x="296" y="132"/>
      <point x="278" y="153"/>
      <point x="243" y="153" type="curve" smooth="yes"/>
      <point x="222" y="153"/>
      <point x="203" y="133"/>
      <point x="203" y="133" type="curve"/>
      <point x="208" y="84" type="line"/>
      <point x="191" y="73"/>
      <point x="171" y="67"/>
      <point x="147" y="67" type="curve" smooth="yes"/>
      <point x="98" y="67"/>
      <point x="79" y="96"/>
      <point x="86" y="134" type="curve" smooth="yes"/>
      <point x="95" y="180"/>
      <point x="133" y="206"/>
      <point x="172" y="229" type="curve"/>
      <point x="211" y="200"/>
      <point x="266" y="179"/>
      <point x="327" y="179" type="curve" smooth="yes"/>
      <point x="340" y="179"/>
      <point x="355" y="180"/>
      <point x="370" y="184" type="curve"/>
      <point x="390" y="140"/>
      <point x="438" y="84"/>
      <point x="523" y="84" type="curve" smooth="yes"/>
      <point x="565" y="84"/>
      <point x="603" y="98"/>
      <point x="628" y="111" type="curve"/>
      <point x="604" y="0" type="line"/>
      <point x="660" y="0" type="line"/>
      <point x="740" y="408" type="line"/>
      <point x="838" y="408" type="line"/>
    </contour>
    <contour>
      <point x="242" y="415"/>
      <point x="266" y="402"/>
      <point x="262" y="372" type="curve"/>
      <point x="254" y="334"/>
      <point x="230" y="316"/>
      <point x="195" y="296" type="curve"/>
      <point x="193" y="292"/>
      <point x="188" y="289"/>
      <point x="183" y="285" type="curve"/>
      <point x="162" y="307"/>
      <point x="151" y="334"/>
      <point x="157" y="362" type="curve" smooth="yes"/>
      <point x="163" y="395"/>
      <point x="197" y="415"/>
      <point x="223" y="415" type="curve" smooth="yes"/>
    </contour>
    <contour>
      <point x="637" y="176" type="line"/>
      <point x="604" y="151"/>
      <point x="561" y="137"/>
      <point x="520" y="137" type="curve" smooth="yes"/>
      <point x="481" y="137"/>
      <point x="450" y="163"/>
      <point x="431" y="189" type="curve"/>
      <point x="476" y="219"/>
      <point x="514" y="242"/>
      <point x="526" y="301" type="curve" smooth="yes"/>
      <point x="533" y="336"/>
      <point x="527" y="373"/>
      <point x="509" y="406" type="curve"/>
      <point x="684" y="408" type="line"/>
    </contour>
    <contour>
      <point x="718" y="447" type="move" name="top"/>
    </contour>
    <contour>
      <point x="633" y="5" type="move" name="bottom"/>
    </contour>
  </outline>
</glyph>
<glyph name="uni0915094D_cadeva" format="1">
  <advance width="890"/>
  <outline>
    <contour>
      <point x="965" y="456" type="line"/>
      <point x="28" y="456" type="line"/>
      <point x="18" y="408" type="line"/>
      <point x="304" y="408" type="line"/>
      <point x="284" y="313" type="line"/>
      <point x="262" y="325"/>
      <point x="236" y="337"/>
      <point x="201" y="337" type="curve" smooth="yes"/>
      <point x="120" y="337"/>
      <point x="52" y="288"/>
      <point x="37" y="210" type="curve" smooth="yes"/>
      <point x="21" y="126"/>
      <point x="72" y="73"/>
      <point x="157" y="73" type="curve" smooth="yes"/>
      <point x="193" y="73"/>
      <point x="221" y="82"/>
      <point x="245" y="94" type="curve"/>
      <point x="225" y="0" type="line"/>
      <point x="278" y="0" type="line"/>
      <point x="331" y="262" type="line"/>
      <point x="347" y="272"/>
      <point x="369" y="282"/>
      <point x="395" y="282" type="curve" smooth="yes"/>
      <point x="411" y="282"/>
      <point x="441" y="280"/>
      <point x="453" y="250" type="curve"/>
      <point x="532" y="250" type="line"/>
      <point x="521" y="238"/>
      <point x="512" y="221"/>
      <point x="507" y="194" type="curve" smooth="yes"/>
      <point x="494" y="130"/>
      <point x="537" y="73"/>
      <point x="637" y="73" type="curve" smooth="yes"/>
      <point x="683" y="73"/>
      <point x="718" y="85"/>
      <point x="743" y="99" type="curve"/>
      <point x="722" y="0" type="line"/>
      <point x="778" y="0" type="line"/>
      <point x="857" y="408" type="line"/>
      <point x="955" y="408" type="line"/>
    </contour>
    <contour>
      <point x="752" y="162" type="line"/>
      <point x="726" y="144"/>
      <point x="689" y="125"/>
      <point x="640" y="125" type="curve" smooth="yes"/>
      <point x="588" y="125"/>
      <point x="554" y="148"/>
      <point x="562" y="190" type="curve" smooth="yes"/>
      <point x="567" y="218"/>
      <point x="584" y="236"/>
      <point x="598" y="246" type="curve"/>
      <point x="683" y="248" type="line"/>
      <point x="693" y="296" type="line"/>
      <point x="485" y="294" type="line"/>
      <point x="465" y="320"/>
      <point x="434" y="333"/>
      <point x="398" y="333" type="curve" smooth="yes"/>
      <point x="377" y="333"/>
      <point x="357" y="328"/>
      <point x="338" y="319" type="curve"/>
      <point x="357" y="408" type="line"/>
      <point x="801" y="408" type="line"/>
    </contour>
    <contour>
      <point x="111" y="124"/>
      <point x="81" y="149"/>
      <point x="91" y="200" type="curve" smooth="yes"/>
      <point x="102" y="256"/>
      <point x="147" y="286"/>
      <point x="203" y="286" type="curve" smooth="yes"/>
      <point x="236" y="286"/>
      <point x="260" y="272"/>
      <point x="277" y="259" type="curve"/>
      <point x="253" y="152" type="line"/>
      <point x="234" y="139"/>
      <point x="206" y="124"/>
      <point x="168" y="124" type="curve" smooth="yes"/>
    </contour>
    <contour>
      <point x="837" y="447" type="move" name="top"/>
    </contour>
    <contour>
      <point x="751" y="5" type="move" name="bottom"/>
    </contour>
  </outline>
</glyph>
<glyph name="uni0915094D_tadeva" format="1">
  <advance width="644"/>
  <outline>
    <contour>
      <point x="709" y="408" type="line"/>
      <point x="719" y="456" type="line"/>
      <point x="28" y="456" type="line"/>
      <point x="18" y="408" type="line"/>
      <point x="376" y="408" type="line"/>
      <point x="355" y="297" type="line"/>
      <point x="285" y="297" type="line"/>
      <point x="27" y="297" type="line"/>
      <point x="16" y="241" type="line"/>
      <point x="102" y="243" type="line"/>
      <point x="90" y="226"/>
      <point x="83" y="205"/>
      <point x="78" y="182" type="curve" smooth="yes"/>
      <point x="66" y="116"/>
      <point x="98" y="45"/>
      <point x="121" y="-13" type="curve"/>
      <point x="170" y="9" type="line"/>
      <point x="158" y="40"/>
      <point x="125" y="126"/>
      <point x="133" y="170" type="curve" smooth="yes"/>
      <point x="144" y="225"/>
      <point x="176" y="241"/>
      <point x="236" y="241" type="curve" smooth="yes"/>
      <point x="344" y="241" type="line"/>
      <point x="297" y="0" type="line"/>
      <point x="352" y="0" type="line"/>
      <point x="400" y="235" type="line"/>
      <point x="423" y="252"/>
      <point x="461" y="278"/>
      <point x="498" y="278" type="curve" smooth="yes"/>
      <point x="550" y="278"/>
      <point x="574" y="252"/>
      <point x="566" y="208" type="curve" smooth="yes"/>
      <point x="555" y="154"/>
      <point x="511" y="126"/>
      <point x="476" y="99" type="curve"/>
      <point x="511" y="56" type="line"/>
      <point x="554" y="85"/>
      <point x="607" y="132"/>
      <point x="618" y="192" type="curve" smooth="yes"/>
      <point x="634" y="274"/>
      <point x="589" y="329"/>
      <point x="504" y="329" type="curve" smooth="yes"/>
      <point x="470" y="329"/>
      <point x="436" y="315"/>
      <point x="408" y="299" type="curve"/>
      <point x="431" y="408" type="line"/>
    </contour>
    <contour>
      <point x="410" y="447" type="move" name="top"/>
    </contour>
    <contour>
      <point x="325" y="5" type="move" name="bottom"/>
    </contour>
  </outline>
</glyph>
<glyph name="uni0917094D" format="1">
  <advance width="248"/>
  <outline>
    <contour>
      <point x="84" y="151" type="line"/>
      <point x="139" y="151" type="line"/>
      <point x="199" y="456" type="line"/>
      <point x="144" y="456" type="line"/>
    </contour>
    <contour>
      <point x="28" y="456" type="line"/>
      <point x="18" y="408" type="line"/>
      <point x="313" y="408" type="line"/>
      <point x="323" y="456" type="line"/>
    </contour>
    <contour>
      <point x="39" y="215" type="line"/>
      <point x="33" y="181" type="line"/>
      <point x="89" y="90" type="line"/>
      <point x="88" y="90"/>
      <point x="128" y="92"/>
      <point x="128" y="92" type="curve"/>
      <point x="152" y="215" type="line"/>
    </contour>
  </outline>
</glyph>
<glyph name="uni091C094D091E094D" format="1">
  <advance width="347"/>
  <outline>
    <contour>
      <point x="28" y="456" type="line"/>
      <point x="18" y="408" type="line"/>
      <point x="413" y="408" type="line"/>
      <point x="423" y="456" type="line"/>
    </contour>
    <contour>
      <point x="428" y="274"/>
      <point x="243" y="274"/>
      <point x="179" y="274" type="curve"/>
      <point x="191" y="226" type="line"/>
      <point x="262" y="226"/>
      <point x="421" y="228"/>
      <point x="421" y="228" type="curve"/>
      <point x="428" y="274" type="line"/>
    </contour>
    <contour>
      <point x="294" y="189"/>
      <point x="278" y="231"/>
      <point x="234" y="252" type="curve" smooth="yes"/>
      <point x="226" y="260"/>
      <point x="221" y="265"/>
      <point x="209" y="273" type="curve"/>
      <point x="148" y="274" type="line"/>
      <point x="142" y="229" type="line"/>
      <point x="218" y="229"/>
      <point x="239" y="195"/>
      <point x="231" y="152" type="curve" smooth="yes"/>
      <point x="217" y="84"/>
      <point x="165" y="67"/>
      <point x="120" y="67" type="curve"/>
      <point x="115" y="67"/>
      <point x="107" y="66"/>
      <point x="100" y="69" type="curve"/>
      <point x="60" y="140" type="line"/>
      <point x="27" y="145"/>
      <point x="7" y="123"/>
      <point x="4" y="101" type="curve" smooth="yes"/>
      <point x="-6" y="48"/>
      <point x="50" y="15"/>
      <point x="119" y="15" type="curve" smooth="yes"/>
      <point x="178" y="15"/>
      <point x="265" y="42"/>
      <point x="284" y="141" type="curve" smooth="yes"/>
    </contour>
    <contour>
      <point x="60" y="43" type="line"/>
      <point x="60" y="43"/>
      <point x="137" y="-88"/>
      <point x="139" y="-87" type="curve" smooth="yes"/>
      <point x="141" y="-88"/>
      <point x="196" y="-59"/>
      <point x="196" y="-59" type="curve"/>
      <point x="101" y="62" type="line"/>
    </contour>
  </outline>
</glyph>
<glyph name="uni091D094D" format="1">
  <advance width="387"/>
  <outline>
    <contour>
      <point x="28" y="456" type="line"/>
      <point x="18" y="408" type="line"/>
      <point x="451" y="408" type="line"/>
      <point x="461" y="456" type="line"/>
    </contour>
    <contour>
      <point x="466" y="209" type="line"/>
      <point x="450" y="194"/>
      <point x="420" y="174"/>
      <point x="374" y="174" type="curve" smooth="yes"/>
      <point x="321" y="174"/>
      <point x="291" y="202"/>
      <point x="258" y="210" type="curve"/>
      <point x="242" y="169" type="line"/>
      <point x="276" y="160"/>
      <point x="322" y="126"/>
      <point x="374" y="126" type="curve" smooth="yes"/>
      <point x="436" y="126"/>
      <point x="473" y="157"/>
      <point x="473" y="157" type="curve"/>
    </contour>
    <contour>
      <point x="79" y="55" type="line"/>
      <point x="79" y="55"/>
      <point x="141" y="-96"/>
      <point x="144" y="-95" type="curve" smooth="yes"/>
      <point x="145" y="-96"/>
      <point x="197" y="-73"/>
      <point x="197" y="-73" type="curve"/>
      <point x="129" y="59" type="line"/>
    </contour>
    <contour>
      <point x="52" y="191"/>
      <point x="98" y="163"/>
      <point x="149" y="163" type="curve" smooth="yes"/>
      <point x="174" y="163"/>
      <point x="201" y="169"/>
      <point x="223" y="169" type="curve" smooth="yes"/>
      <point x="263" y="169"/>
      <point x="274" y="148"/>
      <point x="269" y="121" type="curve" smooth="yes"/>
      <point x="260" y="79"/>
      <point x="211" y="59"/>
      <point x="174" y="59" type="curve" smooth="yes"/>
      <point x="156" y="59"/>
      <point x="140" y="58"/>
      <point x="125" y="64" type="curve"/>
      <point x="84" y="134" type="line"/>
      <point x="59" y="136"/>
      <point x="33" y="123"/>
      <point x="29" y="101" type="curve" smooth="yes"/>
      <point x="16" y="38"/>
      <point x="107" y="9"/>
      <point x="166" y="9" type="curve" smooth="yes"/>
      <point x="244" y="9"/>
      <point x="308" y="48"/>
      <point x="320" y="110" type="curve" smooth="yes"/>
      <point x="335" y="183"/>
      <point x="296" y="222"/>
      <point x="227" y="222" type="curve" smooth="yes"/>
      <point x="208" y="222"/>
      <point x="184" y="216"/>
      <point x="161" y="216" type="curve" smooth="yes"/>
      <point x="130" y="216"/>
      <point x="111" y="221"/>
      <point x="117" y="251" type="curve" smooth="yes"/>
      <point x="123" y="282"/>
      <point x="151" y="294"/>
      <point x="203" y="294" type="curve" smooth="yes"/>
      <point x="263" y="294"/>
      <point x="279" y="289"/>
      <point x="313" y="285" type="curve"/>
      <point x="324" y="292" type="line"/>
      <point x="355" y="456" type="line"/>
      <point x="299" y="456" type="line"/>
      <point x="274" y="341" type="line"/>
      <point x="249" y="344"/>
      <point x="241" y="345"/>
      <point x="206" y="345" type="curve" smooth="yes"/>
      <point x="135" y="345"/>
      <point x="78" y="325"/>
      <point x="67" y="265" type="curve" smooth="yes"/>
    </contour>
  </outline>
</glyph>
<glyph name="uni091F094D_radeva" format="1">
  <advance width="391"/>
  <outline>
    <component base="ttadeva"/>
    <component base="rashtra-deva" xOffset="138"/>
    <contour>
      <point x="287" y="447" type="move" name="top"/>
    </contour>
    <contour>
      <point x="155" y="-145" type="move" name="bottom"/>
    </contour>
  </outline>
</glyph>
<glyph name="uni0920094D" format="1">
  <advance width="431"/>
  <outline>
    <contour>
      <point x="236" y="-32"/>
      <point x="279" y="-94"/>
      <point x="308" y="-142" type="curve"/>
      <point x="264" y="-177" type="line"/>
      <point x="219" y="-98"/>
      <point x="175" y="-84"/>
      <point x="96" y="-84" type="curve"/>
      <point x="109" y="-32" type="line"/>
    </contour>
    <component base="tthadeva"/>
  </outline>
</glyph>
<glyph name="uni0920094D_radeva" format="1">
  <advance width="431"/>
  <outline>
    <component base="tthadeva"/>
    <component base="rashtra-deva" xOffset="144"/>
    <contour>
      <point x="287" y="447" type="move" name="top"/>
    </contour>
    <contour>
      <point x="165" y="-145" type="move" name="bottom"/>
    </contour>
  </outline>
</glyph>
<glyph name="uni0921094D092F" format="1">
  <advance width="820"/>
  <outline>
    <contour>
      <point x="895" y="456" type="line"/>
      <point x="28" y="456" type="line"/>
      <point x="18" y="408" type="line"/>
      <point x="320" y="408" type="line"/>
      <point x="306" y="343" type="line"/>
      <point x="285" y="345"/>
      <point x="273" y="346"/>
      <point x="238" y="346" type="curve" smooth="yes"/>
      <point x="163" y="346"/>
      <point x="110" y="324"/>
      <point x="98" y="264" type="curve" smooth="yes"/>
      <point x="79" y="164"/>
      <point x="182" y="161"/>
      <point x="223" y="164" type="curve" smooth="yes"/>
      <point x="282" y="171"/>
      <point x="306" y="155"/>
      <point x="300" y="121" type="curve" smooth="yes"/>
      <point x="291" y="75"/>
      <point x="243" y="52"/>
      <point x="197" y="52" type="curve" smooth="yes"/>
      <point x="140" y="52"/>
      <point x="96" y="79"/>
      <point x="58" y="126" type="curve"/>
      <point x="20" y="93" type="line"/>
      <point x="63" y="40"/>
      <point x="118" y="0"/>
      <point x="196" y="0" type="curve" smooth="yes"/>
      <point x="275" y="0"/>
      <point x="339" y="44"/>
      <point x="352" y="115" type="curve" smooth="yes"/>
      <point x="365" y="179"/>
      <point x="318" y="220"/>
      <point x="243" y="216" type="curve" smooth="yes"/>
      <point x="192" y="213"/>
      <point x="141" y="210"/>
      <point x="149" y="251" type="curve" smooth="yes"/>
      <point x="155" y="282"/>
      <point x="182" y="294"/>
      <point x="232" y="294" type="curve" smooth="yes"/>
      <point x="430" y="294" type="line" smooth="yes"/>
      <point x="503" y="294"/>
      <point x="519" y="286"/>
      <point x="515" y="265" type="curve" smooth="yes"/>
      <point x="510" y="241"/>
      <point x="466" y="225"/>
      <point x="432" y="214" type="curve"/>
      <point x="418" y="186" type="line"/>
      <point x="436" y="140"/>
      <point x="487" y="84"/>
      <point x="580" y="84" type="curve" smooth="yes"/>
      <point x="616" y="84"/>
      <point x="650" y="94"/>
      <point x="675" y="106" type="curve"/>
      <point x="652" y="0" type="line"/>
      <point x="708" y="0" type="line"/>
      <point x="787" y="408" type="line"/>
      <point x="885" y="408" type="line"/>
    </contour>
    <contour>
      <point x="683" y="168" type="line"/>
      <point x="652" y="147"/>
      <point x="614" y="136"/>
      <point x="578" y="136" type="curve" smooth="yes"/>
      <point x="539" y="136"/>
      <point x="505" y="152"/>
      <point x="486" y="178" type="curve"/>
      <point x="524" y="197"/>
      <point x="560" y="216"/>
      <point x="568" y="257" type="curve" smooth="yes"/>
      <point x="579" y="313"/>
      <point x="539" y="343"/>
      <point x="473" y="343" type="curve" smooth="yes"/>
      <point x="364" y="343" type="line"/>
      <point x="376" y="408" type="line"/>
      <point x="731" y="408" type="line"/>
    </contour>
    <contour>
      <point x="766" y="447" type="move" name="top"/>
    </contour>
    <contour>
      <point x="681" y="5" type="move" name="bottom"/>
    </contour>
  </outline>
</glyph>
<glyph name="uni0921094D_radeva" format="1">
  <advance width="410"/>
  <outline>
    <component base="ddadeva"/>
    <component base="rashtra-deva" xOffset="162"/>
    <contour>
      <point x="302" y="447" type="move" name="top"/>
    </contour>
    <contour>
      <point x="174" y="-145" type="move" name="bottom"/>
    </contour>
  </outline>
</glyph>
<glyph name="uni0922094D" format="1">
  <advance width="397"/>
  <outline>
    <contour>
      <point x="225" y="-32"/>
      <point x="268" y="-94"/>
      <point x="297" y="-142" type="curve"/>
      <point x="253" y="-177" type="line"/>
      <point x="208" y="-98"/>
      <point x="164" y="-84"/>
      <point x="85" y="-84" type="curve"/>
      <point x="98" y="-32" type="line"/>
    </contour>
    <component base="ddhadeva"/>
  </outline>
</glyph>
<glyph name="uni0922094D_radeva" format="1">
  <advance width="397"/>
  <outline>
    <component base="ddhadeva"/>
    <component base="rashtra-deva" xOffset="148"/>
    <contour>
      <point x="267" y="447" type="move" name="top"/>
    </contour>
    <contour>
      <point x="166" y="-145" type="move" name="bottom"/>
    </contour>
  </outline>
</glyph>
<glyph name="uni0923094D" format="1">
  <advance width="365"/>
  <outline>
    <contour>
      <point x="28" y="456" type="line"/>
      <point x="18" y="408" type="line"/>
      <point x="430" y="408" type="line"/>
      <point x="440" y="456" type="line"/>
    </contour>
    <contour>
      <point x="249" y="80"/>
      <point x="305" y="126"/>
      <point x="323" y="222" type="curve" smooth="yes"/>
      <point x="365" y="436" type="line"/>
      <point x="309" y="436" type="line"/>
      <point x="269" y="230" type="line" smooth="yes"/>
      <point x="256" y="166"/>
      <point x="228" y="133"/>
      <point x="175" y="133" type="curve" smooth="yes"/>
      <point x="126" y="133"/>
      <point x="114" y="162"/>
      <point x="126" y="226" type="curve" smooth="yes"/>
      <point x="167" y="436" type="line"/>
      <point x="111" y="436" type="line"/>
      <point x="70" y="226" type="line" smooth="yes"/>
      <point x="51" y="129"/>
      <point x="89" y="80"/>
      <point x="174" y="80" type="curve" smooth="yes"/>
    </contour>
  </outline>
</glyph>
<glyph name="uni0923094D_radeva" format="1">
  <advance width="551"/>
  <outline>
    <contour>
      <point x="626" y="456" type="line"/>
      <point x="28" y="456" type="line"/>
      <point x="18" y="408" type="line"/>
      <point x="105" y="408" type="line"/>
      <point x="78" y="266" type="line" smooth="yes"/>
      <point x="59" y="169"/>
      <point x="96" y="120"/>
      <point x="181" y="120" type="curve" smooth="yes"/>
      <point x="256" y="120"/>
      <point x="312" y="166"/>
      <point x="331" y="262" type="curve" smooth="yes"/>
      <point x="359" y="408" type="line"/>
      <point x="462" y="408" type="line"/>
      <point x="423" y="211" type="line"/>
      <point x="202" y="30" type="line"/>
      <point x="203" y="30"/>
      <point x="228" y="-7"/>
      <point x="228" y="-7" type="curve"/>
      <point x="412" y="143" type="line"/>
      <point x="383" y="0" type="line"/>
      <point x="439" y="0" type="line"/>
      <point x="518" y="408" type="line"/>
      <point x="616" y="408" type="line"/>
    </contour>
    <contour>
      <point x="277" y="270" type="line" smooth="yes"/>
      <point x="264" y="206"/>
      <point x="236" y="173"/>
      <point x="183" y="173" type="curve" smooth="yes"/>
      <point x="134" y="173"/>
      <point x="121" y="202"/>
      <point x="134" y="266" type="curve" smooth="yes"/>
      <point x="161" y="408" type="line"/>
      <point x="303" y="408" type="line"/>
    </contour>
    <contour>
      <point x="497" y="447" type="move" name="top"/>
    </contour>
    <contour>
      <point x="412" y="5" type="move" name="bottom"/>
    </contour>
  </outline>
</glyph>
<glyph name="uni0926094D_bhadeva" format="1">
  <advance width="565"/>
  <outline>
    <contour>
      <point x="422" y="264"/>
      <point x="446" y="259"/>
      <point x="482" y="255" type="curve"/>
      <point x="491" y="262" type="line"/>
      <point x="518" y="408" type="line"/>
      <point x="630" y="408" type="line"/>
      <point x="640" y="456" type="line"/>
      <point x="28" y="456" type="line"/>
      <point x="18" y="408" type="line"/>
      <point x="462" y="408" type="line"/>
      <point x="442" y="315" type="line"/>
      <point x="417" y="316"/>
      <point x="398" y="317"/>
      <point x="382" y="317" type="curve" smooth="yes"/>
      <point x="282" y="317"/>
      <point x="214" y="260"/>
      <point x="197" y="177" type="curve" smooth="yes"/>
      <point x="180" y="86"/>
      <point x="227" y="35"/>
      <point x="304" y="24" type="curve"/>
      <point x="191" y="-30" type="line"/>
      <point x="164" y="37" type="line"/>
      <point x="145" y="99"/>
      <point x="119" y="134"/>
      <point x="78" y="134" type="curve" smooth="yes"/>
      <point x="32" y="134"/>
      <point x="-16" y="105"/>
      <point x="-25" y="55" type="curve" smooth="yes"/>
      <point x="-36" y="1"/>
      <point x="-2" y="-47"/>
      <point x="77" y="-44" type="curve"/>
      <point x="88" y="3" type="line"/>
      <point x="44" y="5"/>
      <point x="19" y="17"/>
      <point x="25" y="45" type="curve" smooth="yes"/>
      <point x="29" y="67"/>
      <point x="48" y="82"/>
      <point x="70" y="82" type="curve" smooth="yes"/>
      <point x="101" y="82"/>
      <point x="114" y="31"/>
      <point x="120" y="16" type="curve" smooth="yes"/>
      <point x="144" y="-52" type="line"/>
      <point x="99" y="-75" type="line"/>
      <point x="112" y="-106" type="line"/>
      <point x="199" y="-149" type="line"/>
      <point x="232" y="-131" type="line"/>
      <point x="210" y="-74" type="line"/>
      <point x="291" y="-33"/>
      <point x="393" y="20"/>
      <point x="421" y="36" type="curve"/>
      <point x="430" y="6"/>
      <point x="447" y="-52"/>
      <point x="447" y="-52" type="curve"/>
      <point x="504" y="-25" type="line"/>
      <point x="466" y="60" type="line"/>
      <point x="479" y="70"/>
      <point x="488" y="84"/>
      <point x="491" y="98" type="curve" smooth="yes"/>
      <point x="498" y="133"/>
      <point x="479" y="158"/>
      <point x="444" y="158" type="curve" smooth="yes"/>
      <point x="413" y="158"/>
      <point x="387" y="128"/>
      <point x="387" y="128" type="curve"/>
      <point x="400" y="81" type="line"/>
      <point x="386" y="76"/>
      <point x="369" y="70"/>
      <point x="345" y="70" type="curve" smooth="yes"/>
      <point x="272" y="70"/>
      <point x="237" y="104"/>
      <point x="248" y="161" type="curve" smooth="yes"/>
      <point x="261" y="228"/>
      <point x="310" y="264"/>
      <point x="387" y="264" type="curve" smooth="yes"/>
    </contour>
    <contour>
      <point x="498" y="447" type="move" name="top"/>
    </contour>
    <contour>
      <point x="480" y="-15" type="move" name="bottom"/>
    </contour>
  </outline>
</glyph>
<glyph name="uni0926094D_ghadeva" format="1">
  <advance width="506"/>
  <outline>
    <contour>
      <point x="378" y="264"/>
      <point x="402" y="259"/>
      <point x="438" y="255" type="curve"/>
      <point x="447" y="262" type="line"/>
      <point x="474" y="408" type="line"/>
      <point x="571" y="408" type="line"/>
      <point x="581" y="456" type="line"/>
      <point x="28" y="456" type="line"/>
      <point x="18" y="408" type="line"/>
      <point x="418" y="408" type="line"/>
      <point x="398" y="315" type="line"/>
      <point x="373" y="316"/>
      <point x="354" y="317"/>
      <point x="338" y="317" type="curve" smooth="yes"/>
      <point x="247" y="317"/>
      <point x="182" y="269"/>
      <point x="155" y="190" type="curve"/>
      <point x="145" y="191"/>
      <point x="133" y="194"/>
      <point x="117" y="194" type="curve" smooth="yes"/>
      <point x="67" y="194"/>
      <point x="24" y="160"/>
      <point x="16" y="116" type="curve" smooth="yes"/>
      <point x="9" y="75"/>
      <point x="21" y="42"/>
      <point x="56" y="23" type="curve"/>
      <point x="51" y="16"/>
      <point x="50" y="10"/>
      <point x="49" y="7" type="curve" smooth="yes"/>
      <point x="40" y="-42"/>
      <point x="71" y="-78"/>
      <point x="137" y="-78" type="curve" smooth="yes"/>
      <point x="207" y="-78"/>
      <point x="246" y="-46"/>
      <point x="280" y="10" type="curve"/>
      <point x="293" y="12" type="line" smooth="yes"/>
      <point x="325" y="12"/>
      <point x="356" y="20"/>
      <point x="377" y="30" type="curve"/>
      <point x="386" y="0"/>
      <point x="402" y="-57"/>
      <point x="402" y="-57" type="curve"/>
      <point x="459" y="-30" type="line"/>
      <point x="421" y="55" type="line"/>
      <point x="434" y="65"/>
      <point x="443" y="79"/>
      <point x="446" y="93" type="curve" smooth="yes"/>
      <point x="453" y="128"/>
      <point x="434" y="153"/>
      <point x="399" y="153" type="curve" smooth="yes"/>
      <point x="368" y="153"/>
      <point x="342" y="123"/>
      <point x="342" y="123" type="curve"/>
      <point x="356" y="75" type="line"/>
      <point x="339" y="70"/>
      <point x="320" y="64"/>
      <point x="300" y="64" type="curve" smooth="yes"/>
      <point x="226" y="63"/>
      <point x="192" y="99"/>
      <point x="204" y="161" type="curve" smooth="yes"/>
      <point x="217" y="228"/>
      <point x="266" y="264"/>
      <point x="343" y="264" type="curve" smooth="yes"/>
    </contour>
    <contour>
      <point x="210" y="-4"/>
      <point x="185" y="-32"/>
      <point x="137" y="-32" type="curve" smooth="yes"/>
      <point x="112" y="-32"/>
      <point x="95" y="-19"/>
      <point x="99" y="-2" type="curve" smooth="yes"/>
      <point x="103" y="22"/>
      <point x="128" y="31"/>
      <point x="150" y="41" type="curve"/>
      <point x="122" y="79" type="line"/>
      <point x="107" y="73"/>
      <point x="94" y="68"/>
      <point x="83" y="60" type="curve"/>
      <point x="63" y="70"/>
      <point x="57" y="84"/>
      <point x="61" y="105" type="curve" smooth="yes"/>
      <point x="67" y="132"/>
      <point x="93" y="148"/>
      <point x="120" y="148" type="curve" smooth="yes"/>
      <point x="133" y="148"/>
      <point x="142" y="146"/>
      <point x="151" y="144" type="curve"/>
      <point x="144" y="82"/>
      <point x="178" y="39"/>
      <point x="231" y="24" type="curve"/>
    </contour>
    <contour>
      <point x="454" y="447" type="move" name="top"/>
    </contour>
    <contour>
      <point x="429" y="-27" type="move" name="bottom"/>
    </contour>
  </outline>
</glyph>
<glyph name="uni0926094D_madeva" format="1">
  <advance width="581"/>
  <outline>
    <contour>
      <point x="656" y="456" type="line"/>
      <point x="28" y="456" type="line"/>
      <point x="18" y="408" type="line"/>
      <point x="283" y="408" type="line"/>
      <point x="269" y="343" type="line"/>
      <point x="248" y="345"/>
      <point x="236" y="346"/>
      <point x="201" y="346" type="curve" smooth="yes"/>
      <point x="126" y="346"/>
      <point x="73" y="324"/>
      <point x="61" y="264" type="curve" smooth="yes"/>
      <point x="42" y="164"/>
      <point x="145" y="161"/>
      <point x="186" y="164" type="curve" smooth="yes"/>
      <point x="245" y="171"/>
      <point x="269" y="155"/>
      <point x="262" y="118" type="curve" smooth="yes"/>
      <point x="258" y="96" type="line"/>
      <point x="196" y="96" type="line"/>
      <point x="190" y="63" type="line"/>
      <point x="251" y="-32" type="line"/>
      <point x="288" y="-32" type="line"/>
      <point x="303" y="48" type="line"/>
      <point x="422" y="48" type="line"/>
      <point x="399" y="-70" type="line"/>
      <point x="455" y="-70" type="line"/>
      <point x="548" y="408" type="line"/>
      <point x="646" y="408" type="line"/>
    </contour>
    <contour>
      <point x="432" y="96" type="line"/>
      <point x="312" y="96" type="line"/>
      <point x="316" y="118" type="line" smooth="yes"/>
      <point x="328" y="179"/>
      <point x="281" y="220"/>
      <point x="206" y="216" type="curve" smooth="yes"/>
      <point x="155" y="213"/>
      <point x="104" y="210"/>
      <point x="112" y="251" type="curve" smooth="yes"/>
      <point x="118" y="282"/>
      <point x="145" y="294"/>
      <point x="197" y="294" type="curve" smooth="yes"/>
      <point x="257" y="294"/>
      <point x="273" y="289"/>
      <point x="307" y="285" type="curve"/>
      <point x="318" y="292" type="line"/>
      <point x="339" y="408" type="line"/>
      <point x="492" y="408" type="line"/>
    </contour>
    <contour>
      <point x="528" y="447" type="move" name="top"/>
    </contour>
    <contour>
      <point x="428" y="-65" type="move" name="bottom"/>
    </contour>
  </outline>
</glyph>
<glyph name="uni0927094D_radeva" format="1">
  <advance width="469"/>
  <outline>
    <contour>
      <point x="544" y="456" type="line"/>
      <point x="313" y="456" type="line"/>
      <point x="304" y="408" type="line"/>
      <point x="381" y="408" type="line"/>
      <point x="331" y="163" type="line"/>
      <point x="304" y="145"/>
      <point x="258" y="120"/>
      <point x="201" y="120" type="curve" smooth="yes"/>
      <point x="160" y="120"/>
      <point x="116" y="128"/>
      <point x="124" y="166" type="curve" smooth="yes"/>
      <point x="132" y="208"/>
      <point x="185" y="223"/>
      <point x="254" y="233" type="curve"/>
      <point x="243" y="282" type="line"/>
      <point x="214" y="279"/>
      <point x="188" y="274"/>
      <point x="164" y="266" type="curve"/>
      <point x="149" y="276"/>
      <point x="106" y="309"/>
      <point x="116" y="358" type="curve" smooth="yes"/>
      <point x="125" y="403"/>
      <point x="153" y="418"/>
      <point x="178" y="418" type="curve" smooth="yes"/>
      <point x="194" y="418"/>
      <point x="204" y="410"/>
      <point x="201" y="394" type="curve" smooth="yes"/>
      <point x="196" y="370"/>
      <point x="178" y="361"/>
      <point x="161" y="352" type="curve"/>
      <point x="183" y="310" type="line"/>
      <point x="227" y="330"/>
      <point x="243" y="355"/>
      <point x="249" y="385" type="curve" smooth="yes"/>
      <point x="258" y="431"/>
      <point x="232" y="466"/>
      <point x="173" y="466" type="curve" smooth="yes"/>
      <point x="117" y="466"/>
      <point x="76" y="428"/>
      <point x="64" y="368" type="curve" smooth="yes"/>
      <point x="50" y="298"/>
      <point x="93" y="256"/>
      <point x="110" y="242" type="curve"/>
      <point x="84" y="222"/>
      <point x="74" y="201"/>
      <point x="70" y="179" type="curve" smooth="yes"/>
      <point x="57" y="114"/>
      <point x="99" y="79"/>
      <point x="169" y="72" type="curve"/>
      <point x="32" y="17" type="line"/>
      <point x="61" y="-22" type="line"/>
      <point x="321" y="100" type="line"/>
      <point x="301" y="0" type="line"/>
      <point x="357" y="0" type="line"/>
      <point x="437" y="408" type="line"/>
      <point x="535" y="408" type="line"/>
    </contour>
    <contour>
      <point x="415" y="447" type="move" name="top"/>
    </contour>
    <contour>
      <point x="330" y="5" type="move" name="bottom"/>
    </contour>
  </outline>
</glyph>
<glyph name="uni0928094D" format="1">
  <advance width="245"/>
  <outline>
    <contour>
      <point x="28" y="456" type="line"/>
      <point x="18" y="408" type="line"/>
      <point x="310" y="408" type="line"/>
      <point x="320" y="456" type="line"/>
    </contour>
    <contour>
      <point x="46" y="251" type="line"/>
      <point x="40" y="214" type="line"/>
      <point x="84" y="112" type="line"/>
      <point x="123" y="112" type="line"/>
      <point x="150" y="251" type="line"/>
    </contour>
    <contour>
      <point x="103" y="251" type="line"/>
      <point x="94" y="203" type="line"/>
      <point x="314" y="203" type="line"/>
      <point x="323" y="251" type="line"/>
    </contour>
  </outline>
</glyph>
<glyph name="uni0928094D_khadeva" format="1">
  <advance width="821"/>
  <outline>
    <contour>
      <point x="896" y="456" type="line"/>
      <point x="28" y="456" type="line"/>
      <point x="18" y="408" type="line"/>
      <point x="402" y="410" type="line"/>
      <point x="417" y="392"/>
      <point x="431" y="362"/>
      <point x="422" y="311" type="curve" smooth="yes"/>
      <point x="410" y="250"/>
      <point x="361" y="224"/>
      <point x="326" y="214" type="curve"/>
      <point x="304" y="246" type="line"/>
      <point x="45" y="246" type="line"/>
      <point x="39" y="209" type="line"/>
      <point x="83" y="107" type="line"/>
      <point x="122" y="107" type="line"/>
      <point x="140" y="198" type="line"/>
      <point x="269" y="198" type="line"/>
      <point x="407" y="-15" type="line"/>
      <point x="460" y="18" type="line"/>
      <point x="358" y="169" type="line"/>
      <point x="405" y="187"/>
      <point x="459" y="226"/>
      <point x="473" y="299" type="curve" smooth="yes"/>
      <point x="483" y="351"/>
      <point x="474" y="384"/>
      <point x="461" y="406" type="curve"/>
      <point x="735" y="408" type="line"/>
      <point x="716" y="317" type="line"/>
      <point x="696" y="326"/>
      <point x="673" y="334"/>
      <point x="640" y="334" type="curve" smooth="yes"/>
      <point x="569" y="334"/>
      <point x="503" y="285"/>
      <point x="488" y="207" type="curve" smooth="yes"/>
      <point x="472" y="123"/>
      <point x="522" y="70"/>
      <point x="597" y="70" type="curve" smooth="yes"/>
      <point x="626" y="70"/>
      <point x="651" y="74"/>
      <point x="674" y="82" type="curve"/>
      <point x="656" y="0" type="line"/>
      <point x="709" y="0" type="line"/>
      <point x="788" y="408" type="line"/>
      <point x="886" y="408" type="line"/>
    </contour>
    <contour>
      <point x="561" y="121"/>
      <point x="532" y="146"/>
      <point x="542" y="197" type="curve" smooth="yes"/>
      <point x="553" y="253"/>
      <point x="596" y="283"/>
      <point x="642" y="283" type="curve" smooth="yes"/>
      <point x="673" y="283"/>
      <point x="694" y="274"/>
      <point x="709" y="264" type="curve"/>
      <point x="681" y="139" type="line"/>
      <point x="663" y="130"/>
      <point x="639" y="121"/>
      <point x="608" y="121" type="curve" smooth="yes"/>
    </contour>
    <contour>
      <point x="770" y="447" type="move" name="top"/>
    </contour>
    <contour>
      <point x="684" y="5" type="move" name="bottom"/>
    </contour>
  </outline>
</glyph>
<glyph name="uni0928094D_radeva" format="1">
  <advance width="408"/>
  <outline>
    <contour>
      <point x="483" y="456" type="line"/>
      <point x="28" y="456" type="line"/>
      <point x="18" y="408" type="line"/>
      <point x="319" y="408" type="line"/>
      <point x="291" y="261" type="line"/>
      <point x="48" y="261" type="line"/>
      <point x="42" y="224" type="line"/>
      <point x="86" y="122" type="line"/>
      <point x="125" y="122" type="line"/>
      <point x="142" y="213" type="line"/>
      <point x="281" y="213" type="line"/>
      <point x="275" y="185" type="line"/>
      <point x="62" y="30" type="line"/>
      <point x="63" y="30"/>
      <point x="88" y="-7"/>
      <point x="88" y="-7" type="curve"/>
      <point x="265" y="122" type="line"/>
      <point x="240" y="0" type="line"/>
      <point x="296" y="0" type="line"/>
      <point x="375" y="408" type="line"/>
      <point x="473" y="408" type="line"/>
    </contour>
    <contour>
      <point x="354" y="447" type="move" name="top"/>
    </contour>
    <contour>
      <point x="269" y="5" type="move" name="bottom"/>
    </contour>
  </outline>
</glyph>
<glyph name="uni092A094D0932" format="1">
  <advance width="770"/>
  <outline>
    <contour>
      <point x="845" y="456" type="line"/>
      <point x="28" y="456" type="line"/>
      <point x="18" y="408" type="line"/>
      <point x="100" y="408" type="line"/>
      <point x="69" y="246" type="line" smooth="yes"/>
      <point x="53" y="166"/>
      <point x="92" y="103"/>
      <point x="194" y="103" type="curve" smooth="yes"/>
      <point x="218" y="103"/>
      <point x="247" y="108"/>
      <point x="273" y="117" type="curve"/>
      <point x="281" y="46"/>
      <point x="327" y="-11"/>
      <point x="327" y="-11" type="curve"/>
      <point x="385" y="9" type="line"/>
      <point x="367" y="34"/>
      <point x="315" y="100"/>
      <point x="328" y="167" type="curve" smooth="yes"/>
      <point x="338" y="219"/>
      <point x="375" y="256"/>
      <point x="424" y="256" type="curve" smooth="yes"/>
      <point x="453" y="256"/>
      <point x="469" y="235"/>
      <point x="477" y="216" type="curve"/>
      <point x="469" y="200"/>
      <point x="465" y="184"/>
      <point x="462" y="169" type="curve" smooth="yes"/>
      <point x="459" y="156"/>
      <point x="456" y="130"/>
      <point x="456" y="120" type="curve"/>
      <point x="507" y="108" type="line"/>
      <point x="508" y="118"/>
      <point x="509" y="138"/>
      <point x="513" y="157" type="curve" smooth="yes"/>
      <point x="524" y="215"/>
      <point x="559" y="256"/>
      <point x="617" y="255" type="curve" smooth="yes"/>
      <point x="629" y="255"/>
      <point x="641" y="253"/>
      <point x="652" y="248" type="curve"/>
      <point x="602" y="0" type="line"/>
      <point x="658" y="0" type="line"/>
      <point x="737" y="408" type="line"/>
      <point x="835" y="408" type="line"/>
    </contour>
    <contour>
      <point x="659" y="301" type="line"/>
      <point x="645" y="306"/>
      <point x="630" y="308"/>
      <point x="615" y="308" type="curve" smooth="yes"/>
      <point x="580" y="308"/>
      <point x="543" y="297"/>
      <point x="511" y="266" type="curve"/>
      <point x="495" y="289"/>
      <point x="467" y="310"/>
      <point x="427" y="310" type="curve" smooth="yes"/>
      <point x="346" y="310"/>
      <point x="288" y="255"/>
      <point x="272" y="174" type="curve" smooth="yes"/>
      <point x="268" y="166" type="line"/>
      <point x="247" y="159"/>
      <point x="222" y="153"/>
      <point x="194" y="153" type="curve" smooth="yes"/>
      <point x="142" y="153"/>
      <point x="113" y="186"/>
      <point x="124" y="242" type="curve" smooth="yes"/>
      <point x="156" y="408" type="line"/>
      <point x="681" y="408" type="line"/>
    </contour>
    <contour>
      <point x="717" y="447" type="move" name="top"/>
    </contour>
    <contour>
      <point x="631" y="5" type="move" name="bottom"/>
    </contour>
  </outline>
</glyph>
<glyph name="uni092C094D_dhadeva" format="1">
  <advance width="766"/>
  <outline>
    <contour>
      <point x="841" y="456" type="line"/>
      <point x="610" y="456" type="line"/>
      <point x="600" y="408" type="line"/>
      <point x="677" y="408" type="line"/>
      <point x="627" y="159" type="line"/>
      <point x="600" y="141"/>
      <point x="554" y="116"/>
      <point x="497" y="116" type="curve" smooth="yes"/>
      <point x="456" y="116"/>
      <point x="413" y="128"/>
      <point x="420" y="166" type="curve" smooth="yes"/>
      <point x="429" y="208"/>
      <point x="481" y="223"/>
      <point x="550" y="233" type="curve"/>
      <point x="540" y="282" type="line"/>
      <point x="510" y="279"/>
      <point x="484" y="274"/>
      <point x="461" y="266" type="curve"/>
      <point x="446" y="276"/>
      <point x="403" y="309"/>
      <point x="413" y="358" type="curve" smooth="yes"/>
      <point x="421" y="403"/>
      <point x="449" y="418"/>
      <point x="474" y="418" type="curve" smooth="yes"/>
      <point x="490" y="418"/>
      <point x="501" y="410"/>
      <point x="498" y="394" type="curve" smooth="yes"/>
      <point x="493" y="370"/>
      <point x="475" y="361"/>
      <point x="457" y="352" type="curve"/>
      <point x="479" y="310" type="line"/>
      <point x="524" y="330"/>
      <point x="540" y="355"/>
      <point x="546" y="385" type="curve" smooth="yes"/>
      <point x="555" y="431"/>
      <point x="529" y="466"/>
      <point x="470" y="466" type="curve" smooth="yes"/>
      <point x="414" y="466"/>
      <point x="372" y="428"/>
      <point x="361" y="368" type="curve" smooth="yes"/>
      <point x="347" y="298"/>
      <point x="390" y="256"/>
      <point x="407" y="242" type="curve"/>
      <point x="381" y="222"/>
      <point x="371" y="201"/>
      <point x="367" y="179" type="curve" smooth="yes"/>
      <point x="352" y="105"/>
      <point x="405" y="63"/>
      <point x="497" y="63" type="curve" smooth="yes"/>
      <point x="545" y="63"/>
      <point x="591" y="80"/>
      <point x="618" y="94" type="curve"/>
      <point x="598" y="0" type="line"/>
      <point x="654" y="0" type="line"/>
      <point x="733" y="408" type="line"/>
      <point x="831" y="408" type="line"/>
    </contour>
    <contour>
      <point x="347" y="456" type="line"/>
      <point x="28" y="456" type="line"/>
      <point x="18" y="408" type="line"/>
      <point x="337" y="408" type="line"/>
    </contour>
    <contour>
      <point x="119" y="339"/>
      <point x="47" y="286"/>
      <point x="31" y="207" type="curve" smooth="yes"/>
      <point x="14" y="118"/>
      <point x="70" y="65"/>
      <point x="156" y="65" type="curve" smooth="yes"/>
      <point x="233" y="65"/>
      <point x="308" y="116"/>
      <point x="323" y="197" type="curve" smooth="yes"/>
      <point x="340" y="285"/>
      <point x="288" y="339"/>
      <point x="201" y="339" type="curve" smooth="yes"/>
    </contour>
    <contour>
      <point x="148" y="281" type="line"/>
      <point x="164" y="286"/>
      <point x="180" y="290"/>
      <point x="198" y="290" type="curve" smooth="yes"/>
      <point x="249" y="290"/>
      <point x="284" y="262"/>
      <point x="273" y="207" type="curve" smooth="yes"/>
      <point x="269" y="186"/>
      <point x="261" y="171"/>
      <point x="253" y="159" type="curve"/>
    </contour>
    <contour>
      <point x="107" y="114"/>
      <point x="71" y="141"/>
      <point x="82" y="197" type="curve" smooth="yes"/>
      <point x="87" y="221"/>
      <point x="96" y="238"/>
      <point x="107" y="251" type="curve"/>
      <point x="212" y="125" type="line"/>
      <point x="195" y="118"/>
      <point x="176" y="114"/>
      <point x="156" y="114" type="curve" smooth="yes"/>
    </contour>
    <contour>
      <point x="712" y="447" type="move" name="top"/>
    </contour>
    <contour>
      <point x="627" y="5" type="move" name="bottom"/>
    </contour>
  </outline>
</glyph>
<glyph name="uni092C094D_shadeva" format="1">
  <advance width="850"/>
  <outline>
    <contour>
      <point x="638" y="412"/>
      <point x="594" y="466"/>
      <point x="528" y="466" type="curve" smooth="yes"/>
      <point x="471" y="466"/>
      <point x="421" y="427"/>
      <point x="411" y="373" type="curve" smooth="yes"/>
      <point x="402" y="331"/>
      <point x="421" y="298"/>
      <point x="464" y="269" type="curve"/>
      <point x="498" y="310" type="line"/>
      <point x="476" y="325"/>
      <point x="457" y="341"/>
      <point x="462" y="363" type="curve" smooth="yes"/>
      <point x="468" y="396"/>
      <point x="495" y="413"/>
      <point x="525" y="413" type="curve" smooth="yes"/>
      <point x="559" y="413"/>
      <point x="576" y="381"/>
      <point x="570" y="334" type="curve" smooth="yes"/>
      <point x="558" y="254"/>
      <point x="483" y="212"/>
      <point x="435" y="189" type="curve"/>
      <point x="395" y="240" type="line"/>
      <point x="367" y="231"/>
      <point x="352" y="213"/>
      <point x="349" y="196" type="curve" smooth="yes"/>
      <point x="342" y="157"/>
      <point x="369" y="130"/>
      <point x="414" y="131" type="curve"/>
      <point x="518" y="-15" type="line"/>
      <point x="561" y="21" type="line"/>
      <point x="466" y="148" type="line"/>
      <point x="532" y="185"/>
      <point x="603" y="232"/>
      <point x="622" y="327" type="curve" smooth="yes"/>
    </contour>
    <contour>
      <point x="18" y="408" type="line"/>
      <point x="367" y="408" type="line"/>
      <point x="377" y="456" type="line"/>
      <point x="28" y="456" type="line"/>
    </contour>
    <contour>
      <point x="925" y="456" type="line"/>
      <point x="679" y="456" type="line"/>
      <point x="669" y="408" type="line"/>
      <point x="761" y="408" type="line"/>
      <point x="682" y="0" type="line"/>
      <point x="738" y="0" type="line"/>
      <point x="817" y="408" type="line"/>
      <point x="915" y="408" type="line"/>
    </contour>
    <contour>
      <point x="119" y="339"/>
      <point x="47" y="286"/>
      <point x="31" y="207" type="curve" smooth="yes"/>
      <point x="14" y="118"/>
      <point x="70" y="65"/>
      <point x="156" y="65" type="curve" smooth="yes"/>
      <point x="233" y="65"/>
      <point x="308" y="116"/>
      <point x="323" y="197" type="curve" smooth="yes"/>
      <point x="340" y="285"/>
      <point x="288" y="339"/>
      <point x="201" y="339" type="curve" smooth="yes"/>
    </contour>
    <contour>
      <point x="148" y="281" type="line"/>
      <point x="164" y="286"/>
      <point x="180" y="290"/>
      <point x="198" y="290" type="curve" smooth="yes"/>
      <point x="249" y="290"/>
      <point x="284" y="262"/>
      <point x="273" y="207" type="curve" smooth="yes"/>
      <point x="269" y="186"/>
      <point x="261" y="171"/>
      <point x="253" y="159" type="curve"/>
    </contour>
    <contour>
      <point x="107" y="114"/>
      <point x="71" y="141"/>
      <point x="82" y="197" type="curve" smooth="yes"/>
      <point x="87" y="221"/>
      <point x="96" y="238"/>
      <point x="107" y="251" type="curve"/>
      <point x="212" y="125" type="line"/>
      <point x="195" y="118"/>
      <point x="176" y="114"/>
      <point x="156" y="114" type="curve" smooth="yes"/>
    </contour>
    <contour>
      <point x="796" y="447" type="move" name="top"/>
    </contour>
    <contour>
      <point x="711" y="5" type="move" name="bottom"/>
    </contour>
  </outline>
</glyph>
<glyph name="uni092C094D_zadeva" format="1">
  <advance width="795"/>
  <outline>
    <component base="uni092C094D_jadeva"/>
    <component base="nuktadeva" xOffset="339" yOffset="40"/>
    <contour>
      <point x="671" y="447" type="move" name="top"/>
    </contour>
    <contour>
      <point x="586" y="5" type="move" name="bottom"/>
    </contour>
  </outline>
</glyph>
<glyph name="uni092D094D0930094D" format="1">
  <advance width="317"/>
  <outline>
    <contour>
      <point x="159" y="-28" type="line"/>
      <point x="159" y="-28"/>
      <point x="395" y="183"/>
      <point x="395" y="183" type="curve"/>
      <point x="373" y="214" type="line"/>
      <point x="127" y="4" type="line"/>
    </contour>
    <contour>
      <point x="185" y="150" type="line"/>
      <point x="218" y="318" type="line" smooth="yes"/>
      <point x="235" y="410"/>
      <point x="224" y="466"/>
      <point x="146" y="466" type="curve" smooth="yes"/>
      <point x="103" y="466"/>
      <point x="58" y="438"/>
      <point x="47" y="384" type="curve" smooth="yes"/>
      <point x="39" y="342"/>
      <point x="58" y="303"/>
      <point x="102" y="280" type="curve"/>
      <point x="135" y="320" type="line"/>
      <point x="113" y="334"/>
      <point x="95" y="349"/>
      <point x="99" y="374" type="curve" smooth="yes"/>
      <point x="104" y="397"/>
      <point x="123" y="413"/>
      <point x="144" y="413" type="curve" smooth="yes"/>
      <point x="188" y="413"/>
      <point x="167" y="341"/>
      <point x="163" y="322" type="curve" smooth="yes"/>
      <point x="130" y="150" type="line"/>
    </contour>
    <contour>
      <point x="79" y="214" type="line"/>
      <point x="74" y="181" type="line"/>
      <point x="133" y="85" type="line"/>
      <point x="132" y="85"/>
      <point x="173" y="87"/>
      <point x="173" y="87" type="curve"/>
      <point x="197" y="214" type="line"/>
    </contour>
    <contour>
      <point x="166" y="214" type="line"/>
      <point x="157" y="166" type="line"/>
      <point x="366" y="166" type="line"/>
      <point x="375" y="214" type="line"/>
    </contour>
    <contour>
      <point x="311" y="456" type="line"/>
      <point x="302" y="408" type="line"/>
      <point x="381" y="408" type="line"/>
      <point x="390" y="456" type="line"/>
    </contour>
  </outline>
</glyph>
<glyph name="uni092E094D_bhadeva" format="1">
  <advance width="737"/>
  <outline>
    <contour>
      <point x="812" y="456" type="line"/>
      <point x="562" y="456" type="line"/>
      <point x="552" y="408" type="line"/>
      <point x="648" y="408" type="line"/>
      <point x="608" y="199" type="line"/>
      <point x="445" y="199" type="line"/>
      <point x="468" y="318" type="line" smooth="yes"/>
      <point x="486" y="410"/>
      <point x="470" y="466"/>
      <point x="397" y="466" type="curve" smooth="yes"/>
      <point x="354" y="466"/>
      <point x="309" y="436"/>
      <point x="299" y="384" type="curve" smooth="yes"/>
      <point x="291" y="345"/>
      <point x="310" y="307"/>
      <point x="354" y="281" type="curve"/>
      <point x="385" y="320" type="line"/>
      <point x="363" y="334"/>
      <point x="345" y="349"/>
      <point x="350" y="374" type="curve" smooth="yes"/>
      <point x="354" y="397"/>
      <point x="373" y="413"/>
      <point x="394" y="413" type="curve" smooth="yes"/>
      <point x="438" y="413"/>
      <point x="417" y="341"/>
      <point x="414" y="322" type="curve" smooth="yes"/>
      <point x="390" y="199" type="line"/>
      <point x="153" y="199" type="line"/>
      <point x="193" y="408" type="line"/>
      <point x="260" y="408" type="line"/>
      <point x="270" y="456" type="line"/>
      <point x="28" y="456" type="line"/>
      <point x="18" y="408" type="line"/>
      <point x="138" y="408" type="line"/>
      <point x="98" y="199" type="line"/>
      <point x="36" y="199" type="line"/>
      <point x="30" y="166" type="line"/>
      <point x="91" y="71" type="line"/>
      <point x="128" y="71" type="line"/>
      <point x="143" y="151" type="line"/>
      <point x="329" y="151" type="line"/>
      <point x="383" y="70" type="line"/>
      <point x="420" y="70" type="line"/>
      <point x="435" y="151" type="line"/>
      <point x="598" y="151" type="line"/>
      <point x="569" y="0" type="line"/>
      <point x="625" y="0" type="line"/>
      <point x="704" y="408" type="line"/>
      <point x="802" y="408" type="line"/>
    </contour>
    <contour>
      <point x="683" y="447" type="move" name="top"/>
    </contour>
    <contour>
      <point x="598" y="5" type="move" name="bottom"/>
    </contour>
  </outline>
</glyph>
<glyph name="uni092E094D_radeva" format="1">
  <advance width="468"/>
  <outline>
    <contour>
      <point x="543" y="456" type="line"/>
      <point x="28" y="456" type="line"/>
      <point x="18" y="408" type="line"/>
      <point x="138" y="408" type="line"/>
      <point x="101" y="214" type="line"/>
      <point x="39" y="214" type="line"/>
      <point x="33" y="181" type="line"/>
      <point x="95" y="91" type="line"/>
      <point x="132" y="91" type="line"/>
      <point x="146" y="166" type="line"/>
      <point x="300" y="166" type="line"/>
      <point x="64" y="13" type="line"/>
      <point x="89" y="-28" type="line"/>
      <point x="329" y="137" type="line"/>
      <point x="301" y="0" type="line"/>
      <point x="357" y="0" type="line"/>
      <point x="436" y="408" type="line"/>
      <point x="533" y="408" type="line"/>
    </contour>
    <contour>
      <point x="343" y="214" type="line"/>
      <point x="156" y="214" type="line"/>
      <point x="193" y="408" type="line"/>
      <point x="380" y="408" type="line"/>
    </contour>
    <contour>
      <point x="415" y="447" type="move" name="top"/>
    </contour>
    <contour>
      <point x="330" y="5" type="move" name="bottom"/>
    </contour>
  </outline>
</glyph>
<glyph name="uni092F094D_radeva" format="1">
  <advance width="446"/>
  <outline>
    <contour>
      <point x="521" y="456" type="line"/>
      <point x="28" y="456" type="line"/>
      <point x="18" y="408" type="line"/>
      <point x="124" y="410" type="line"/>
      <point x="144" y="377"/>
      <point x="153" y="342"/>
      <point x="147" y="312" type="curve" smooth="yes"/>
      <point x="137" y="260"/>
      <point x="83" y="231"/>
      <point x="48" y="214" type="curve"/>
      <point x="34" y="186" type="line"/>
      <point x="51" y="142"/>
      <point x="92" y="98"/>
      <point x="162" y="88" type="curve"/>
      <point x="42" y="32" type="line"/>
      <point x="42" y="32"/>
      <point x="68" y="-8"/>
      <point x="68" y="-8" type="curve"/>
      <point x="300" y="111" type="line"/>
      <point x="278" y="0" type="line"/>
      <point x="334" y="0" type="line"/>
      <point x="413" y="408" type="line"/>
      <point x="511" y="408" type="line"/>
    </contour>
    <contour>
      <point x="310" y="176" type="line"/>
      <point x="277" y="151"/>
      <point x="235" y="138"/>
      <point x="194" y="138" type="curve" smooth="yes"/>
      <point x="155" y="138"/>
      <point x="122" y="153"/>
      <point x="103" y="179" type="curve"/>
      <point x="148" y="209"/>
      <point x="188" y="242"/>
      <point x="200" y="301" type="curve" smooth="yes"/>
      <point x="206" y="336"/>
      <point x="201" y="373"/>
      <point x="183" y="406" type="curve"/>
      <point x="357" y="408" type="line"/>
    </contour>
    <contour>
      <point x="392" y="447" type="move" name="top"/>
    </contour>
    <contour>
      <point x="307" y="5" type="move" name="bottom"/>
    </contour>
  </outline>
</glyph>
<glyph name="uni0930094D" format="1">
  <advance width="246"/>
  <outline>
    <contour>
      <point x="116" y="460"/>
      <point x="67" y="493"/>
      <point x="67" y="540" type="curve" smooth="yes"/>
      <point x="67" y="592"/>
      <point x="114" y="602"/>
      <point x="144" y="602" type="curve" smooth="yes"/>
      <point x="168" y="602"/>
      <point x="197" y="589"/>
      <point x="210" y="580" type="curve"/>
      <point x="210" y="580"/>
      <point x="246" y="622"/>
      <point x="246" y="622" type="curve"/>
      <point x="223" y="636"/>
      <point x="188" y="654"/>
      <point x="147" y="654" type="curve" smooth="yes"/>
      <point x="61" y="654"/>
      <point x="15" y="608"/>
      <point x="15" y="541" type="curve" smooth="yes"/>
      <point x="15" y="496"/>
      <point x="48" y="459"/>
      <point x="80" y="438" type="curve"/>
      <point x="148" y="436" type="line"/>
    </contour>
    <contour>
      <point x="89" y="447" type="move" name="_top"/>
    </contour>
  </outline>
</glyph>
<glyph name="uni0930094D_anusvaradeva" format="1">
  <advance width="246"/>
  <outline>
    <contour>
      <point x="116" y="460"/>
      <point x="58" y="494"/>
      <point x="68" y="545" type="curve" smooth="yes"/>
      <point x="77" y="592"/>
      <point x="111" y="602"/>
      <point x="148" y="602" type="curve" smooth="yes"/>
      <point x="171" y="602"/>
      <point x="197" y="591"/>
      <point x="210" y="581" type="curve"/>
      <point x="245" y="622" type="line"/>
      <point x="222" y="640"/>
      <point x="186" y="654"/>
      <point x="147" y="654" type="curve" smooth="yes"/>
      <point x="88" y="654"/>
      <point x="29" y="624"/>
      <point x="17" y="562" type="curve" smooth="yes"/>
      <point x="7" y="507"/>
      <point x="36" y="462"/>
      <point x="80" y="438" type="curve"/>
      <point x="148" y="436" type="line"/>
    </contour>
    <contour>
      <point x="150" y="512"/>
      <point x="161" y="523"/>
      <point x="163" y="535" type="curve" smooth="yes"/>
      <point x="167" y="554"/>
      <point x="157" y="569"/>
      <point x="137" y="569" type="curve" smooth="yes"/>
      <point x="122" y="569"/>
      <point x="111" y="558"/>
      <point x="108" y="545" type="curve" smooth="yes"/>
      <point x="105" y="527"/>
      <point x="115" y="512"/>
      <point x="134" y="512" type="curve" smooth="yes"/>
    </contour>
    <contour>
      <point x="89" y="447" type="move" name="_top"/>
    </contour>
  </outline>
</glyph>
<glyph name="uni0930094D_uuvowelsigndeva" format="1">
  <advance width="417"/>
  <outline>
    <contour>
      <point x="492" y="456" type="line"/>
      <point x="28" y="456" type="line"/>
      <point x="18" y="408" type="line"/>
      <point x="156" y="410" type="line"/>
      <point x="171" y="392"/>
      <point x="185" y="362"/>
      <point x="176" y="311" type="curve" smooth="yes"/>
      <point x="163" y="248"/>
      <point x="111" y="222"/>
      <point x="76" y="213" type="curve"/>
      <point x="59" y="244" type="line"/>
      <point x="13" y="212" type="line"/>
      <point x="14" y="212"/>
      <point x="138" y="-17"/>
      <point x="138" y="-17" type="curve"/>
      <point x="193" y="14" type="line"/>
      <point x="105" y="166" type="line"/>
      <point x="126" y="173"/>
      <point x="147" y="183"/>
      <point x="167" y="201" type="curve"/>
      <point x="166" y="162"/>
      <point x="196" y="127"/>
      <point x="250" y="127" type="curve" smooth="yes"/>
      <point x="270" y="127"/>
      <point x="291" y="134"/>
      <point x="305" y="141" type="curve"/>
      <point x="291" y="187" type="line"/>
      <point x="281" y="182"/>
      <point x="265" y="176"/>
      <point x="247" y="176" type="curve" smooth="yes"/>
      <point x="223" y="176"/>
      <point x="211" y="191"/>
      <point x="216" y="214" type="curve" smooth="yes"/>
      <point x="222" y="248"/>
      <point x="249" y="260"/>
      <point x="277" y="260" type="curve" smooth="yes"/>
      <point x="321" y="260"/>
      <point x="340" y="196"/>
      <point x="368" y="128" type="curve"/>
      <point x="411" y="147" type="line"/>
      <point x="391" y="204"/>
      <point x="355" y="310"/>
      <point x="278" y="310" type="curve" smooth="yes"/>
      <point x="263" y="310"/>
      <point x="244" y="308"/>
      <point x="225" y="299" type="curve"/>
      <point x="229" y="302" type="line" smooth="yes"/>
      <point x="237" y="351"/>
      <point x="228" y="384"/>
      <point x="215" y="406" type="curve"/>
      <point x="482" y="408" type="line"/>
    </contour>
    <contour>
      <point x="173" y="447" type="move" name="top"/>
    </contour>
  </outline>
</glyph>
<glyph name="uni0931094D0939094D_rvocalicvow" format="1">
  <advance width="556"/>
  <outline>
    <contour>
      <point x="433" y="295"/>
      <point x="443" y="290"/>
      <point x="478" y="286" type="curve"/>
      <point x="488" y="293" type="line"/>
      <point x="509" y="408" type="line"/>
      <point x="621" y="408" type="line"/>
      <point x="631" y="456" type="line"/>
      <point x="28" y="456" type="line"/>
      <point x="18" y="408" type="line"/>
      <point x="453" y="408" type="line"/>
      <point x="439" y="342" type="line"/>
      <point x="413" y="345"/>
      <point x="411" y="346"/>
      <point x="376" y="346" type="curve" smooth="yes"/>
      <point x="305" y="346"/>
      <point x="247" y="319"/>
      <point x="234" y="254" type="curve" smooth="yes"/>
      <point x="230" y="230"/>
      <point x="233" y="208"/>
      <point x="249" y="182" type="curve"/>
      <point x="225" y="156"/>
      <point x="194" y="126"/>
      <point x="139" y="126" type="curve" smooth="yes"/>
      <point x="90" y="126"/>
      <point x="69" y="150"/>
      <point x="56" y="175" type="curve"/>
      <point x="13" y="152" type="line"/>
      <point x="25" y="113"/>
      <point x="69" y="77"/>
      <point x="137" y="77" type="curve" smooth="yes"/>
      <point x="155" y="77"/>
      <point x="174" y="79"/>
      <point x="193" y="85" type="curve"/>
      <point x="187" y="71" type="line"/>
      <point x="162" y="-57"/>
      <point x="244" y="-128"/>
      <point x="388" y="-128" type="curve"/>
      <point x="406" y="-78" type="line"/>
      <point x="299" y="-78"/>
      <point x="219" y="-44"/>
      <point x="240" y="66" type="curve" smooth="yes"/>
      <point x="253" y="133"/>
      <point x="303" y="174"/>
      <point x="377" y="174" type="curve" smooth="yes"/>
      <point x="401" y="174"/>
      <point x="432" y="174"/>
      <point x="429" y="160" type="curve" smooth="yes"/>
      <point x="426" y="146"/>
      <point x="393" y="136"/>
      <point x="362" y="123" type="curve" smooth="yes"/>
      <point x="335" y="107"/>
      <point x="309" y="89"/>
      <point x="303" y="58" type="curve" smooth="yes"/>
      <point x="293" y="7"/>
      <point x="324" y="-25"/>
      <point x="394" y="-25" type="curve" smooth="yes"/>
      <point x="427" y="-25"/>
      <point x="454" y="-18"/>
      <point x="481" y="-4" type="curve"/>
      <point x="467" y="41" type="line"/>
      <point x="447" y="30"/>
      <point x="425" y="22"/>
      <point x="393" y="22" type="curve" smooth="yes"/>
      <point x="358" y="22"/>
      <point x="349" y="32"/>
      <point x="352" y="45" type="curve" smooth="yes"/>
      <point x="356" y="64"/>
      <point x="376" y="73"/>
      <point x="402" y="84" type="curve" smooth="yes"/>
      <point x="435" y="104"/>
      <point x="473" y="113"/>
      <point x="480" y="149" type="curve" smooth="yes"/>
      <point x="489" y="194"/>
      <point x="454" y="222"/>
      <point x="376" y="222" type="curve" smooth="yes"/>
      <point x="351" y="222"/>
      <point x="322" y="218"/>
      <point x="296" y="207" type="curve"/>
      <point x="292" y="214"/>
      <point x="285" y="227"/>
      <point x="289" y="244" type="curve" smooth="yes"/>
      <point x="296" y="280"/>
      <point x="326" y="295"/>
      <point x="381" y="295" type="curve" smooth="yes"/>
    </contour>
    <contour>
      <point x="489" y="447" type="move" name="top"/>
    </contour>
  </outline>
</glyph>
<glyph name="uni0931094D_hadeva" format="1">
  <advance width="555"/>
  <outline>
    <contour>
      <point x="432" y="295"/>
      <point x="442" y="290"/>
      <point x="477" y="286" type="curve"/>
      <point x="487" y="293" type="line"/>
      <point x="508" y="408" type="line"/>
      <point x="620" y="408" type="line"/>
      <point x="630" y="456" type="line"/>
      <point x="28" y="456" type="line"/>
      <point x="18" y="408" type="line"/>
      <point x="452" y="408" type="line"/>
      <point x="438" y="342" type="line"/>
      <point x="412" y="345"/>
      <point x="410" y="346"/>
      <point x="375" y="346" type="curve" smooth="yes"/>
      <point x="304" y="346"/>
      <point x="246" y="319"/>
      <point x="233" y="254" type="curve" smooth="yes"/>
      <point x="229" y="229"/>
      <point x="232" y="207"/>
      <point x="249" y="182" type="curve"/>
      <point x="224" y="155"/>
      <point x="193" y="126"/>
      <point x="139" y="126" type="curve" smooth="yes"/>
      <point x="90" y="126"/>
      <point x="69" y="150"/>
      <point x="56" y="175" type="curve"/>
      <point x="13" y="152" type="line"/>
      <point x="25" y="113"/>
      <point x="69" y="77"/>
      <point x="137" y="77" type="curve" smooth="yes"/>
      <point x="155" y="77"/>
      <point x="174" y="79"/>
      <point x="193" y="88" type="curve"/>
      <point x="174" y="-3"/>
      <point x="256" y="-68"/>
      <point x="399" y="-68" type="curve"/>
      <point x="416" y="-20" type="line"/>
      <point x="309" y="-20"/>
      <point x="230" y="16"/>
      <point x="244" y="85" type="curve" smooth="yes"/>
      <point x="252" y="129"/>
      <point x="301" y="169"/>
      <point x="375" y="169" type="curve"/>
      <point x="424" y="167"/>
      <point x="436" y="144"/>
      <point x="431" y="117" type="curve" smooth="yes"/>
      <point x="427" y="95"/>
      <point x="409" y="82"/>
      <point x="399" y="73" type="curve"/>
      <point x="437" y="40" type="line"/>
      <point x="463" y="60"/>
      <point x="478" y="86"/>
      <point x="482" y="106" type="curve" smooth="yes"/>
      <point x="496" y="180"/>
      <point x="451" y="217"/>
      <point x="374" y="217" type="curve" smooth="yes"/>
      <point x="351" y="217"/>
      <point x="325" y="214"/>
      <point x="299" y="204" type="curve"/>
      <point x="295" y="209"/>
      <point x="284" y="224"/>
      <point x="288" y="244" type="curve" smooth="yes"/>
      <point x="295" y="280"/>
      <point x="325" y="295"/>
      <point x="380" y="295" type="curve" smooth="yes"/>
    </contour>
    <contour>
      <point x="489" y="447" type="move" name="top"/>
    </contour>
    <contour>
      <point x="343" y="-49" type="move" name="bottom"/>
    </contour>
  </outline>
</glyph>
<glyph name="uni0932094D0939094D_uuvowelsign" format="1">
  <advance width="760"/>
  <outline>
    <contour>
      <point x="637" y="295"/>
      <point x="647" y="290"/>
      <point x="682" y="286" type="curve"/>
      <point x="692" y="293" type="line"/>
      <point x="713" y="408" type="line"/>
      <point x="825" y="408" type="line"/>
      <point x="835" y="456" type="line"/>
      <point x="28" y="456" type="line"/>
      <point x="18" y="408" type="line"/>
      <point x="657" y="408" type="line"/>
      <point x="643" y="342" type="line"/>
      <point x="617" y="345"/>
      <point x="615" y="346"/>
      <point x="580" y="346" type="curve" smooth="yes"/>
      <point x="523" y="346"/>
      <point x="474" y="329"/>
      <point x="447" y="285" type="curve"/>
      <point x="431" y="297"/>
      <point x="408" y="308"/>
      <point x="375" y="308" type="curve" smooth="yes"/>
      <point x="345" y="308"/>
      <point x="310" y="297"/>
      <point x="279" y="266" type="curve"/>
      <point x="263" y="289"/>
      <point x="236" y="310"/>
      <point x="196" y="310" type="curve" smooth="yes"/>
      <point x="115" y="310"/>
      <point x="57" y="255"/>
      <point x="41" y="177" type="curve" smooth="yes"/>
      <point x="22" y="76"/>
      <point x="96" y="-11"/>
      <point x="96" y="-11" type="curve"/>
      <point x="154" y="9" type="line"/>
      <point x="136" y="34"/>
      <point x="84" y="100"/>
      <point x="97" y="167" type="curve" smooth="yes"/>
      <point x="107" y="219"/>
      <point x="144" y="256"/>
      <point x="193" y="256" type="curve" smooth="yes"/>
      <point x="222" y="256"/>
      <point x="238" y="235"/>
      <point x="246" y="216" type="curve"/>
      <point x="238" y="200"/>
      <point x="234" y="184"/>
      <point x="231" y="169" type="curve" smooth="yes"/>
      <point x="228" y="156"/>
      <point x="225" y="130"/>
      <point x="225" y="120" type="curve"/>
      <point x="276" y="108" type="line"/>
      <point x="277" y="118"/>
      <point x="278" y="138"/>
      <point x="282" y="157" type="curve" smooth="yes"/>
      <point x="293" y="215"/>
      <point x="332" y="253"/>
      <point x="376" y="253" type="curve" smooth="yes"/>
      <point x="411" y="253"/>
      <point x="427" y="227"/>
      <point x="441" y="211" type="curve"/>
      <point x="442" y="200"/>
      <point x="448" y="189"/>
      <point x="454" y="180" type="curve"/>
      <point x="422" y="154"/>
      <point x="404" y="129"/>
      <point x="398" y="95" type="curve" smooth="yes"/>
      <point x="387" y="42"/>
      <point x="411" y="3"/>
      <point x="440" y="-16" type="curve"/>
      <point x="419" y="-33"/>
      <point x="406" y="-55"/>
      <point x="401" y="-82" type="curve" smooth="yes"/>
      <point x="391" y="-135"/>
      <point x="418" y="-185"/>
      <point x="478" y="-185" type="curve" smooth="yes"/>
      <point x="510" y="-185"/>
      <point x="534" y="-175"/>
      <point x="549" y="-167" type="curve"/>
      <point x="532" y="-119" type="line"/>
      <point x="518" y="-127"/>
      <point x="502" y="-134"/>
      <point x="481" y="-134" type="curve" smooth="yes"/>
      <point x="460" y="-134"/>
      <point x="446" y="-120"/>
      <point x="451" y="-92" type="curve" smooth="yes"/>
      <point x="458" y="-58"/>
      <point x="487" y="-41"/>
      <point x="518" y="-41" type="curve" smooth="yes"/>
      <point x="563" y="-41"/>
      <point x="600" y="-100"/>
      <point x="645" y="-175" type="curve"/>
      <point x="689" y="-147" type="line"/>
      <point x="665" y="-108"/>
      <point x="606" y="11"/>
      <point x="520" y="11" type="curve" smooth="yes"/>
      <point x="513" y="11"/>
      <point x="504" y="11"/>
      <point x="494" y="8" type="curve"/>
      <point x="459" y="22"/>
      <point x="442" y="47"/>
      <point x="448" y="84" type="curve" smooth="yes"/>
      <point x="456" y="129"/>
      <point x="506" y="169"/>
      <point x="580" y="169" type="curve"/>
      <point x="629" y="167"/>
      <point x="641" y="144"/>
      <point x="636" y="117" type="curve" smooth="yes"/>
      <point x="632" y="95"/>
      <point x="614" y="82"/>
      <point x="604" y="73" type="curve"/>
      <point x="642" y="40" type="line"/>
      <point x="668" y="60"/>
      <point x="683" y="86"/>
      <point x="687" y="106" type="curve" smooth="yes"/>
      <point x="701" y="180"/>
      <point x="656" y="217"/>
      <point x="579" y="217" type="curve" smooth="yes"/>
      <point x="555" y="217"/>
      <point x="529" y="214"/>
      <point x="503" y="204" type="curve"/>
      <point x="499" y="208"/>
      <point x="489" y="224"/>
      <point x="493" y="244" type="curve" smooth="yes"/>
      <point x="500" y="280"/>
      <point x="530" y="295"/>
      <point x="585" y="295" type="curve" smooth="yes"/>
    </contour>
  </outline>
</glyph>
<glyph name="uni0932094D0939094D_uvowelsignd" format="1">
  <advance width="757"/>
  <outline>
    <contour>
      <point x="638" y="297"/>
      <point x="648" y="292"/>
      <point x="682" y="288" type="curve"/>
      <point x="692" y="295" type="line"/>
      <point x="713" y="408" type="line"/>
      <point x="822" y="408" type="line"/>
      <point x="832" y="456" type="line"/>
      <point x="28" y="456" type="line"/>
      <point x="18" y="408" type="line"/>
      <point x="657" y="408" type="line"/>
      <point x="643" y="344" type="line"/>
      <point x="618" y="347"/>
      <point x="616" y="348"/>
      <point x="581" y="348" type="curve" smooth="yes"/>
      <point x="523" y="348"/>
      <point x="473" y="331"/>
      <point x="447" y="285" type="curve"/>
      <point x="430" y="297"/>
      <point x="408" y="308"/>
      <point x="375" y="308" type="curve" smooth="yes"/>
      <point x="345" y="308"/>
      <point x="310" y="297"/>
      <point x="279" y="266" type="curve"/>
      <point x="263" y="289"/>
      <point x="236" y="310"/>
      <point x="196" y="310" type="curve" smooth="yes"/>
      <point x="115" y="310"/>
      <point x="57" y="255"/>
      <point x="41" y="177" type="curve" smooth="yes"/>
      <point x="22" y="76"/>
      <point x="96" y="-11"/>
      <point x="96" y="-11" type="curve"/>
      <point x="154" y="9" type="line"/>
      <point x="136" y="34"/>
      <point x="84" y="100"/>
      <point x="97" y="167" type="curve" smooth="yes"/>
      <point x="107" y="219"/>
      <point x="144" y="256"/>
      <point x="193" y="256" type="curve" smooth="yes"/>
      <point x="222" y="256"/>
      <point x="238" y="235"/>
      <point x="246" y="216" type="curve"/>
      <point x="238" y="200"/>
      <point x="234" y="184"/>
      <point x="231" y="169" type="curve" smooth="yes"/>
      <point x="228" y="156"/>
      <point x="225" y="130"/>
      <point x="225" y="120" type="curve"/>
      <point x="276" y="108" type="line"/>
      <point x="277" y="118"/>
      <point x="278" y="138"/>
      <point x="282" y="157" type="curve" smooth="yes"/>
      <point x="293" y="215"/>
      <point x="332" y="253"/>
      <point x="376" y="253" type="curve" smooth="yes"/>
      <point x="412" y="253"/>
      <point x="428" y="225"/>
      <point x="443" y="209" type="curve"/>
      <point x="444" y="199"/>
      <point x="449" y="190"/>
      <point x="453" y="182" type="curve"/>
      <point x="423" y="156"/>
      <point x="403" y="123"/>
      <point x="396" y="88" type="curve" smooth="yes"/>
      <point x="383" y="18"/>
      <point x="428" y="-44"/>
      <point x="530" y="-65" type="curve"/>
      <point x="528" y="-65"/>
      <point x="553" y="-50"/>
      <point x="583" y="-50" type="curve" smooth="yes"/>
      <point x="609" y="-50"/>
      <point x="625" y="-63"/>
      <point x="620" y="-89" type="curve" smooth="yes"/>
      <point x="613" y="-122"/>
      <point x="575" y="-139"/>
      <point x="540" y="-139" type="curve" smooth="yes"/>
      <point x="493" y="-139"/>
      <point x="459" y="-115"/>
      <point x="424" y="-74" type="curve"/>
      <point x="386" y="-107" type="line"/>
      <point x="416" y="-143"/>
      <point x="461" y="-190"/>
      <point x="541" y="-190" type="curve" smooth="yes"/>
      <point x="596" y="-190"/>
      <point x="659" y="-156"/>
      <point x="670" y="-100" type="curve" smooth="yes"/>
      <point x="680" y="-49"/>
      <point x="657" y="-1"/>
      <point x="586" y="-1" type="curve" smooth="yes"/>
      <point x="568" y="-1"/>
      <point x="550" y="-5"/>
      <point x="534" y="-12" type="curve"/>
      <point x="479" y="3"/>
      <point x="438" y="28"/>
      <point x="448" y="80" type="curve" smooth="yes"/>
      <point x="458" y="132"/>
      <point x="507" y="172"/>
      <point x="581" y="172" type="curve"/>
      <point x="629" y="170"/>
      <point x="642" y="147"/>
      <point x="636" y="120" type="curve" smooth="yes"/>
      <point x="632" y="98"/>
      <point x="615" y="85"/>
      <point x="605" y="76" type="curve"/>
      <point x="642" y="43" type="line"/>
      <point x="668" y="63"/>
      <point x="683" y="89"/>
      <point x="687" y="109" type="curve" smooth="yes"/>
      <point x="702" y="183"/>
      <point x="657" y="220"/>
      <point x="580" y="220" type="curve" smooth="yes"/>
      <point x="556" y="220"/>
      <point x="528" y="217"/>
      <point x="502" y="206" type="curve"/>
      <point x="497" y="213"/>
      <point x="489" y="228"/>
      <point x="493" y="246" type="curve" smooth="yes"/>
      <point x="500" y="282"/>
      <point x="531" y="297"/>
      <point x="586" y="297" type="curve" smooth="yes"/>
    </contour>
  </outline>
</glyph>
<glyph name="uni0932094D_gadeva" format="1">
  <advance width="823"/>
  <outline>
    <contour>
      <point x="898" y="456" type="line"/>
      <point x="28" y="456" type="line"/>
      <point x="18" y="408" type="line"/>
      <point x="513" y="408" type="line"/>
      <point x="476" y="220" type="line"/>
      <point x="461" y="270"/>
      <point x="432" y="308"/>
      <point x="375" y="308" type="curve" smooth="yes"/>
      <point x="345" y="308"/>
      <point x="310" y="297"/>
      <point x="279" y="266" type="curve"/>
      <point x="263" y="289"/>
      <point x="236" y="310"/>
      <point x="196" y="310" type="curve" smooth="yes"/>
      <point x="115" y="310"/>
      <point x="57" y="255"/>
      <point x="41" y="177" type="curve" smooth="yes"/>
      <point x="22" y="76"/>
      <point x="96" y="-11"/>
      <point x="96" y="-11" type="curve"/>
      <point x="154" y="9" type="line"/>
      <point x="136" y="34"/>
      <point x="84" y="100"/>
      <point x="97" y="167" type="curve" smooth="yes"/>
      <point x="107" y="219"/>
      <point x="144" y="256"/>
      <point x="193" y="256" type="curve" smooth="yes"/>
      <point x="222" y="256"/>
      <point x="238" y="235"/>
      <point x="246" y="216" type="curve"/>
      <point x="238" y="200"/>
      <point x="234" y="184"/>
      <point x="231" y="169" type="curve" smooth="yes"/>
      <point x="228" y="156"/>
      <point x="225" y="130"/>
      <point x="225" y="120" type="curve"/>
      <point x="276" y="108" type="line"/>
      <point x="277" y="118"/>
      <point x="278" y="138"/>
      <point x="282" y="157" type="curve" smooth="yes"/>
      <point x="293" y="215"/>
      <point x="332" y="253"/>
      <point x="376" y="253" type="curve" smooth="yes"/>
      <point x="399" y="253"/>
      <point x="412" y="239"/>
      <point x="419" y="217" type="curve"/>
      <point x="412" y="181" type="line"/>
      <point x="470" y="90" type="line"/>
      <point x="507" y="90" type="line"/>
      <point x="568" y="408" type="line"/>
      <point x="734" y="408" type="line"/>
      <point x="655" y="0" type="line"/>
      <point x="711" y="0" type="line"/>
      <point x="790" y="408" type="line"/>
      <point x="888" y="408" type="line"/>
    </contour>
    <contour>
      <point x="770" y="447" type="move" name="top"/>
    </contour>
    <contour>
      <point x="684" y="5" type="move" name="bottom"/>
    </contour>
  </outline>
</glyph>
<glyph name="uni0932094D_sadeva" format="1">
  <advance width="920"/>
  <outline>
    <contour>
      <point x="995" y="456" type="line"/>
      <point x="28" y="456" type="line"/>
      <point x="18" y="408" type="line"/>
      <point x="569" y="410" type="line"/>
      <point x="584" y="392"/>
      <point x="598" y="362"/>
      <point x="589" y="311" type="curve" smooth="yes"/>
      <point x="576" y="247"/>
      <point x="523" y="222"/>
      <point x="488" y="212" type="curve"/>
      <point x="469" y="242" type="line" smooth="yes"/>
      <point x="449" y="279"/>
      <point x="420" y="308"/>
      <point x="375" y="308" type="curve" smooth="yes"/>
      <point x="345" y="308"/>
      <point x="310" y="297"/>
      <point x="279" y="266" type="curve"/>
      <point x="263" y="289"/>
      <point x="236" y="310"/>
      <point x="196" y="310" type="curve" smooth="yes"/>
      <point x="115" y="310"/>
      <point x="57" y="255"/>
      <point x="41" y="177" type="curve" smooth="yes"/>
      <point x="22" y="76"/>
      <point x="96" y="-11"/>
      <point x="96" y="-11" type="curve"/>
      <point x="154" y="9" type="line"/>
      <point x="136" y="34"/>
      <point x="84" y="100"/>
      <point x="97" y="167" type="curve" smooth="yes"/>
      <point x="107" y="219"/>
      <point x="144" y="256"/>
      <point x="193" y="256" type="curve" smooth="yes"/>
      <point x="222" y="256"/>
      <point x="238" y="235"/>
      <point x="246" y="216" type="curve"/>
      <point x="238" y="200"/>
      <point x="234" y="184"/>
      <point x="231" y="169" type="curve" smooth="yes"/>
      <point x="228" y="156"/>
      <point x="225" y="130"/>
      <point x="225" y="120" type="curve"/>
      <point x="276" y="108" type="line"/>
      <point x="277" y="118"/>
      <point x="278" y="138"/>
      <point x="282" y="157" type="curve" smooth="yes"/>
      <point x="293" y="215"/>
      <point x="332" y="253"/>
      <point x="373" y="253" type="curve" smooth="yes"/>
      <point x="397" y="253"/>
      <point x="409" y="243"/>
      <point x="426" y="214" type="curve" smooth="yes"/>
      <point x="553" y="-18" type="line"/>
      <point x="605" y="14" type="line"/>
      <point x="517" y="166" type="line"/>
      <point x="529" y="170"/>
      <point x="541" y="175"/>
      <point x="554" y="182" type="curve"/>
      <point x="596" y="170"/>
      <point x="636" y="162"/>
      <point x="673" y="162" type="curve" smooth="yes"/>
      <point x="725" y="162"/>
      <point x="765" y="168"/>
      <point x="788" y="174" type="curve"/>
      <point x="752" y="0" type="line"/>
      <point x="808" y="0" type="line"/>
      <point x="887" y="408" type="line"/>
      <point x="985" y="408" type="line"/>
    </contour>
    <contour>
      <point x="795" y="230" type="line"/>
      <point x="774" y="224"/>
      <point x="737" y="216"/>
      <point x="686" y="216" type="curve" smooth="yes"/>
      <point x="664" y="216"/>
      <point x="632" y="217"/>
      <point x="601" y="222" type="curve"/>
      <point x="621" y="243"/>
      <point x="634" y="269"/>
      <point x="640" y="299" type="curve" smooth="yes"/>
      <point x="650" y="351"/>
      <point x="641" y="384"/>
      <point x="628" y="406" type="curve"/>
      <point x="831" y="408" type="line"/>
    </contour>
    <contour>
      <point x="867" y="447" type="move" name="top"/>
    </contour>
    <contour>
      <point x="781" y="5" type="move" name="bottom"/>
    </contour>
  </outline>
</glyph>
